G04 #@! TF.GenerationSoftware,KiCad,Pcbnew,(5.1.9)-1*
G04 #@! TF.CreationDate,2026-01-18T09:55:11+01:00*
G04 #@! TF.ProjectId,COMIX-35,434f4d49-582d-4333-952e-6b696361645f,1.2a*
G04 #@! TF.SameCoordinates,PX2b9a1c0PYd52a500*
G04 #@! TF.FileFunction,Soldermask,Bot*
G04 #@! TF.FilePolarity,Negative*
%FSLAX46Y46*%
G04 Gerber Fmt 4.6, Leading zero omitted, Abs format (unit mm)*
G04 Created by KiCad (PCBNEW (5.1.9)-1) date 2026-01-18 09:55:11*
%MOMM*%
%LPD*%
G01*
G04 APERTURE LIST*
%ADD10C,1.800000*%
%ADD11O,2.000000X2.500000*%
%ADD12C,1.574800*%
%ADD13O,1.600000X1.600000*%
%ADD14R,1.600000X1.600000*%
%ADD15C,1.778000*%
%ADD16C,3.200000*%
%ADD17C,1.700000*%
%ADD18O,4.500000X3.000000*%
%ADD19O,3.500000X4.500000*%
%ADD20O,3.500000X2.100000*%
%ADD21C,2.100000*%
%ADD22C,1.750000*%
%ADD23O,4.000000X3.000000*%
%ADD24C,4.140200*%
%ADD25C,1.854200*%
%ADD26C,2.540000*%
%ADD27C,2.300000*%
%ADD28C,2.000000*%
%ADD29C,1.600200*%
%ADD30C,1.500000*%
%ADD31R,1.500000X1.500000*%
%ADD32R,1.778000X1.778000*%
%ADD33O,2.000000X4.000000*%
%ADD34O,4.000000X2.000000*%
%ADD35O,4.500000X2.000000*%
%ADD36R,1.700000X1.700000*%
%ADD37O,1.700000X1.700000*%
%ADD38R,1.800000X1.800000*%
%ADD39C,3.048000*%
%ADD40C,3.987800*%
G04 APERTURE END LIST*
D10*
X11437000Y109030000D03*
X11437000Y113030000D03*
X11437000Y117030000D03*
D11*
X1270000Y108030000D03*
X1270000Y118030000D03*
D12*
X139192000Y147193000D03*
X139192000Y149733000D03*
X139192000Y152273000D03*
D13*
X176530000Y160020000D03*
X199390000Y152400000D03*
X179070000Y160020000D03*
X196850000Y152400000D03*
X181610000Y160020000D03*
X194310000Y152400000D03*
X184150000Y160020000D03*
X191770000Y152400000D03*
X186690000Y160020000D03*
X189230000Y152400000D03*
X189230000Y160020000D03*
X186690000Y152400000D03*
X191770000Y160020000D03*
X184150000Y152400000D03*
X194310000Y160020000D03*
X181610000Y152400000D03*
X196850000Y160020000D03*
X179070000Y152400000D03*
X199390000Y160020000D03*
D14*
X176530000Y152400000D03*
D13*
X228092000Y99822000D03*
X205232000Y107442000D03*
X225552000Y99822000D03*
X207772000Y107442000D03*
X223012000Y99822000D03*
X210312000Y107442000D03*
X220472000Y99822000D03*
X212852000Y107442000D03*
X217932000Y99822000D03*
X215392000Y107442000D03*
X215392000Y99822000D03*
X217932000Y107442000D03*
X212852000Y99822000D03*
X220472000Y107442000D03*
X210312000Y99822000D03*
X223012000Y107442000D03*
X207772000Y99822000D03*
X225552000Y107442000D03*
X205232000Y99822000D03*
D14*
X228092000Y107442000D03*
D13*
X86868000Y104140000D03*
X102108000Y137160000D03*
X86868000Y106680000D03*
X102108000Y134620000D03*
X86868000Y109220000D03*
X102108000Y132080000D03*
X86868000Y111760000D03*
X102108000Y129540000D03*
X86868000Y114300000D03*
X102108000Y127000000D03*
X86868000Y116840000D03*
X102108000Y124460000D03*
X86868000Y119380000D03*
X102108000Y121920000D03*
X86868000Y121920000D03*
X102108000Y119380000D03*
X86868000Y124460000D03*
X102108000Y116840000D03*
X86868000Y127000000D03*
X102108000Y114300000D03*
X86868000Y129540000D03*
X102108000Y111760000D03*
X86868000Y132080000D03*
X102108000Y109220000D03*
X86868000Y134620000D03*
X102108000Y106680000D03*
X86868000Y137160000D03*
D14*
X102108000Y104140000D03*
D13*
X64008000Y104140000D03*
X79248000Y137160000D03*
X64008000Y106680000D03*
X79248000Y134620000D03*
X64008000Y109220000D03*
X79248000Y132080000D03*
X64008000Y111760000D03*
X79248000Y129540000D03*
X64008000Y114300000D03*
X79248000Y127000000D03*
X64008000Y116840000D03*
X79248000Y124460000D03*
X64008000Y119380000D03*
X79248000Y121920000D03*
X64008000Y121920000D03*
X79248000Y119380000D03*
X64008000Y124460000D03*
X79248000Y116840000D03*
X64008000Y127000000D03*
X79248000Y114300000D03*
X64008000Y129540000D03*
X79248000Y111760000D03*
X64008000Y132080000D03*
X79248000Y109220000D03*
X64008000Y134620000D03*
X79248000Y106680000D03*
X64008000Y137160000D03*
D14*
X79248000Y104140000D03*
D13*
X164592000Y111760000D03*
X179832000Y144780000D03*
X164592000Y114300000D03*
X179832000Y142240000D03*
X164592000Y116840000D03*
X179832000Y139700000D03*
X164592000Y119380000D03*
X179832000Y137160000D03*
X164592000Y121920000D03*
X179832000Y134620000D03*
X164592000Y124460000D03*
X179832000Y132080000D03*
X164592000Y127000000D03*
X179832000Y129540000D03*
X164592000Y129540000D03*
X179832000Y127000000D03*
X164592000Y132080000D03*
X179832000Y124460000D03*
X164592000Y134620000D03*
X179832000Y121920000D03*
X164592000Y137160000D03*
X179832000Y119380000D03*
X164592000Y139700000D03*
X179832000Y116840000D03*
X164592000Y142240000D03*
X179832000Y114300000D03*
X164592000Y144780000D03*
D14*
X179832000Y111760000D03*
D13*
X189230000Y111760000D03*
X204470000Y144780000D03*
X189230000Y114300000D03*
X204470000Y142240000D03*
X189230000Y116840000D03*
X204470000Y139700000D03*
X189230000Y119380000D03*
X204470000Y137160000D03*
X189230000Y121920000D03*
X204470000Y134620000D03*
X189230000Y124460000D03*
X204470000Y132080000D03*
X189230000Y127000000D03*
X204470000Y129540000D03*
X189230000Y129540000D03*
X204470000Y127000000D03*
X189230000Y132080000D03*
X204470000Y124460000D03*
X189230000Y134620000D03*
X204470000Y121920000D03*
X189230000Y137160000D03*
X204470000Y119380000D03*
X189230000Y139700000D03*
X204470000Y116840000D03*
X189230000Y142240000D03*
X204470000Y114300000D03*
X189230000Y144780000D03*
D14*
X204470000Y111760000D03*
D13*
X143256000Y104140000D03*
X158496000Y152400000D03*
X143256000Y106680000D03*
X158496000Y149860000D03*
X143256000Y109220000D03*
X158496000Y147320000D03*
X143256000Y111760000D03*
X158496000Y144780000D03*
X143256000Y114300000D03*
X158496000Y142240000D03*
X143256000Y116840000D03*
X158496000Y139700000D03*
X143256000Y119380000D03*
X158496000Y137160000D03*
X143256000Y121920000D03*
X158496000Y134620000D03*
X143256000Y124460000D03*
X158496000Y132080000D03*
X143256000Y127000000D03*
X158496000Y129540000D03*
X143256000Y129540000D03*
X158496000Y127000000D03*
X143256000Y132080000D03*
X158496000Y124460000D03*
X143256000Y134620000D03*
X158496000Y121920000D03*
X143256000Y137160000D03*
X158496000Y119380000D03*
X143256000Y139700000D03*
X158496000Y116840000D03*
X143256000Y142240000D03*
X158496000Y114300000D03*
X143256000Y144780000D03*
X158496000Y111760000D03*
X143256000Y147320000D03*
X158496000Y109220000D03*
X143256000Y149860000D03*
X158496000Y106680000D03*
X143256000Y152400000D03*
D14*
X158496000Y104140000D03*
D13*
X227584000Y160020000D03*
X212344000Y111760000D03*
X227584000Y157480000D03*
X212344000Y114300000D03*
X227584000Y154940000D03*
X212344000Y116840000D03*
X227584000Y152400000D03*
X212344000Y119380000D03*
X227584000Y149860000D03*
X212344000Y121920000D03*
X227584000Y147320000D03*
X212344000Y124460000D03*
X227584000Y144780000D03*
X212344000Y127000000D03*
X227584000Y142240000D03*
X212344000Y129540000D03*
X227584000Y139700000D03*
X212344000Y132080000D03*
X227584000Y137160000D03*
X212344000Y134620000D03*
X227584000Y134620000D03*
X212344000Y137160000D03*
X227584000Y132080000D03*
X212344000Y139700000D03*
X227584000Y129540000D03*
X212344000Y142240000D03*
X227584000Y127000000D03*
X212344000Y144780000D03*
X227584000Y124460000D03*
X212344000Y147320000D03*
X227584000Y121920000D03*
X212344000Y149860000D03*
X227584000Y119380000D03*
X212344000Y152400000D03*
X227584000Y116840000D03*
X212344000Y154940000D03*
X227584000Y114300000D03*
X212344000Y157480000D03*
X227584000Y111760000D03*
D14*
X212344000Y160020000D03*
D13*
X263906000Y111760000D03*
X279146000Y160020000D03*
X263906000Y114300000D03*
X279146000Y157480000D03*
X263906000Y116840000D03*
X279146000Y154940000D03*
X263906000Y119380000D03*
X279146000Y152400000D03*
X263906000Y121920000D03*
X279146000Y149860000D03*
X263906000Y124460000D03*
X279146000Y147320000D03*
X263906000Y127000000D03*
X279146000Y144780000D03*
X263906000Y129540000D03*
X279146000Y142240000D03*
X263906000Y132080000D03*
X279146000Y139700000D03*
X263906000Y134620000D03*
X279146000Y137160000D03*
X263906000Y137160000D03*
X279146000Y134620000D03*
X263906000Y139700000D03*
X279146000Y132080000D03*
X263906000Y142240000D03*
X279146000Y129540000D03*
X263906000Y144780000D03*
X279146000Y127000000D03*
X263906000Y147320000D03*
X279146000Y124460000D03*
X263906000Y149860000D03*
X279146000Y121920000D03*
X263906000Y152400000D03*
X279146000Y119380000D03*
X263906000Y154940000D03*
X279146000Y116840000D03*
X263906000Y157480000D03*
X279146000Y114300000D03*
X263906000Y160020000D03*
D14*
X279146000Y111760000D03*
D13*
X51054000Y127508000D03*
X58674000Y142748000D03*
X51054000Y130048000D03*
X58674000Y140208000D03*
X51054000Y132588000D03*
X58674000Y137668000D03*
X51054000Y135128000D03*
X58674000Y135128000D03*
X51054000Y137668000D03*
X58674000Y132588000D03*
X51054000Y140208000D03*
X58674000Y130048000D03*
X51054000Y142748000D03*
D14*
X58674000Y127508000D03*
D13*
X50800000Y104140000D03*
X58420000Y119380000D03*
X50800000Y106680000D03*
X58420000Y116840000D03*
X50800000Y109220000D03*
X58420000Y114300000D03*
X50800000Y111760000D03*
X58420000Y111760000D03*
X50800000Y114300000D03*
X58420000Y109220000D03*
X50800000Y116840000D03*
X58420000Y106680000D03*
X50800000Y119380000D03*
D14*
X58420000Y104140000D03*
D13*
X36908999Y127508000D03*
X44528999Y142748000D03*
X36908999Y130048000D03*
X44528999Y140208000D03*
X36908999Y132588000D03*
X44528999Y137668000D03*
X36908999Y135128000D03*
X44528999Y135128000D03*
X36908999Y137668000D03*
X44528999Y132588000D03*
X36908999Y140208000D03*
X44528999Y130048000D03*
X36908999Y142748000D03*
D14*
X44528999Y127508000D03*
D13*
X36830000Y104140000D03*
X44450000Y119380000D03*
X36830000Y106680000D03*
X44450000Y116840000D03*
X36830000Y109220000D03*
X44450000Y114300000D03*
X36830000Y111760000D03*
X44450000Y111760000D03*
X36830000Y114300000D03*
X44450000Y109220000D03*
X36830000Y116840000D03*
X44450000Y106680000D03*
X36830000Y119380000D03*
D14*
X44450000Y104140000D03*
D13*
X110109000Y104140000D03*
X117729000Y119380000D03*
X110109000Y106680000D03*
X117729000Y116840000D03*
X110109000Y109220000D03*
X117729000Y114300000D03*
X110109000Y111760000D03*
X117729000Y111760000D03*
X110109000Y114300000D03*
X117729000Y109220000D03*
X110109000Y116840000D03*
X117729000Y106680000D03*
X110109000Y119380000D03*
D14*
X117729000Y104140000D03*
D13*
X110109000Y127000000D03*
X117729000Y142240000D03*
X110109000Y129540000D03*
X117729000Y139700000D03*
X110109000Y132080000D03*
X117729000Y137160000D03*
X110109000Y134620000D03*
X117729000Y134620000D03*
X110109000Y137160000D03*
X117729000Y132080000D03*
X110109000Y139700000D03*
X117729000Y129540000D03*
X110109000Y142240000D03*
D14*
X117729000Y127000000D03*
D13*
X12573000Y127508000D03*
X20193000Y135128000D03*
X12573000Y130048000D03*
X20193000Y132588000D03*
X12573000Y132588000D03*
X20193000Y130048000D03*
X12573000Y135128000D03*
D14*
X20193000Y127508000D03*
D13*
X237998000Y111760000D03*
X253238000Y160020000D03*
X237998000Y114300000D03*
X253238000Y157480000D03*
X237998000Y116840000D03*
X253238000Y154940000D03*
X237998000Y119380000D03*
X253238000Y152400000D03*
X237998000Y121920000D03*
X253238000Y149860000D03*
X237998000Y124460000D03*
X253238000Y147320000D03*
X237998000Y127000000D03*
X253238000Y144780000D03*
X237998000Y129540000D03*
X253238000Y142240000D03*
X237998000Y132080000D03*
X253238000Y139700000D03*
X237998000Y134620000D03*
X253238000Y137160000D03*
X237998000Y137160000D03*
X253238000Y134620000D03*
X237998000Y139700000D03*
X253238000Y132080000D03*
X237998000Y142240000D03*
X253238000Y129540000D03*
X237998000Y144780000D03*
X253238000Y127000000D03*
X237998000Y147320000D03*
X253238000Y124460000D03*
X237998000Y149860000D03*
X253238000Y121920000D03*
X237998000Y152400000D03*
X253238000Y119380000D03*
X237998000Y154940000D03*
X253238000Y116840000D03*
X237998000Y157480000D03*
X253238000Y114300000D03*
X237998000Y160020000D03*
D14*
X253238000Y111760000D03*
D15*
X87757000Y148971000D03*
X87757000Y161671000D03*
X85217000Y148971000D03*
X85217000Y161671000D03*
X82677000Y161671000D03*
X82677000Y148971000D03*
D16*
X166878000Y160020000D03*
D17*
X288925000Y99060000D03*
X288925000Y101600000D03*
X288925000Y104140000D03*
X288925000Y106680000D03*
X288925000Y109220000D03*
X288925000Y111760000D03*
X288925000Y114300000D03*
X288925000Y116840000D03*
X288925000Y119380000D03*
X288925000Y121920000D03*
X288925000Y124460000D03*
X288925000Y127000000D03*
X288925000Y129540000D03*
X288925000Y132080000D03*
X288925000Y134620000D03*
X288925000Y137160000D03*
X288925000Y139700000D03*
X288925000Y142240000D03*
X288925000Y144780000D03*
X288925000Y147320000D03*
X286385000Y99060000D03*
X286385000Y101600000D03*
X286385000Y104140000D03*
X286385000Y106680000D03*
X286385000Y109220000D03*
X286385000Y111760000D03*
X286385000Y114300000D03*
X286385000Y116840000D03*
X286385000Y119380000D03*
X286385000Y121920000D03*
X286385000Y124460000D03*
X286385000Y127000000D03*
X286385000Y129540000D03*
X286385000Y132080000D03*
X286385000Y134620000D03*
X286385000Y137160000D03*
X286385000Y139700000D03*
X286385000Y142240000D03*
X286385000Y144780000D03*
G36*
G01*
X285535000Y146720000D02*
X285535000Y147920000D01*
G75*
G02*
X285785000Y148170000I250000J0D01*
G01*
X286985000Y148170000D01*
G75*
G02*
X287235000Y147920000I0J-250000D01*
G01*
X287235000Y146720000D01*
G75*
G02*
X286985000Y146470000I-250000J0D01*
G01*
X285785000Y146470000D01*
G75*
G02*
X285535000Y146720000I0J250000D01*
G01*
G37*
D15*
X259715000Y121920000D03*
X259715000Y109220000D03*
D16*
X290830000Y5080000D03*
X290830000Y160020000D03*
X3810000Y5080000D03*
X3810000Y160020000D03*
D13*
X91948000Y151892000D03*
X99568000Y159512000D03*
X91948000Y154432000D03*
X99568000Y156972000D03*
X91948000Y156972000D03*
X99568000Y154432000D03*
X91948000Y159512000D03*
D14*
X99568000Y151892000D03*
D13*
X92075000Y145923000D03*
D14*
X99695000Y145923000D03*
D13*
X99695000Y148590000D03*
D14*
X92075000Y148590000D03*
D18*
X134366000Y162734000D03*
D19*
X140066000Y157934000D03*
D20*
X134366000Y157934000D03*
D19*
X128666000Y157934000D03*
D21*
X49804000Y159562000D03*
D22*
X51054000Y162052000D03*
X55554000Y162052000D03*
D21*
X56814000Y159562000D03*
D23*
X26670000Y141732000D03*
X26670000Y145542000D03*
X26670000Y149352000D03*
X24130000Y162052000D03*
X29210000Y162052000D03*
D22*
X160655000Y160655000D03*
X158115000Y158115000D03*
X155575000Y160655000D03*
X149225000Y160655000D03*
X146685000Y158115000D03*
X144145000Y160655000D03*
D24*
X16510000Y30988000D03*
D25*
X21590000Y30988000D03*
X11430000Y30988000D03*
D26*
X19050000Y36068000D03*
X12700000Y33528000D03*
D24*
X264287000Y88138000D03*
D25*
X269367000Y88138000D03*
X259207000Y88138000D03*
D26*
X266827000Y93218000D03*
X260477000Y90678000D03*
D27*
X114416000Y151087000D03*
X116416000Y154787000D03*
X114416000Y156587000D03*
X116416000Y160287000D03*
X114416000Y162687000D03*
X75311000Y151087000D03*
X77311000Y154787000D03*
X75311000Y156587000D03*
X77311000Y160287000D03*
X75311000Y162687000D03*
D24*
X207137000Y88138000D03*
D25*
X212217000Y88138000D03*
X202057000Y88138000D03*
D26*
X209677000Y93218000D03*
X203327000Y90678000D03*
D24*
X35687000Y88138000D03*
D25*
X40767000Y88138000D03*
X30607000Y88138000D03*
D26*
X38227000Y93218000D03*
X31877000Y90678000D03*
D24*
X54737000Y88138000D03*
D25*
X59817000Y88138000D03*
X49657000Y88138000D03*
D26*
X57277000Y93218000D03*
X50927000Y90678000D03*
D24*
X73787000Y88138000D03*
D25*
X78867000Y88138000D03*
X68707000Y88138000D03*
D26*
X76327000Y93218000D03*
X69977000Y90678000D03*
D24*
X92837000Y88138000D03*
D25*
X97917000Y88138000D03*
X87757000Y88138000D03*
D26*
X95377000Y93218000D03*
X89027000Y90678000D03*
D24*
X111887000Y88138000D03*
D25*
X116967000Y88138000D03*
X106807000Y88138000D03*
D26*
X114427000Y93218000D03*
X108077000Y90678000D03*
D24*
X130937000Y88138000D03*
D25*
X136017000Y88138000D03*
X125857000Y88138000D03*
D26*
X133477000Y93218000D03*
X127127000Y90678000D03*
D24*
X149987000Y88138000D03*
D25*
X155067000Y88138000D03*
X144907000Y88138000D03*
D26*
X152527000Y93218000D03*
X146177000Y90678000D03*
D24*
X169037000Y88138000D03*
D25*
X174117000Y88138000D03*
X163957000Y88138000D03*
D26*
X171577000Y93218000D03*
X165227000Y90678000D03*
D24*
X188087000Y88138000D03*
D25*
X193167000Y88138000D03*
X183007000Y88138000D03*
D26*
X190627000Y93218000D03*
X184277000Y90678000D03*
D24*
X211899500Y30988000D03*
D25*
X216979500Y30988000D03*
X206819500Y30988000D03*
D26*
X214439500Y36068000D03*
X208089500Y33528000D03*
D24*
X192849500Y30988000D03*
D25*
X197929500Y30988000D03*
X187769500Y30988000D03*
D26*
X195389500Y36068000D03*
X189039500Y33528000D03*
D24*
X226187000Y88138000D03*
D25*
X231267000Y88138000D03*
X221107000Y88138000D03*
D26*
X228727000Y93218000D03*
X222377000Y90678000D03*
D24*
X245237000Y88138000D03*
D25*
X250317000Y88138000D03*
X240157000Y88138000D03*
D26*
X247777000Y93218000D03*
X241427000Y90678000D03*
D24*
X235585000Y69088000D03*
D25*
X240665000Y69088000D03*
X230505000Y69088000D03*
D26*
X238125000Y74168000D03*
X231775000Y71628000D03*
D24*
X30988000Y50038000D03*
D25*
X36068000Y50038000D03*
X25908000Y50038000D03*
D26*
X33528000Y55118000D03*
X27178000Y52578000D03*
D24*
X50038000Y50038000D03*
D25*
X55118000Y50038000D03*
X44958000Y50038000D03*
D26*
X52578000Y55118000D03*
X46228000Y52578000D03*
D24*
X135699500Y30988000D03*
D25*
X140779500Y30988000D03*
X130619500Y30988000D03*
D26*
X138239500Y36068000D03*
X131889500Y33528000D03*
D24*
X97599500Y30988000D03*
D25*
X102679500Y30988000D03*
X92519500Y30988000D03*
D26*
X100139500Y36068000D03*
X93789500Y33528000D03*
D24*
X88138000Y50038000D03*
D25*
X93218000Y50038000D03*
X83058000Y50038000D03*
D26*
X90678000Y55118000D03*
X84328000Y52578000D03*
D24*
X83185000Y69088000D03*
D25*
X88265000Y69088000D03*
X78105000Y69088000D03*
D26*
X85725000Y74168000D03*
X79375000Y71628000D03*
D24*
X107188000Y50038000D03*
D25*
X112268000Y50038000D03*
X102108000Y50038000D03*
D26*
X109728000Y55118000D03*
X103378000Y52578000D03*
D24*
X126238000Y50038000D03*
D25*
X131318000Y50038000D03*
X121158000Y50038000D03*
D26*
X128778000Y55118000D03*
X122428000Y52578000D03*
D24*
X145288000Y50038000D03*
D25*
X150368000Y50038000D03*
X140208000Y50038000D03*
D26*
X147828000Y55118000D03*
X141478000Y52578000D03*
D24*
X178435000Y69088000D03*
D25*
X183515000Y69088000D03*
X173355000Y69088000D03*
D26*
X180975000Y74168000D03*
X174625000Y71628000D03*
D24*
X164338000Y50038000D03*
D25*
X169418000Y50038000D03*
X159258000Y50038000D03*
D26*
X166878000Y55118000D03*
X160528000Y52578000D03*
D24*
X183388000Y50038000D03*
D25*
X188468000Y50038000D03*
X178308000Y50038000D03*
D26*
X185928000Y55118000D03*
X179578000Y52578000D03*
D24*
X202438000Y50038000D03*
D25*
X207518000Y50038000D03*
X197358000Y50038000D03*
D26*
X204978000Y55118000D03*
X198628000Y52578000D03*
D24*
X173799500Y30988000D03*
D25*
X178879500Y30988000D03*
X168719500Y30988000D03*
D26*
X176339500Y36068000D03*
X169989500Y33528000D03*
D24*
X154749500Y30988000D03*
D25*
X159829500Y30988000D03*
X149669500Y30988000D03*
D26*
X157289500Y36068000D03*
X150939500Y33528000D03*
D24*
X197485000Y69088000D03*
D25*
X202565000Y69088000D03*
X192405000Y69088000D03*
D26*
X200025000Y74168000D03*
X193675000Y71628000D03*
D24*
X216535000Y69088000D03*
D25*
X221615000Y69088000D03*
X211455000Y69088000D03*
D26*
X219075000Y74168000D03*
X212725000Y71628000D03*
D24*
X45085000Y69088000D03*
D25*
X50165000Y69088000D03*
X40005000Y69088000D03*
D26*
X47625000Y74168000D03*
X41275000Y71628000D03*
D24*
X102235000Y69088000D03*
D25*
X107315000Y69088000D03*
X97155000Y69088000D03*
D26*
X104775000Y74168000D03*
X98425000Y71628000D03*
D24*
X69088000Y50038000D03*
D25*
X74168000Y50038000D03*
X64008000Y50038000D03*
D26*
X71628000Y55118000D03*
X65278000Y52578000D03*
D24*
X121285000Y69088000D03*
D25*
X126365000Y69088000D03*
X116205000Y69088000D03*
D26*
X123825000Y74168000D03*
X117475000Y71628000D03*
D24*
X159385000Y69088000D03*
D25*
X164465000Y69088000D03*
X154305000Y69088000D03*
D26*
X161925000Y74168000D03*
X155575000Y71628000D03*
D24*
X116649500Y30988000D03*
D25*
X121729500Y30988000D03*
X111569500Y30988000D03*
D26*
X119189500Y36068000D03*
X112839500Y33528000D03*
D24*
X64135000Y69088000D03*
D25*
X69215000Y69088000D03*
X59055000Y69088000D03*
D26*
X66675000Y74168000D03*
X60325000Y71628000D03*
D24*
X78549500Y30988000D03*
D25*
X83629500Y30988000D03*
X73469500Y30988000D03*
D26*
X81089500Y36068000D03*
X74739500Y33528000D03*
D24*
X140335000Y69088000D03*
D25*
X145415000Y69088000D03*
X135255000Y69088000D03*
D26*
X142875000Y74168000D03*
X136525000Y71628000D03*
D24*
X59499500Y30988000D03*
D25*
X64579500Y30988000D03*
X54419500Y30988000D03*
D26*
X62039500Y36068000D03*
X55689500Y33528000D03*
D24*
X221488000Y50038000D03*
D25*
X226568000Y50038000D03*
X216408000Y50038000D03*
D26*
X224028000Y55118000D03*
X217678000Y52578000D03*
D24*
X240538000Y50038000D03*
D25*
X245618000Y50038000D03*
X235458000Y50038000D03*
D26*
X243078000Y55118000D03*
X236728000Y52578000D03*
D24*
X259588000Y50038000D03*
D25*
X264668000Y50038000D03*
X254508000Y50038000D03*
D26*
X262128000Y55118000D03*
X255778000Y52578000D03*
D24*
X230949500Y30988000D03*
D25*
X236029500Y30988000D03*
X225869500Y30988000D03*
D26*
X233489500Y36068000D03*
X227139500Y33528000D03*
D24*
X26035000Y69088000D03*
D25*
X31115000Y69088000D03*
X20955000Y69088000D03*
D26*
X28575000Y74168000D03*
X22225000Y71628000D03*
D24*
X16637000Y88138000D03*
D25*
X21717000Y88138000D03*
X11557000Y88138000D03*
D26*
X19177000Y93218000D03*
X12827000Y90678000D03*
D28*
X138898000Y115570000D03*
X133898000Y115570000D03*
D29*
X111506000Y123190000D03*
X116586000Y123190000D03*
X110109000Y100330000D03*
X115189000Y100330000D03*
X36830000Y100330000D03*
X41910000Y100330000D03*
X38100000Y123698000D03*
X43180000Y123698000D03*
X50800000Y100076000D03*
X55880000Y100076000D03*
D30*
X26670000Y135525000D03*
D31*
X26670000Y137525000D03*
D29*
X52324000Y123698000D03*
X57404000Y123698000D03*
X259715000Y124460000D03*
X259715000Y129540000D03*
X263906000Y107696000D03*
X268986000Y107696000D03*
X172720000Y158750000D03*
X172720000Y153670000D03*
X231140000Y160020000D03*
X231140000Y154940000D03*
X125984000Y100330000D03*
X131064000Y100330000D03*
X194310000Y107696000D03*
X199390000Y107696000D03*
X125984000Y115570000D03*
X131064000Y115570000D03*
X169672000Y107696000D03*
X174752000Y107696000D03*
X143256000Y99568000D03*
X148336000Y99568000D03*
X125984000Y118110000D03*
X131064000Y118110000D03*
X125984000Y133350000D03*
X131064000Y133350000D03*
X64008000Y99568000D03*
X69088000Y99568000D03*
X91948000Y100330000D03*
X97028000Y100330000D03*
X59944000Y155956000D03*
X59944000Y161036000D03*
X252730000Y102108000D03*
X252730000Y107188000D03*
X237490000Y102870000D03*
X237490000Y107950000D03*
X242951000Y107950000D03*
X248031000Y107950000D03*
X231902000Y101092000D03*
X231902000Y106172000D03*
X102489000Y156972000D03*
X102489000Y162052000D03*
X102489000Y154432000D03*
X102489000Y149352000D03*
X19685000Y121285000D03*
X19685000Y116205000D03*
X22860000Y121285000D03*
X22860000Y116205000D03*
D30*
X7620000Y125115000D03*
D31*
X7620000Y127615000D03*
D29*
X13716000Y140970000D03*
X18796000Y140970000D03*
D30*
X7620000Y137775000D03*
D31*
X7620000Y135275000D03*
D29*
X36703000Y161671000D03*
X41783000Y161671000D03*
D30*
X66421000Y160254000D03*
D31*
X66421000Y157754000D03*
D15*
X33782000Y106553000D03*
D32*
X33782000Y119253000D03*
D15*
X47752000Y124460000D03*
D32*
X47752000Y111760000D03*
D15*
X31242000Y106553000D03*
D32*
X31242000Y119253000D03*
D33*
X8000000Y154146000D03*
D34*
X12700000Y157146000D03*
D35*
X12700000Y151146000D03*
D36*
X4445000Y143510000D03*
D37*
X4445000Y146050000D03*
D36*
X139065000Y109220000D03*
D37*
X139065000Y106680000D03*
X139065000Y104140000D03*
D36*
X138684000Y140462000D03*
D37*
X138684000Y137922000D03*
X138684000Y135382000D03*
D36*
X30734000Y130048000D03*
D37*
X30734000Y127508000D03*
X30734000Y124968000D03*
D36*
X260858000Y104394000D03*
D37*
X258318000Y104394000D03*
X255778000Y104394000D03*
D36*
X79248000Y142494000D03*
D37*
X81788000Y142494000D03*
X84328000Y142494000D03*
D36*
X231140000Y134620000D03*
D37*
X231140000Y132080000D03*
X231140000Y129540000D03*
D15*
X257175000Y121920000D03*
X257175000Y109220000D03*
X278130000Y103886000D03*
X265430000Y103886000D03*
X120904000Y101600000D03*
X120904000Y114300000D03*
X123444000Y114300000D03*
X123444000Y101600000D03*
X120904000Y119380000D03*
X120904000Y132080000D03*
X123444000Y132080000D03*
X123444000Y119380000D03*
X136271000Y147193000D03*
X123571000Y147193000D03*
X123571000Y152273000D03*
X136271000Y152273000D03*
X123571000Y149733000D03*
X136271000Y149733000D03*
X34036000Y127508000D03*
X34036000Y140208000D03*
X259715000Y144780000D03*
X259715000Y132080000D03*
X49276000Y152908000D03*
X61976000Y152908000D03*
X238760000Y99822000D03*
X251460000Y99822000D03*
X281813000Y139700000D03*
X281813000Y127000000D03*
X28702000Y119126000D03*
X28702000Y106426000D03*
X234696000Y111760000D03*
X234696000Y124460000D03*
X232156000Y124460000D03*
X232156000Y111760000D03*
X45847000Y151892000D03*
X33147000Y151892000D03*
X45847000Y149352000D03*
X33147000Y149352000D03*
X62865000Y143510000D03*
X75565000Y143510000D03*
X104775000Y142875000D03*
X92075000Y142875000D03*
X107696000Y162052000D03*
X107696000Y149352000D03*
X105156000Y149352000D03*
X105156000Y162052000D03*
X8636000Y144145000D03*
X21336000Y144145000D03*
X45847000Y158877000D03*
X33147000Y158877000D03*
X45847000Y156337000D03*
X33147000Y156337000D03*
X185674000Y116840000D03*
X185674000Y129540000D03*
X231140000Y152400000D03*
X231140000Y139700000D03*
D36*
X256540000Y149860000D03*
D37*
X256540000Y147320000D03*
X256540000Y144780000D03*
X256540000Y142240000D03*
X256540000Y139700000D03*
X256540000Y137160000D03*
X256540000Y134620000D03*
X256540000Y132080000D03*
X256540000Y129540000D03*
D30*
X127889000Y105410000D03*
X127889000Y110290000D03*
X127889000Y123190000D03*
X127889000Y128070000D03*
X247396000Y103632000D03*
X242516000Y103632000D03*
D26*
X136715500Y14478000D03*
X143065500Y17018000D03*
D25*
X135445500Y11938000D03*
X145605500Y11938000D03*
D24*
X140525500Y11938000D03*
D38*
X282448000Y31242000D03*
D10*
X284988000Y31242000D03*
D15*
X265430000Y101346000D03*
X278130000Y101346000D03*
D39*
X180657500Y18923000D03*
D40*
X180657500Y3683000D03*
X100393500Y3683000D03*
D39*
X100393500Y18923000D03*
X190563500Y18923000D03*
D40*
X190563500Y3683000D03*
X90487500Y3683000D03*
D39*
X90487500Y18923000D03*
D24*
X249999500Y30988000D03*
D25*
X255079500Y30988000D03*
X244919500Y30988000D03*
D26*
X252539500Y36068000D03*
X246189500Y33528000D03*
D24*
X269049500Y11938000D03*
D25*
X274129500Y11938000D03*
X263969500Y11938000D03*
D26*
X271589500Y17018000D03*
X265239500Y14478000D03*
D24*
X230949500Y11938000D03*
D25*
X236029500Y11938000D03*
X225869500Y11938000D03*
D26*
X233489500Y17018000D03*
X227139500Y14478000D03*
D24*
X249999500Y11938000D03*
D25*
X255079500Y11938000D03*
X244919500Y11938000D03*
D26*
X252539500Y17018000D03*
X246189500Y14478000D03*
D29*
X138684000Y132080000D03*
X138684000Y127000000D03*
D15*
X61976000Y147828000D03*
D32*
X49276000Y147828000D03*
D15*
X49276000Y150368000D03*
X61976000Y150368000D03*
D26*
X255651000Y71628000D03*
X262001000Y74168000D03*
D25*
X254381000Y69088000D03*
X264541000Y69088000D03*
D24*
X259461000Y69088000D03*
D26*
X8128000Y52578000D03*
X14478000Y55118000D03*
D25*
X6858000Y50038000D03*
X17018000Y50038000D03*
D24*
X11938000Y50038000D03*
X38036500Y30988000D03*
D25*
X43116500Y30988000D03*
X32956500Y30988000D03*
D26*
X40576500Y36068000D03*
X34226500Y33528000D03*
D10*
X124460000Y159512000D03*
D38*
X121920000Y159512000D03*
D15*
X33147000Y146812000D03*
X45847000Y146812000D03*
M02*
