M48
; DRILL file {KiCad (5.1.9)-1} date 01/18/26 09:55:15
; FORMAT={-:-/ absolute / inch / decimal}
; #@! TF.CreationDate,2026-01-18T09:55:15+01:00
; #@! TF.GenerationSoftware,Kicad,Pcbnew,(5.1.9)-1
; #@! TF.FileFunction,Plated,1,2,PTH
FMAT,2
INCH
T1C0.0120
T2C0.0236
T3C0.0276
T4C0.0300
T5C0.0315
T6C0.0320
T7C0.0350
T8C0.0354
T9C0.0390
T10C0.0394
T11C0.0400
T12C0.0472
T13C0.0512
T14C0.0590
T15C0.0591
T16C0.0669
T17C0.0728
T18C0.1200
T19C0.1570
%
G90
G05
T1
X1.03Y3.86
X1.09Y3.25
X1.17Y1.75
X1.2295Y3.8864
X1.5Y4.25
X1.54Y5.08
X1.5784Y3.8234
X1.5981Y4.3986
X1.61Y5.12
X1.6174Y3.8179
X1.62Y5.19
X1.63Y5.02
X1.6608Y3.8235
X1.7085Y3.8235
X1.7992Y3.8578
X1.82Y1.64
X1.855Y5.615
X1.87Y4.71
X1.91Y4.71
X1.92Y3.72
X1.925Y5.67
X1.94Y5.42
X2.0671Y4.7875
X2.0804Y3.78
X2.11Y4.35
X2.16Y4.4
X2.17Y5.47
X2.19Y4.63
X2.19Y2.97
X2.24Y4.55
X2.3488Y3.73
X2.37Y4.94
X2.41Y4.65
X2.4257Y5.4857
X2.47Y3.19
X2.49Y5.53
X2.62Y5.42
X2.66Y2.37
X3.27Y3.15
X3.3Y3.11
X3.33Y3.08
X3.36Y3.0436
X3.37Y1.57
X3.4Y3.15
X3.47Y3.0
X3.52Y2.46
X3.525Y6.18
X3.64Y5.53
X3.64Y5.4
X3.75Y5.49
X3.775Y6.14
X3.78Y6.03
X3.85Y4.6
X3.9841Y3.4553
X4.0Y3.41
X4.03Y3.37
X4.06Y5.7
X4.07Y3.34
X4.0764Y3.2214
X4.09Y3.16
X4.11Y3.31
X4.14Y3.28
X4.17Y3.25
X4.2098Y3.2198
X4.22Y5.4
X4.22Y5.1
X4.22Y4.85
X4.2214Y4.6104
X4.2214Y4.5129
X4.2452Y3.8232
X4.27Y2.97
X4.36Y1.51
X4.37Y2.46
X4.39Y5.83
X4.45Y4.7
X4.49Y5.3
X4.51Y4.21
X4.52Y4.5
X4.55Y5.67
X4.58Y1.745
X4.67Y5.87
X4.71Y4.35
X4.71Y3.0165
X4.72Y5.85
X4.74Y6.12
X4.74Y5.5
X4.76Y4.2
X4.77Y6.08
X4.8Y4.1
X4.81Y5.6
X4.81Y4.79
X4.81Y4.3
X4.83Y4.98
X4.85Y1.6625
X4.88Y6.43
X4.92Y4.9
X4.94Y5.04
X4.98Y4.76
X5.03Y4.94
X5.0622Y2.3931
X5.14Y4.34
X5.21Y4.24
X5.22Y5.4
X5.27Y5.1
X5.28Y4.93
X5.29Y4.81
X5.34Y5.59
X5.34Y5.41
X5.37Y4.4
X5.42Y4.785
X5.47Y5.1
X5.5139Y3.0544
X5.63Y6.24
X5.63Y1.04
X5.6791Y3.0365
X5.69Y3.65
X5.7Y6.2
X5.72Y4.27
X5.721Y4.149
X5.73Y4.69
X5.77Y4.32
X5.78Y5.3
X5.82Y5.2
X5.83Y4.8
X5.8884Y4.1847
X5.9032Y3.752
X5.91Y2.34
X5.92Y4.9
X5.99Y6.0
X6.0Y4.45
X6.0Y4.28
X6.03Y5.1
X6.03Y4.65
X6.04Y5.75
X6.04Y5.3
X6.09Y6.25
X6.09Y5.9
X6.09Y4.95
X6.12Y5.7
X6.12Y5.15
X6.16Y4.44
X6.16Y4.21
X6.4Y5.98
X6.43Y6.435
X6.55Y5.85
X6.58Y4.49
X6.58Y4.35
X6.59Y5.98
X6.72Y2.46
X6.8Y5.9
X6.8Y1.49
X6.86Y5.25
X6.87Y6.15
X6.89Y5.15
X6.9Y6.2
X6.91Y2.39
X7.18Y6.15
X7.2Y4.45
X7.22Y6.45
X7.22Y6.15
X7.23Y4.1764
X7.24Y5.84
X7.29Y5.81
X7.33Y5.75
X7.46Y6.42
X7.5215Y5.8442
X7.5314Y4.9531
X7.5454Y4.3036
X7.55Y6.1
X7.57Y6.42
X7.58Y4.45
X7.5875Y5.8081
X7.5886Y4.9992
X7.59Y4.57
X7.6187Y5.777
X7.6591Y3.3909
X7.6993Y3.3907
X7.7Y5.55
X7.7272Y3.3628
X7.73Y5.66
X7.7546Y3.3346
X7.76Y5.45
X7.791Y3.3196
X7.8103Y3.2853
X7.84Y5.35
X7.8408Y3.2604
X7.8692Y3.2331
X7.93Y2.37
X7.93Y2.14
X7.95Y5.05
X7.95Y4.45
X7.96Y5.38
X7.97Y5.14
X7.98Y6.09
X7.98Y6.02
X7.98Y5.95
X8.13Y5.75
X8.13Y4.28
X8.1514Y4.6048
X8.17Y5.65
X8.19Y5.05
X8.2Y5.55
X8.22Y5.1451
X8.23Y5.35
X8.23Y5.25
X8.23Y4.31
X8.24Y5.45
X8.24Y4.7
X8.26Y5.2
X8.3364Y4.0988
X8.39Y3.71
X8.4279Y3.2687
X8.4597Y3.2456
X8.46Y5.4
X8.47Y5.5
X8.49Y5.6
X8.5Y5.7
X8.501Y3.2496
X8.5079Y3.2109
X8.52Y5.8
X8.5388Y3.1832
X8.54Y5.9
X8.5653Y3.1541
X8.57Y6.0
X8.5728Y4.7996
X8.5808Y3.1179
X8.59Y6.1
X8.61Y6.2
X8.61Y4.75
X8.63Y6.3
X8.6324Y3.1101
X8.68Y4.44
X8.68Y4.35
X8.73Y4.56
X8.73Y4.4
X8.73Y2.97
X8.78Y3.3
X8.79Y4.56
X8.79Y4.4
X9.0074Y4.6509
X9.01Y4.55
X9.03Y4.15
X9.0605Y4.0925
X9.0735Y4.0165
X9.115Y4.72
X9.14Y4.58
X9.18Y4.645
X9.18Y4.3
X9.19Y4.5
X9.19Y4.14
X9.21Y6.1
X9.21Y6.0
X9.2261Y4.7161
X9.3Y4.65
X9.3Y4.5
X9.32Y3.18
X9.36Y3.28
X9.39Y3.25
X9.43Y2.37
X9.4347Y4.1334
X9.44Y6.25
X9.44Y5.2
X9.4602Y4.6702
X9.47Y6.15
X9.48Y5.3
X9.49Y6.25
X9.49Y4.59
X9.4982Y6.05
X9.5Y5.4
X9.52Y6.36
X9.5285Y5.5
X9.5325Y4.3364
X9.55Y5.11
X9.55Y4.82
X9.56Y6.39
X9.57Y5.6
X9.58Y5.8
X9.58Y5.7
X9.5982Y6.414
X9.6081Y3.8036
X9.63Y4.45
X9.67Y6.42
X9.67Y6.2
X9.67Y5.1415
X9.7086Y3.9822
X9.7098Y4.9902
X9.71Y6.1
X9.71Y5.05
X9.725Y3.95
X9.73Y6.24
X9.75Y6.0
X9.7699Y3.9556
X9.78Y4.84
X9.8Y6.25
X9.8Y3.93
X9.82Y2.16
X9.85Y4.7
X9.852Y6.3714
X9.855Y4.797
X9.86Y4.95
X9.86Y2.57
X9.87Y4.6
X9.94Y3.31
X9.96Y6.44
X10.025Y5.975
X10.05Y4.75
X10.14Y6.18
X10.175Y4.72
X10.18Y4.52
X10.225Y6.08
X10.26Y6.44
X10.27Y6.14
X10.27Y4.02
X10.28Y4.6
X10.33Y0.96
X10.38Y1.0
X10.55Y6.44
X10.55Y1.56
X10.6Y4.47
X10.61Y5.4142
X10.61Y1.34
X10.63Y5.5
X10.63Y4.45
X10.6331Y2.4696
X10.6369Y4.3591
X10.65Y5.6
X10.66Y5.69
X10.6648Y4.398
X10.67Y3.87
X10.68Y5.8
X10.6806Y4.3306
X10.69Y1.43
X10.7Y5.9
X10.72Y6.0
X10.72Y3.9
X10.74Y3.67
X10.7417Y2.2467
X10.75Y6.2
X10.76Y2.31
X10.776Y6.0982
X10.795Y3.665
X10.796Y5.9871
X10.813Y5.8847
X10.83Y5.7934
X10.8346Y2.8821
X10.85Y5.6974
X10.855Y5.085
X10.86Y2.57
X10.864Y5.5979
X10.87Y2.88
X10.871Y5.0
X10.885Y5.115
X10.8859Y5.4982
X10.895Y1.66
X10.9Y4.95
X10.93Y4.55
X10.93Y2.57
X10.96Y3.735
X10.96Y2.08
X10.965Y3.57
X10.99Y3.34
X11.02Y2.84
X11.065Y5.09
X11.09Y6.1
X11.09Y4.715
X11.095Y6.15
X11.095Y5.98
X11.095Y4.88
X11.1Y5.255
X11.1063Y6.3564
X11.13Y4.35
X11.13Y4.045
X11.13Y3.96
X11.15Y4.45
X11.165Y4.06
X11.17Y5.05
X11.1828Y6.3278
X11.19Y6.25
X11.2Y3.85
X11.21Y6.05
X11.495Y4.555
T3
X5.675Y6.325
X5.775Y6.225
X5.875Y6.325
X6.125Y6.325
X6.225Y6.225
X6.325Y6.325
T4
X0.24Y3.95
X0.36Y3.95
X0.5Y3.95
X6.68Y3.94
X10.49Y6.36
X10.49Y4.4
T5
X0.3Y5.4242
X0.3Y5.3258
X0.3Y5.0242
X0.3Y4.9258
X0.4503Y4.6075
X0.4503Y4.45
X0.4503Y4.2925
X0.495Y5.32
X0.495Y5.22
X0.495Y5.12
X0.495Y5.02
X0.795Y5.32
X0.795Y5.22
X0.795Y5.12
X0.795Y5.02
X1.05Y5.4144
X1.05Y5.3356
X1.45Y4.7
X1.45Y4.6
X1.45Y4.5
X1.45Y4.4
X1.45Y4.3
X1.45Y4.2
X1.45Y4.1
X1.4531Y5.62
X1.4531Y5.52
X1.4531Y5.42
X1.4531Y5.32
X1.4531Y5.22
X1.4531Y5.12
X1.4531Y5.02
X1.75Y4.7
X1.75Y4.6
X1.75Y4.5
X1.75Y4.4
X1.75Y4.3
X1.75Y4.2
X1.75Y4.1
X1.7531Y5.62
X1.7531Y5.52
X1.7531Y5.42
X1.7531Y5.32
X1.7531Y5.22
X1.7531Y5.12
X1.7531Y5.02
X2.0Y4.7
X2.0Y4.6
X2.0Y4.5
X2.0Y4.4
X2.0Y4.3
X2.0Y4.2
X2.0Y4.1
X2.01Y5.62
X2.01Y5.52
X2.01Y5.42
X2.01Y5.32
X2.01Y5.22
X2.01Y5.12
X2.01Y5.02
X2.3Y4.7
X2.3Y4.6
X2.3Y4.5
X2.3Y4.4
X2.3Y4.3
X2.3Y4.2
X2.3Y4.1
X2.31Y5.62
X2.31Y5.52
X2.31Y5.42
X2.31Y5.32
X2.31Y5.22
X2.31Y5.12
X2.31Y5.02
X2.52Y5.4
X2.52Y5.3
X2.52Y5.2
X2.52Y5.1
X2.52Y5.0
X2.52Y4.9
X2.52Y4.8
X2.52Y4.7
X2.52Y4.6
X2.52Y4.5
X2.52Y4.4
X2.52Y4.3
X2.52Y4.2
X2.52Y4.1
X2.615Y6.3092
X2.615Y6.2108
X3.12Y5.4
X3.12Y5.3
X3.12Y5.2
X3.12Y5.1
X3.12Y5.0
X3.12Y4.9
X3.12Y4.8
X3.12Y4.7
X3.12Y4.6
X3.12Y4.5
X3.12Y4.4
X3.12Y4.3
X3.12Y4.2
X3.12Y4.1
X3.42Y5.4
X3.42Y5.3
X3.42Y5.2
X3.42Y5.1
X3.42Y5.0
X3.42Y4.9
X3.42Y4.8
X3.42Y4.7
X3.42Y4.6
X3.42Y4.5
X3.42Y4.4
X3.42Y4.3
X3.42Y4.2
X3.42Y4.1
X3.62Y6.28
X3.62Y6.18
X3.62Y6.08
X3.62Y5.98
X3.625Y5.85
X3.625Y5.745
X3.92Y6.28
X3.92Y6.18
X3.92Y6.08
X3.92Y5.98
X3.925Y5.85
X3.925Y5.745
X4.02Y5.4
X4.02Y5.3
X4.02Y5.2
X4.02Y5.1
X4.02Y5.0
X4.02Y4.9
X4.02Y4.8
X4.02Y4.7
X4.02Y4.6
X4.02Y4.5
X4.02Y4.4
X4.02Y4.3
X4.02Y4.2
X4.02Y4.1
X4.335Y5.6
X4.335Y5.5
X4.335Y5.4
X4.335Y5.3
X4.335Y5.2
X4.335Y5.1
X4.335Y5.0
X4.335Y4.7
X4.335Y4.6
X4.335Y4.5
X4.335Y4.4
X4.335Y4.3
X4.335Y4.2
X4.335Y4.1
X4.635Y5.6
X4.635Y5.5
X4.635Y5.4
X4.635Y5.3
X4.635Y5.2
X4.635Y5.1
X4.635Y5.0
X4.635Y4.7
X4.635Y4.6
X4.635Y4.5
X4.635Y4.4
X4.635Y4.3
X4.635Y4.2
X4.635Y4.1
X5.035Y5.0421
X5.035Y4.85
X5.035Y4.3421
X5.035Y4.15
X5.64Y6.0
X5.64Y5.9
X5.64Y5.8
X5.64Y5.7
X5.64Y5.6
X5.64Y5.5
X5.64Y5.4
X5.64Y5.3
X5.64Y5.2
X5.64Y5.1
X5.64Y5.0
X5.64Y4.9
X5.64Y4.8
X5.64Y4.7
X5.64Y4.6
X5.64Y4.5
X5.64Y4.4
X5.64Y4.3
X5.64Y4.2
X5.64Y4.1
X6.24Y6.0
X6.24Y5.9
X6.24Y5.8
X6.24Y5.7
X6.24Y5.6
X6.24Y5.5
X6.24Y5.4
X6.24Y5.3
X6.24Y5.2
X6.24Y5.1
X6.24Y5.0
X6.24Y4.9
X6.24Y4.8
X6.24Y4.7
X6.24Y4.6
X6.24Y4.5
X6.24Y4.4
X6.24Y4.3
X6.24Y4.2
X6.24Y4.1
X6.48Y5.7
X6.48Y5.6
X6.48Y5.5
X6.48Y5.4
X6.48Y5.3
X6.48Y5.2
X6.48Y5.1
X6.48Y5.0
X6.48Y4.9
X6.48Y4.8
X6.48Y4.7
X6.48Y4.6
X6.48Y4.5
X6.48Y4.4
X6.95Y6.3
X6.95Y6.0
X7.05Y6.3
X7.05Y6.0
X7.08Y5.7
X7.08Y5.6
X7.08Y5.5
X7.08Y5.4
X7.08Y5.3
X7.08Y5.2
X7.08Y5.1
X7.08Y5.0
X7.08Y4.9
X7.08Y4.8
X7.08Y4.7
X7.08Y4.6
X7.08Y4.5
X7.08Y4.4
X7.15Y6.3
X7.15Y6.0
X7.25Y6.3
X7.25Y6.0
X7.35Y6.3
X7.35Y6.0
X7.45Y6.3
X7.45Y6.0
X7.45Y5.7
X7.45Y5.6
X7.45Y5.5
X7.45Y5.4
X7.45Y5.3
X7.45Y5.2
X7.45Y5.1
X7.45Y5.0
X7.45Y4.9
X7.45Y4.8
X7.45Y4.7
X7.45Y4.6
X7.45Y4.5
X7.45Y4.4
X7.55Y6.3
X7.55Y6.0
X7.65Y6.3
X7.65Y6.0
X7.75Y6.3
X7.75Y6.0
X7.85Y6.3
X7.85Y6.0
X8.05Y5.7
X8.05Y5.6
X8.05Y5.5
X8.05Y5.4
X8.05Y5.3
X8.05Y5.2
X8.05Y5.1
X8.05Y5.0
X8.05Y4.9
X8.05Y4.8
X8.05Y4.7
X8.05Y4.6
X8.05Y4.5
X8.05Y4.4
X8.08Y4.23
X8.08Y3.93
X8.18Y4.23
X8.18Y3.93
X8.28Y4.23
X8.28Y3.93
X8.36Y6.3
X8.36Y6.2
X8.36Y6.1
X8.36Y6.0
X8.36Y5.9
X8.36Y5.8
X8.36Y5.7
X8.36Y5.6
X8.36Y5.5
X8.36Y5.4
X8.36Y5.3
X8.36Y5.2
X8.36Y5.1
X8.36Y5.0
X8.36Y4.9
X8.36Y4.8
X8.36Y4.7
X8.36Y4.6
X8.36Y4.5
X8.36Y4.4
X8.38Y4.23
X8.38Y3.93
X8.48Y4.23
X8.48Y3.93
X8.58Y4.23
X8.58Y3.93
X8.68Y4.23
X8.68Y3.93
X8.78Y4.23
X8.78Y3.93
X8.88Y4.23
X8.88Y3.93
X8.96Y6.3
X8.96Y6.2
X8.96Y6.1
X8.96Y6.0
X8.96Y5.9
X8.96Y5.8
X8.96Y5.7
X8.96Y5.6
X8.96Y5.5
X8.96Y5.4
X8.96Y5.3
X8.96Y5.2
X8.96Y5.1
X8.96Y5.0
X8.96Y4.9
X8.96Y4.8
X8.96Y4.7
X8.96Y4.6
X8.96Y4.5
X8.96Y4.4
X8.98Y4.23
X8.98Y3.93
X9.37Y6.3
X9.37Y6.2
X9.37Y6.1
X9.37Y6.0
X9.37Y5.9
X9.37Y5.8
X9.37Y5.7
X9.37Y5.6
X9.37Y5.5
X9.37Y5.4
X9.37Y5.3
X9.37Y5.2
X9.37Y5.1
X9.37Y5.0
X9.37Y4.9
X9.37Y4.8
X9.37Y4.7
X9.37Y4.6
X9.37Y4.5
X9.37Y4.4
X9.5479Y4.08
X9.74Y4.08
X9.97Y6.3
X9.97Y6.2
X9.97Y6.1
X9.97Y6.0
X9.97Y5.9
X9.97Y5.8
X9.97Y5.7
X9.97Y5.6
X9.97Y5.5
X9.97Y5.4
X9.97Y5.3
X9.97Y5.2
X9.97Y5.1
X9.97Y5.0
X9.97Y4.9
X9.97Y4.8
X9.97Y4.7
X9.97Y4.6
X9.97Y4.5
X9.97Y4.4
X10.39Y6.3
X10.39Y6.2
X10.39Y6.1
X10.39Y6.0
X10.39Y5.9
X10.39Y5.8
X10.39Y5.7
X10.39Y5.6
X10.39Y5.5
X10.39Y5.4
X10.39Y5.3
X10.39Y5.2
X10.39Y5.1
X10.39Y5.0
X10.39Y4.9
X10.39Y4.8
X10.39Y4.7
X10.39Y4.6
X10.39Y4.5
X10.39Y4.4
X10.99Y6.3
X10.99Y6.2
X10.99Y6.1
X10.99Y6.0
X10.99Y5.9
X10.99Y5.8
X10.99Y5.7
X10.99Y5.6
X10.99Y5.5
X10.99Y5.4
X10.99Y5.3
X10.99Y5.2
X10.99Y5.1
X10.99Y5.0
X10.99Y4.9
X10.99Y4.8
X10.99Y4.7
X10.99Y4.6
X10.99Y4.5
X10.99Y4.4
T6
X0.54Y5.55
X0.74Y5.55
X0.775Y4.775
X0.775Y4.575
X0.9Y4.775
X0.9Y4.575
X1.445Y6.365
X1.45Y3.95
X1.5Y4.87
X1.645Y6.365
X1.65Y3.95
X1.7Y4.87
X2.0Y3.94
X2.06Y4.87
X2.2Y3.94
X2.26Y4.87
X2.36Y6.34
X2.36Y6.14
X2.52Y3.92
X2.72Y3.92
X3.62Y3.95
X3.82Y3.95
X4.035Y6.38
X4.035Y6.18
X4.035Y6.08
X4.035Y5.88
X4.335Y3.95
X4.39Y4.85
X4.535Y3.95
X4.59Y4.85
X4.96Y5.25
X4.96Y4.65
X4.96Y4.55
X4.96Y3.95
X5.16Y5.25
X5.16Y4.65
X5.16Y4.55
X5.16Y3.95
X5.46Y5.2
X5.46Y5.0
X5.64Y3.92
X5.84Y3.92
X6.68Y4.24
X6.8Y6.25
X6.8Y6.05
X6.88Y4.24
X7.65Y4.24
X7.85Y4.24
X9.1Y6.3
X9.1Y6.1
X9.13Y4.18
X9.13Y3.98
X9.35Y4.25
X9.35Y4.05
X9.565Y4.25
X9.765Y4.25
X9.95Y4.22
X9.95Y4.02
X10.225Y5.1
X10.225Y4.9
X10.39Y4.24
X10.59Y4.24
T7
X5.48Y5.995
X5.48Y5.895
X5.48Y5.795
T8
X4.8Y6.28
X4.9Y6.28
X11.12Y1.23
X11.22Y1.23
T9
X2.01Y6.38
X2.1872Y6.38
T10
X0.175Y5.75
X0.175Y5.65
X1.21Y5.12
X1.21Y5.02
X1.21Y4.92
X3.12Y5.61
X3.22Y5.61
X3.32Y5.61
X5.46Y5.53
X5.46Y5.43
X5.46Y5.33
X5.475Y4.3
X5.475Y4.2
X5.475Y4.1
X9.1Y5.3
X9.1Y5.2
X9.1Y5.1
X10.07Y4.11
X10.1Y5.9
X10.1Y5.8
X10.1Y5.7
X10.1Y5.6
X10.1Y5.5
X10.1Y5.4
X10.1Y5.3
X10.1Y5.2
X10.1Y5.1
X10.17Y4.11
X10.27Y4.11
X11.275Y5.8
X11.275Y5.7
X11.275Y5.6
X11.275Y5.5
X11.275Y5.4
X11.275Y5.3
X11.275Y5.2
X11.275Y5.1
X11.275Y5.0
X11.275Y4.9
X11.275Y4.8
X11.275Y4.7
X11.275Y4.6
X11.275Y4.5
X11.275Y4.4
X11.275Y4.3
X11.275Y4.2
X11.275Y4.1
X11.275Y4.0
X11.275Y3.9
X11.375Y5.8
X11.375Y5.7
X11.375Y5.6
X11.375Y5.5
X11.375Y5.4
X11.375Y5.3
X11.375Y5.2
X11.375Y5.1
X11.375Y5.0
X11.375Y4.9
X11.375Y4.8
X11.375Y4.7
X11.375Y4.6
X11.375Y4.5
X11.375Y4.4
X11.375Y4.3
X11.375Y4.2
X11.375Y4.1
X11.375Y4.0
X11.375Y3.9
T11
X0.34Y5.675
X0.84Y5.675
X1.13Y4.69
X1.13Y4.19
X1.23Y4.695
X1.23Y4.195
X1.305Y6.255
X1.305Y6.155
X1.305Y5.98
X1.305Y5.88
X1.305Y5.78
X1.33Y4.695
X1.33Y4.195
X1.34Y5.52
X1.34Y5.02
X1.805Y6.255
X1.805Y6.155
X1.805Y5.98
X1.805Y5.88
X1.805Y5.78
X1.88Y4.9
X1.88Y4.4
X1.94Y6.02
X1.94Y5.92
X1.94Y5.82
X2.44Y6.02
X2.44Y5.92
X2.44Y5.82
X2.475Y5.65
X2.975Y5.65
X3.255Y6.365
X3.255Y5.865
X3.355Y6.365
X3.355Y5.865
X3.455Y6.365
X3.455Y5.865
X3.625Y5.625
X4.125Y5.625
X4.14Y6.38
X4.14Y5.88
X4.24Y6.38
X4.24Y5.88
X4.76Y5.2
X4.76Y4.7
X4.76Y4.5
X4.76Y4.0
X4.86Y5.2
X4.86Y4.7
X4.86Y4.5
X4.86Y4.0
X4.865Y5.995
X4.865Y5.895
X4.865Y5.795
X5.365Y5.995
X5.365Y5.895
X5.365Y5.795
X7.31Y5.1
X7.31Y4.6
X9.1Y6.0
X9.1Y5.5
X9.14Y4.9
X9.14Y4.4
X9.24Y4.9
X9.24Y4.4
X9.4Y3.93
X9.9Y3.93
X10.125Y4.8
X10.125Y4.3
X10.225Y5.7
X10.225Y5.2
X10.225Y4.8
X10.225Y4.3
X10.45Y4.09
X10.45Y3.99
X10.95Y4.09
X10.95Y3.99
X11.095Y5.5
X11.095Y5.0
T12
X0.05Y4.6469
X0.05Y4.2531
X5.2716Y4.55
X5.4684Y4.55
T13
X1.9608Y6.282
X2.2368Y6.282
T14
X0.32Y2.07
X0.5Y1.32
X0.505Y3.57
X0.57Y2.17
X0.75Y1.42
X0.755Y3.67
X0.875Y2.82
X1.07Y2.07
X1.125Y2.92
X1.255Y3.57
X1.32Y2.17
X1.3475Y1.32
X1.505Y3.67
X1.5975Y1.42
X1.625Y2.82
X1.82Y2.07
X1.875Y2.92
X2.005Y3.57
X2.07Y2.17
X2.1925Y1.32
X2.255Y3.67
X2.375Y2.82
X2.4425Y1.42
X2.57Y2.07
X2.625Y2.92
X2.755Y3.57
X2.82Y2.17
X2.9425Y1.32
X3.005Y3.67
X3.125Y2.82
X3.1925Y1.42
X3.32Y2.07
X3.375Y2.92
X3.505Y3.57
X3.57Y2.17
X3.6925Y1.32
X3.755Y3.67
X3.875Y2.82
X3.9425Y1.42
X4.07Y2.07
X4.125Y2.92
X4.255Y3.57
X4.32Y2.17
X4.4425Y1.32
X4.505Y3.67
X4.625Y2.82
X4.6925Y1.42
X4.82Y2.07
X4.875Y2.92
X5.005Y3.57
X5.07Y2.17
X5.1925Y1.32
X5.255Y3.67
X5.375Y2.82
X5.3825Y0.57
X5.4425Y1.42
X5.57Y2.07
X5.625Y2.92
X5.6325Y0.67
X5.755Y3.57
X5.82Y2.17
X5.9425Y1.32
X6.005Y3.67
X6.125Y2.82
X6.1925Y1.42
X6.32Y2.07
X6.375Y2.92
X6.505Y3.57
X6.57Y2.17
X6.6925Y1.32
X6.755Y3.67
X6.875Y2.82
X6.9425Y1.42
X7.07Y2.07
X7.125Y2.92
X7.255Y3.57
X7.32Y2.17
X7.4425Y1.32
X7.505Y3.67
X7.625Y2.82
X7.6925Y1.42
X7.82Y2.07
X7.875Y2.92
X8.005Y3.57
X8.07Y2.17
X8.1925Y1.32
X8.255Y3.67
X8.375Y2.82
X8.4425Y1.42
X8.57Y2.07
X8.625Y2.92
X8.755Y3.57
X8.82Y2.17
X8.9425Y1.32
X8.9425Y0.57
X9.005Y3.67
X9.125Y2.82
X9.1925Y1.42
X9.1925Y0.67
X9.32Y2.07
X9.375Y2.92
X9.505Y3.57
X9.57Y2.17
X9.6925Y1.32
X9.6925Y0.57
X9.755Y3.67
X9.9425Y1.42
X9.9425Y0.67
X10.065Y2.82
X10.07Y2.07
X10.255Y3.57
X10.315Y2.92
X10.32Y2.17
X10.4425Y0.57
X10.505Y3.67
X10.6925Y0.67
T16
X2.965Y6.405
X2.965Y6.1648
X2.965Y5.9483
X3.0437Y6.3105
X3.0437Y6.094
X4.5046Y6.405
X4.5046Y6.1648
X4.5046Y5.9483
X4.5833Y6.3105
X4.5833Y6.094
T17
X0.95Y6.38
X1.05Y5.88
X1.05Y5.73
X1.05Y5.58
X1.15Y6.38
T18
X3.5625Y0.745
X3.9525Y0.745
X7.1125Y0.745
X7.5025Y0.745
T19
X3.5625Y0.145
X3.9525Y0.145
X7.1125Y0.145
X7.5025Y0.145
T2
G00X5.3077Y6.2179
M15
G01X5.2723Y6.2179
M16
G05
T10
G00X0.315Y6.0294
M15
G01X0.315Y6.1081
M16
G05
G00X0.4606Y6.1869
M15
G01X0.5394Y6.1869
M16
G05
G00X0.4508Y5.9506
M15
G01X0.5492Y5.9506
M16
G05
T15
G00X5.0656Y6.1943
M15
G01X5.0656Y6.2415
M16
G05
G00X5.3136Y6.4069
M15
G01X5.2664Y6.4069
M16
G05
G00X5.5144Y6.2415
M15
G01X5.5144Y6.1943
M16
G05
T0
M30
