M48
; DRILL file {KiCad (5.1.9)-1} date 01/18/26 09:55:15
; FORMAT={-:-/ absolute / inch / decimal}
; #@! TF.CreationDate,2026-01-18T09:55:15+01:00
; #@! TF.GenerationSoftware,Kicad,Pcbnew,(5.1.9)-1
; #@! TF.FileFunction,NonPlated,1,2,NPTH
FMAT,2
INCH
T1C0.0670
T2C0.1260
T3C0.1570
%
G90
G05
T1
X0.27Y1.97
X0.45Y1.22
X0.455Y3.47
X0.67Y1.97
X0.825Y2.72
X0.85Y1.22
X0.855Y3.47
X1.02Y1.97
X1.205Y3.47
X1.225Y2.72
X1.2975Y1.22
X1.42Y1.97
X1.575Y2.72
X1.605Y3.47
X1.6975Y1.22
X1.77Y1.97
X1.955Y3.47
X1.975Y2.72
X2.1425Y1.22
X2.17Y1.97
X2.325Y2.72
X2.355Y3.47
X2.52Y1.97
X2.5425Y1.22
X2.705Y3.47
X2.725Y2.72
X2.8925Y1.22
X2.92Y1.97
X3.075Y2.72
X3.105Y3.47
X3.27Y1.97
X3.2925Y1.22
X3.455Y3.47
X3.475Y2.72
X3.6425Y1.22
X3.67Y1.97
X3.825Y2.72
X3.855Y3.47
X4.02Y1.97
X4.0425Y1.22
X4.205Y3.47
X4.225Y2.72
X4.3925Y1.22
X4.42Y1.97
X4.575Y2.72
X4.605Y3.47
X4.77Y1.97
X4.7925Y1.22
X4.955Y3.47
X4.975Y2.72
X5.1425Y1.22
X5.17Y1.97
X5.325Y2.72
X5.3325Y0.47
X5.355Y3.47
X5.52Y1.97
X5.5425Y1.22
X5.705Y3.47
X5.725Y2.72
X5.7325Y0.47
X5.8925Y1.22
X5.92Y1.97
X6.075Y2.72
X6.105Y3.47
X6.27Y1.97
X6.2925Y1.22
X6.455Y3.47
X6.475Y2.72
X6.6425Y1.22
X6.67Y1.97
X6.825Y2.72
X6.855Y3.47
X7.02Y1.97
X7.0425Y1.22
X7.205Y3.47
X7.225Y2.72
X7.3925Y1.22
X7.42Y1.97
X7.575Y2.72
X7.605Y3.47
X7.77Y1.97
X7.7925Y1.22
X7.955Y3.47
X7.975Y2.72
X8.1425Y1.22
X8.17Y1.97
X8.325Y2.72
X8.355Y3.47
X8.52Y1.97
X8.5425Y1.22
X8.705Y3.47
X8.725Y2.72
X8.8925Y1.22
X8.8925Y0.47
X8.92Y1.97
X9.075Y2.72
X9.105Y3.47
X9.27Y1.97
X9.2925Y1.22
X9.2925Y0.47
X9.455Y3.47
X9.475Y2.72
X9.6425Y1.22
X9.6425Y0.47
X9.67Y1.97
X9.855Y3.47
X10.015Y2.72
X10.02Y1.97
X10.0425Y1.22
X10.0425Y0.47
X10.205Y3.47
X10.3925Y0.47
X10.415Y2.72
X10.42Y1.97
X10.605Y3.47
X10.7925Y0.47
T2
X0.15Y6.3
X0.15Y0.2
X6.57Y6.3
X11.45Y6.3
X11.45Y0.2
T3
X0.47Y1.97
X0.65Y1.22
X0.655Y3.47
X1.025Y2.72
X1.22Y1.97
X1.405Y3.47
X1.4975Y1.22
X1.775Y2.72
X1.97Y1.97
X2.155Y3.47
X2.3425Y1.22
X2.525Y2.72
X2.72Y1.97
X2.905Y3.47
X3.0925Y1.22
X3.275Y2.72
X3.47Y1.97
X3.655Y3.47
X3.8425Y1.22
X4.025Y2.72
X4.22Y1.97
X4.405Y3.47
X4.5925Y1.22
X4.775Y2.72
X4.97Y1.97
X5.155Y3.47
X5.3425Y1.22
X5.525Y2.72
X5.5325Y0.47
X5.72Y1.97
X5.905Y3.47
X6.0925Y1.22
X6.275Y2.72
X6.47Y1.97
X6.655Y3.47
X6.8425Y1.22
X7.025Y2.72
X7.22Y1.97
X7.405Y3.47
X7.5925Y1.22
X7.775Y2.72
X7.97Y1.97
X8.155Y3.47
X8.3425Y1.22
X8.525Y2.72
X8.72Y1.97
X8.905Y3.47
X9.0925Y1.22
X9.0925Y0.47
X9.275Y2.72
X9.47Y1.97
X9.655Y3.47
X9.8425Y1.22
X9.8425Y0.47
X10.215Y2.72
X10.22Y1.97
X10.405Y3.47
X10.5925Y0.47
T0
M30
