G04 #@! TF.GenerationSoftware,KiCad,Pcbnew,(5.1.9)-1*
G04 #@! TF.CreationDate,2026-01-18T09:55:11+01:00*
G04 #@! TF.ProjectId,COMIX-35,434f4d49-582d-4333-952e-6b696361645f,1.2a*
G04 #@! TF.SameCoordinates,PX2b9a1c0PYd52a500*
G04 #@! TF.FileFunction,Legend,Bot*
G04 #@! TF.FilePolarity,Positive*
%FSLAX46Y46*%
G04 Gerber Fmt 4.6, Leading zero omitted, Abs format (unit mm)*
G04 Created by KiCad (PCBNEW (5.1.9)-1) date 2026-01-18 09:55:11*
%MOMM*%
%LPD*%
G01*
G04 APERTURE LIST*
%ADD10C,0.152400*%
G04 APERTURE END LIST*
D10*
X284774035Y108760381D02*
X284774035Y109776381D01*
X284435368Y109050667D01*
X284096701Y109776381D01*
X284096701Y108760381D01*
X283661273Y109050667D02*
X283177463Y109050667D01*
X283758035Y108760381D02*
X283419368Y109776381D01*
X283080701Y108760381D01*
X282838797Y109776381D02*
X282161463Y109776381D01*
X282596892Y108760381D01*
X277495000Y25400000D02*
X292227000Y25400000D01*
X288671000Y25400000D02*
X288671000Y15240000D01*
X277495000Y17272000D02*
X292227000Y17272000D01*
X277495000Y15240000D02*
X292227000Y15240000D01*
X290900273Y17970500D02*
X290942606Y17928167D01*
X291069606Y17885834D01*
X291154273Y17885834D01*
X291281273Y17928167D01*
X291365940Y18012834D01*
X291408273Y18097500D01*
X291450606Y18266834D01*
X291450606Y18393834D01*
X291408273Y18563167D01*
X291365940Y18647834D01*
X291281273Y18732500D01*
X291154273Y18774834D01*
X291069606Y18774834D01*
X290942606Y18732500D01*
X290900273Y18690167D01*
X290519273Y17885834D02*
X290519273Y18774834D01*
X290519273Y18351500D02*
X290011273Y18351500D01*
X290011273Y17885834D02*
X290011273Y18774834D01*
X289079940Y17885834D02*
X289376273Y18309167D01*
X289587940Y17885834D02*
X289587940Y18774834D01*
X289249273Y18774834D01*
X289164606Y18732500D01*
X289122273Y18690167D01*
X289079940Y18605500D01*
X289079940Y18478500D01*
X289122273Y18393834D01*
X289164606Y18351500D01*
X289249273Y18309167D01*
X289587940Y18309167D01*
X287471273Y18774834D02*
X287640606Y18774834D01*
X287725273Y18732500D01*
X287767606Y18690167D01*
X287852273Y18563167D01*
X287894606Y18393834D01*
X287894606Y18055167D01*
X287852273Y17970500D01*
X287809940Y17928167D01*
X287725273Y17885834D01*
X287555940Y17885834D01*
X287471273Y17928167D01*
X287428940Y17970500D01*
X287386606Y18055167D01*
X287386606Y18266834D01*
X287428940Y18351500D01*
X287471273Y18393834D01*
X287555940Y18436167D01*
X287725273Y18436167D01*
X287809940Y18393834D01*
X287852273Y18351500D01*
X287894606Y18266834D01*
X287090273Y18774834D02*
X286497606Y17885834D01*
X286497606Y18774834D02*
X287090273Y17885834D01*
X286116606Y17885834D02*
X285947273Y17885834D01*
X285862606Y17928167D01*
X285820273Y17970500D01*
X285735606Y18097500D01*
X285693273Y18266834D01*
X285693273Y18605500D01*
X285735606Y18690167D01*
X285777940Y18732500D01*
X285862606Y18774834D01*
X286031940Y18774834D01*
X286116606Y18732500D01*
X286158940Y18690167D01*
X286201273Y18605500D01*
X286201273Y18393834D01*
X286158940Y18309167D01*
X286116606Y18266834D01*
X286031940Y18224500D01*
X285862606Y18224500D01*
X285777940Y18266834D01*
X285735606Y18309167D01*
X285693273Y18393834D01*
X285312273Y18224500D02*
X284634940Y18224500D01*
X284973606Y17885834D02*
X284973606Y18563167D01*
X281883273Y18774834D02*
X282052606Y18774834D01*
X282137273Y18732500D01*
X282179606Y18690167D01*
X282264273Y18563167D01*
X282306606Y18393834D01*
X282306606Y18055167D01*
X282264273Y17970500D01*
X282221940Y17928167D01*
X282137273Y17885834D01*
X281967940Y17885834D01*
X281883273Y17928167D01*
X281840940Y17970500D01*
X281798606Y18055167D01*
X281798606Y18266834D01*
X281840940Y18351500D01*
X281883273Y18393834D01*
X281967940Y18436167D01*
X282137273Y18436167D01*
X282221940Y18393834D01*
X282264273Y18351500D01*
X282306606Y18266834D01*
X281502273Y18774834D02*
X280909606Y17885834D01*
X280909606Y18774834D02*
X281502273Y17885834D01*
X280443940Y18393834D02*
X280528606Y18436167D01*
X280570940Y18478500D01*
X280613273Y18563167D01*
X280613273Y18605500D01*
X280570940Y18690167D01*
X280528606Y18732500D01*
X280443940Y18774834D01*
X280274606Y18774834D01*
X280189940Y18732500D01*
X280147606Y18690167D01*
X280105273Y18605500D01*
X280105273Y18563167D01*
X280147606Y18478500D01*
X280189940Y18436167D01*
X280274606Y18393834D01*
X280443940Y18393834D01*
X280528606Y18351500D01*
X280570940Y18309167D01*
X280613273Y18224500D01*
X280613273Y18055167D01*
X280570940Y17970500D01*
X280528606Y17928167D01*
X280443940Y17885834D01*
X280274606Y17885834D01*
X280189940Y17928167D01*
X280147606Y17970500D01*
X280105273Y18055167D01*
X280105273Y18224500D01*
X280147606Y18309167D01*
X280189940Y18351500D01*
X280274606Y18393834D01*
X281798606Y15853834D02*
X282306606Y15853834D01*
X282052606Y15853834D02*
X282052606Y16742834D01*
X282137273Y16615834D01*
X282221940Y16531167D01*
X282306606Y16488834D01*
X281375273Y15853834D02*
X281205940Y15853834D01*
X281121273Y15896167D01*
X281078940Y15938500D01*
X280994273Y16065500D01*
X280951940Y16234834D01*
X280951940Y16573500D01*
X280994273Y16658167D01*
X281036606Y16700500D01*
X281121273Y16742834D01*
X281290606Y16742834D01*
X281375273Y16700500D01*
X281417606Y16658167D01*
X281459940Y16573500D01*
X281459940Y16361834D01*
X281417606Y16277167D01*
X281375273Y16234834D01*
X281290606Y16192500D01*
X281121273Y16192500D01*
X281036606Y16234834D01*
X280994273Y16277167D01*
X280951940Y16361834D01*
X280613273Y16658167D02*
X280570940Y16700500D01*
X280486273Y16742834D01*
X280274606Y16742834D01*
X280189940Y16700500D01*
X280147606Y16658167D01*
X280105273Y16573500D01*
X280105273Y16488834D01*
X280147606Y16361834D01*
X280655606Y15853834D01*
X280105273Y15853834D01*
X279554940Y16742834D02*
X279470273Y16742834D01*
X279385606Y16700500D01*
X279343273Y16658167D01*
X279300940Y16573500D01*
X279258606Y16404167D01*
X279258606Y16192500D01*
X279300940Y16023167D01*
X279343273Y15938500D01*
X279385606Y15896167D01*
X279470273Y15853834D01*
X279554940Y15853834D01*
X279639606Y15896167D01*
X279681940Y15938500D01*
X279724273Y16023167D01*
X279766606Y16192500D01*
X279766606Y16404167D01*
X279724273Y16573500D01*
X279681940Y16658167D01*
X279639606Y16700500D01*
X279554940Y16742834D01*
X287809940Y15853834D02*
X287640606Y15853834D01*
X287555940Y15896167D01*
X287513606Y15938500D01*
X287428940Y16065500D01*
X287386606Y16234834D01*
X287386606Y16573500D01*
X287428940Y16658167D01*
X287471273Y16700500D01*
X287555940Y16742834D01*
X287725273Y16742834D01*
X287809940Y16700500D01*
X287852273Y16658167D01*
X287894606Y16573500D01*
X287894606Y16361834D01*
X287852273Y16277167D01*
X287809940Y16234834D01*
X287725273Y16192500D01*
X287555940Y16192500D01*
X287471273Y16234834D01*
X287428940Y16277167D01*
X287386606Y16361834D01*
X286624606Y16742834D02*
X286793940Y16742834D01*
X286878606Y16700500D01*
X286920940Y16658167D01*
X287005606Y16531167D01*
X287047940Y16361834D01*
X287047940Y16023167D01*
X287005606Y15938500D01*
X286963273Y15896167D01*
X286878606Y15853834D01*
X286709273Y15853834D01*
X286624606Y15896167D01*
X286582273Y15938500D01*
X286539940Y16023167D01*
X286539940Y16234834D01*
X286582273Y16319500D01*
X286624606Y16361834D01*
X286709273Y16404167D01*
X286878606Y16404167D01*
X286963273Y16361834D01*
X287005606Y16319500D01*
X287047940Y16234834D01*
X285989606Y16742834D02*
X285904940Y16742834D01*
X285820273Y16700500D01*
X285777940Y16658167D01*
X285735606Y16573500D01*
X285693273Y16404167D01*
X285693273Y16192500D01*
X285735606Y16023167D01*
X285777940Y15938500D01*
X285820273Y15896167D01*
X285904940Y15853834D01*
X285989606Y15853834D01*
X286074273Y15896167D01*
X286116606Y15938500D01*
X286158940Y16023167D01*
X286201273Y16192500D01*
X286201273Y16404167D01*
X286158940Y16573500D01*
X286116606Y16658167D01*
X286074273Y16700500D01*
X285989606Y16742834D01*
X291408273Y15853834D02*
X291408273Y16742834D01*
X291069606Y16742834D01*
X290984940Y16700500D01*
X290942606Y16658167D01*
X290900273Y16573500D01*
X290900273Y16446500D01*
X290942606Y16361834D01*
X290984940Y16319500D01*
X291069606Y16277167D01*
X291408273Y16277167D01*
X290053606Y16700500D02*
X290138273Y16742834D01*
X290265273Y16742834D01*
X290392273Y16700500D01*
X290476940Y16615834D01*
X290519273Y16531167D01*
X290561606Y16361834D01*
X290561606Y16234834D01*
X290519273Y16065500D01*
X290476940Y15980834D01*
X290392273Y15896167D01*
X290265273Y15853834D01*
X290180606Y15853834D01*
X290053606Y15896167D01*
X290011273Y15938500D01*
X290011273Y16234834D01*
X290180606Y16234834D01*
X277495000Y19304000D02*
X292227000Y19304000D01*
X277495000Y25400000D02*
X277495000Y15240000D01*
X292227000Y15240000D02*
X292227000Y25400000D01*
X277495000Y21336000D02*
X292227000Y21336000D01*
X277495000Y23368000D02*
X292227000Y23368000D01*
X283083000Y23368000D02*
X283083000Y15240000D01*
X291408273Y13125450D02*
X291450606Y13083117D01*
X291577606Y13040784D01*
X291662273Y13040784D01*
X291789273Y13083117D01*
X291873940Y13167784D01*
X291916273Y13252450D01*
X291958606Y13421784D01*
X291958606Y13548784D01*
X291916273Y13718117D01*
X291873940Y13802784D01*
X291789273Y13887450D01*
X291662273Y13929784D01*
X291577606Y13929784D01*
X291450606Y13887450D01*
X291408273Y13845117D01*
X290857940Y13929784D02*
X290688606Y13929784D01*
X290603940Y13887450D01*
X290519273Y13802784D01*
X290476940Y13633450D01*
X290476940Y13337117D01*
X290519273Y13167784D01*
X290603940Y13083117D01*
X290688606Y13040784D01*
X290857940Y13040784D01*
X290942606Y13083117D01*
X291027273Y13167784D01*
X291069606Y13337117D01*
X291069606Y13633450D01*
X291027273Y13802784D01*
X290942606Y13887450D01*
X290857940Y13929784D01*
X290095940Y13040784D02*
X290095940Y13929784D01*
X289799606Y13294784D01*
X289503273Y13929784D01*
X289503273Y13040784D01*
X289164606Y13929784D02*
X288571940Y13040784D01*
X288571940Y13929784D02*
X289164606Y13040784D01*
X288233273Y13379450D02*
X287555940Y13379450D01*
X287217273Y13929784D02*
X286666940Y13929784D01*
X286963273Y13591117D01*
X286836273Y13591117D01*
X286751606Y13548784D01*
X286709273Y13506450D01*
X286666940Y13421784D01*
X286666940Y13210117D01*
X286709273Y13125450D01*
X286751606Y13083117D01*
X286836273Y13040784D01*
X287090273Y13040784D01*
X287174940Y13083117D01*
X287217273Y13125450D01*
X285862606Y13929784D02*
X286285940Y13929784D01*
X286328273Y13506450D01*
X286285940Y13548784D01*
X286201273Y13591117D01*
X285989606Y13591117D01*
X285904940Y13548784D01*
X285862606Y13506450D01*
X285820273Y13421784D01*
X285820273Y13210117D01*
X285862606Y13125450D01*
X285904940Y13083117D01*
X285989606Y13040784D01*
X286201273Y13040784D01*
X286285940Y13083117D01*
X286328273Y13125450D01*
X284761940Y13040784D02*
X284761940Y13929784D01*
X284550273Y13929784D01*
X284423273Y13887450D01*
X284338606Y13802784D01*
X284296273Y13718117D01*
X284253940Y13548784D01*
X284253940Y13421784D01*
X284296273Y13252450D01*
X284338606Y13167784D01*
X284423273Y13083117D01*
X284550273Y13040784D01*
X284761940Y13040784D01*
X283872940Y13506450D02*
X283576606Y13506450D01*
X283449606Y13040784D02*
X283872940Y13040784D01*
X283872940Y13929784D01*
X283449606Y13929784D01*
X282772273Y13506450D02*
X283068606Y13506450D01*
X283068606Y13040784D02*
X283068606Y13929784D01*
X282645273Y13929784D01*
X282348940Y13294784D02*
X281925606Y13294784D01*
X282433606Y13040784D02*
X282137273Y13929784D01*
X281840940Y13040784D01*
X281544606Y13929784D02*
X281544606Y13210117D01*
X281502273Y13125450D01*
X281459940Y13083117D01*
X281375273Y13040784D01*
X281205940Y13040784D01*
X281121273Y13083117D01*
X281078940Y13125450D01*
X281036606Y13210117D01*
X281036606Y13929784D01*
X280189940Y13040784D02*
X280613273Y13040784D01*
X280613273Y13929784D01*
X280020606Y13929784D02*
X279512606Y13929784D01*
X279766606Y13040784D02*
X279766606Y13929784D01*
X279258606Y13083117D02*
X279131606Y13040784D01*
X278919940Y13040784D01*
X278835273Y13083117D01*
X278792940Y13125450D01*
X278750606Y13210117D01*
X278750606Y13294784D01*
X278792940Y13379450D01*
X278835273Y13421784D01*
X278919940Y13464117D01*
X279089273Y13506450D01*
X279173940Y13548784D01*
X279216273Y13591117D01*
X279258606Y13675784D01*
X279258606Y13760450D01*
X279216273Y13845117D01*
X279173940Y13887450D01*
X279089273Y13929784D01*
X278877606Y13929784D01*
X278750606Y13887450D01*
X277819273Y13929784D02*
X277311273Y13929784D01*
X277565273Y13040784D02*
X277565273Y13929784D01*
X276845606Y13929784D02*
X276676273Y13929784D01*
X276591606Y13887450D01*
X276506940Y13802784D01*
X276464606Y13633450D01*
X276464606Y13337117D01*
X276506940Y13167784D01*
X276591606Y13083117D01*
X276676273Y13040784D01*
X276845606Y13040784D01*
X276930273Y13083117D01*
X277014940Y13167784D01*
X277057273Y13337117D01*
X277057273Y13633450D01*
X277014940Y13802784D01*
X276930273Y13887450D01*
X276845606Y13929784D01*
X291450606Y11554884D02*
X291958606Y11554884D01*
X291704606Y11554884D02*
X291704606Y12443884D01*
X291789273Y12316884D01*
X291873940Y12232217D01*
X291958606Y12189884D01*
X291069606Y11893550D02*
X290392273Y11893550D01*
X290011273Y12359217D02*
X289968940Y12401550D01*
X289884273Y12443884D01*
X289672606Y12443884D01*
X289587940Y12401550D01*
X289545606Y12359217D01*
X289503273Y12274550D01*
X289503273Y12189884D01*
X289545606Y12062884D01*
X290053606Y11554884D01*
X289503273Y11554884D01*
X288190940Y11216217D02*
X288233273Y11258550D01*
X288317940Y11385550D01*
X288360273Y11470217D01*
X288402606Y11597217D01*
X288444940Y11808884D01*
X288444940Y11978217D01*
X288402606Y12189884D01*
X288360273Y12316884D01*
X288317940Y12401550D01*
X288233273Y12528550D01*
X288190940Y12570884D01*
X287344273Y11554884D02*
X287640606Y11978217D01*
X287852273Y11554884D02*
X287852273Y12443884D01*
X287513606Y12443884D01*
X287428940Y12401550D01*
X287386606Y12359217D01*
X287344273Y12274550D01*
X287344273Y12147550D01*
X287386606Y12062884D01*
X287428940Y12020550D01*
X287513606Y11978217D01*
X287852273Y11978217D01*
X286963273Y12020550D02*
X286666940Y12020550D01*
X286539940Y11554884D02*
X286963273Y11554884D01*
X286963273Y12443884D01*
X286539940Y12443884D01*
X285566273Y11470217D02*
X285650940Y11512550D01*
X285735606Y11597217D01*
X285862606Y11724217D01*
X285947273Y11766550D01*
X286031940Y11766550D01*
X285989606Y11554884D02*
X286074273Y11597217D01*
X286158940Y11681884D01*
X286201273Y11851217D01*
X286201273Y12147550D01*
X286158940Y12316884D01*
X286074273Y12401550D01*
X285989606Y12443884D01*
X285820273Y12443884D01*
X285735606Y12401550D01*
X285650940Y12316884D01*
X285608606Y12147550D01*
X285608606Y11851217D01*
X285650940Y11681884D01*
X285735606Y11597217D01*
X285820273Y11554884D01*
X285989606Y11554884D01*
X285185273Y12443884D02*
X285269940Y12274550D01*
X284804273Y11554884D02*
X284804273Y12443884D01*
X284592606Y12443884D01*
X284465606Y12401550D01*
X284380940Y12316884D01*
X284338606Y12232217D01*
X284296273Y12062884D01*
X284296273Y11935884D01*
X284338606Y11766550D01*
X284380940Y11681884D01*
X284465606Y11597217D01*
X284592606Y11554884D01*
X284804273Y11554884D01*
X282941606Y12020550D02*
X283237940Y12020550D01*
X283237940Y11554884D02*
X283237940Y12443884D01*
X282814606Y12443884D01*
X282306606Y12443884D02*
X282137273Y12443884D01*
X282052606Y12401550D01*
X281967940Y12316884D01*
X281925606Y12147550D01*
X281925606Y11851217D01*
X281967940Y11681884D01*
X282052606Y11597217D01*
X282137273Y11554884D01*
X282306606Y11554884D01*
X282391273Y11597217D01*
X282475940Y11681884D01*
X282518273Y11851217D01*
X282518273Y12147550D01*
X282475940Y12316884D01*
X282391273Y12401550D01*
X282306606Y12443884D01*
X281036606Y11554884D02*
X281332940Y11978217D01*
X281544606Y11554884D02*
X281544606Y12443884D01*
X281205940Y12443884D01*
X281121273Y12401550D01*
X281078940Y12359217D01*
X281036606Y12274550D01*
X281036606Y12147550D01*
X281078940Y12062884D01*
X281121273Y12020550D01*
X281205940Y11978217D01*
X281544606Y11978217D01*
X279978273Y11554884D02*
X279978273Y12443884D01*
X279639606Y12443884D01*
X279554940Y12401550D01*
X279512606Y12359217D01*
X279470273Y12274550D01*
X279470273Y12147550D01*
X279512606Y12062884D01*
X279554940Y12020550D01*
X279639606Y11978217D01*
X279978273Y11978217D01*
X279131606Y11808884D02*
X278708273Y11808884D01*
X279216273Y11554884D02*
X278919940Y12443884D01*
X278623606Y11554884D01*
X277903940Y11554884D02*
X278327273Y11554884D01*
X278327273Y12443884D01*
X277692273Y11216217D02*
X277649940Y11258550D01*
X277565273Y11385550D01*
X277522940Y11470217D01*
X277480606Y11597217D01*
X277438273Y11808884D01*
X277438273Y11978217D01*
X277480606Y12189884D01*
X277522940Y12316884D01*
X277565273Y12401550D01*
X277649940Y12528550D01*
X277692273Y12570884D01*
X287344273Y20002500D02*
X287386606Y19960167D01*
X287513606Y19917834D01*
X287598273Y19917834D01*
X287725273Y19960167D01*
X287809940Y20044834D01*
X287852273Y20129500D01*
X287894606Y20298834D01*
X287894606Y20425834D01*
X287852273Y20595167D01*
X287809940Y20679834D01*
X287725273Y20764500D01*
X287598273Y20806834D01*
X287513606Y20806834D01*
X287386606Y20764500D01*
X287344273Y20722167D01*
X286963273Y19917834D02*
X286963273Y20806834D01*
X286666940Y20171834D01*
X286370606Y20806834D01*
X286370606Y19917834D01*
X285989606Y20171834D02*
X285566273Y20171834D01*
X286074273Y19917834D02*
X285777940Y20806834D01*
X285481606Y19917834D01*
X285269940Y20806834D02*
X284719606Y20806834D01*
X285015940Y20468167D01*
X284888940Y20468167D01*
X284804273Y20425834D01*
X284761940Y20383500D01*
X284719606Y20298834D01*
X284719606Y20087167D01*
X284761940Y20002500D01*
X284804273Y19960167D01*
X284888940Y19917834D01*
X285142940Y19917834D01*
X285227606Y19960167D01*
X285269940Y20002500D01*
X285947273Y24870834D02*
X285650940Y23981834D01*
X285354606Y24870834D01*
X285058273Y23981834D02*
X285058273Y24870834D01*
X284677273Y24024167D02*
X284550273Y23981834D01*
X284338606Y23981834D01*
X284253940Y24024167D01*
X284211606Y24066500D01*
X284169273Y24151167D01*
X284169273Y24235834D01*
X284211606Y24320500D01*
X284253940Y24362834D01*
X284338606Y24405167D01*
X284507940Y24447500D01*
X284592606Y24489834D01*
X284634940Y24532167D01*
X284677273Y24616834D01*
X284677273Y24701500D01*
X284634940Y24786167D01*
X284592606Y24828500D01*
X284507940Y24870834D01*
X284296273Y24870834D01*
X284169273Y24828500D01*
X283110940Y23981834D02*
X283110940Y24870834D01*
X282772273Y24870834D01*
X282687606Y24828500D01*
X282645273Y24786167D01*
X282602940Y24701500D01*
X282602940Y24574500D01*
X282645273Y24489834D01*
X282687606Y24447500D01*
X282772273Y24405167D01*
X283110940Y24405167D01*
X282264273Y24235834D02*
X281840940Y24235834D01*
X282348940Y23981834D02*
X282052606Y24870834D01*
X281756273Y23981834D01*
X280994273Y24828500D02*
X281078940Y24870834D01*
X281205940Y24870834D01*
X281332940Y24828500D01*
X281417606Y24743834D01*
X281459940Y24659167D01*
X281502273Y24489834D01*
X281502273Y24362834D01*
X281459940Y24193500D01*
X281417606Y24108834D01*
X281332940Y24024167D01*
X281205940Y23981834D01*
X281121273Y23981834D01*
X280994273Y24024167D01*
X280951940Y24066500D01*
X280951940Y24362834D01*
X281121273Y24362834D01*
X280570940Y24447500D02*
X280274606Y24447500D01*
X280147606Y23981834D02*
X280570940Y23981834D01*
X280570940Y24870834D01*
X280147606Y24870834D01*
X282306606Y22754167D02*
X282264273Y22796500D01*
X282179606Y22838834D01*
X281967940Y22838834D01*
X281883273Y22796500D01*
X281840940Y22754167D01*
X281798606Y22669500D01*
X281798606Y22584834D01*
X281840940Y22457834D01*
X282348940Y21949834D01*
X281798606Y21949834D01*
X281417606Y22288500D02*
X280740273Y22288500D01*
X280401606Y22838834D02*
X279851273Y22838834D01*
X280147606Y22500167D01*
X280020606Y22500167D01*
X279935940Y22457834D01*
X279893606Y22415500D01*
X279851273Y22330834D01*
X279851273Y22119167D01*
X279893606Y22034500D01*
X279935940Y21992167D01*
X280020606Y21949834D01*
X280274606Y21949834D01*
X280359273Y21992167D01*
X280401606Y22034500D01*
X291408273Y19917834D02*
X291408273Y20806834D01*
X291069606Y20806834D01*
X290984940Y20764500D01*
X290942606Y20722167D01*
X290900273Y20637500D01*
X290900273Y20510500D01*
X290942606Y20425834D01*
X290984940Y20383500D01*
X291069606Y20341167D01*
X291408273Y20341167D01*
X290519273Y19917834D02*
X290519273Y20806834D01*
X290095940Y19917834D02*
X290095940Y20806834D01*
X289587940Y19917834D01*
X289587940Y20806834D01*
X287386606Y21949834D02*
X287894606Y21949834D01*
X287640606Y21949834D02*
X287640606Y22838834D01*
X287725273Y22711834D01*
X287809940Y22627167D01*
X287894606Y22584834D01*
X287005606Y22288500D02*
X286328273Y22288500D01*
X285947273Y22754167D02*
X285904940Y22796500D01*
X285820273Y22838834D01*
X285608606Y22838834D01*
X285523940Y22796500D01*
X285481606Y22754167D01*
X285439273Y22669500D01*
X285439273Y22584834D01*
X285481606Y22457834D01*
X285989606Y21949834D01*
X285439273Y21949834D01*
X291154273Y22838834D02*
X291154273Y22203834D01*
X291196606Y22076834D01*
X291281273Y21992167D01*
X291408273Y21949834D01*
X291492940Y21949834D01*
X290730940Y21949834D02*
X290730940Y22838834D01*
X290392273Y22838834D01*
X290307606Y22796500D01*
X290265273Y22754167D01*
X290222940Y22669500D01*
X290222940Y22542500D01*
X290265273Y22457834D01*
X290307606Y22415500D01*
X290392273Y22373167D01*
X290730940Y22373167D01*
X289460940Y22838834D02*
X289630273Y22838834D01*
X289714940Y22796500D01*
X289757273Y22754167D01*
X289841940Y22627167D01*
X289884273Y22457834D01*
X289884273Y22119167D01*
X289841940Y22034500D01*
X289799606Y21992167D01*
X289714940Y21949834D01*
X289545606Y21949834D01*
X289460940Y21992167D01*
X289418606Y22034500D01*
X289376273Y22119167D01*
X289376273Y22330834D01*
X289418606Y22415500D01*
X289460940Y22457834D01*
X289545606Y22500167D01*
X289714940Y22500167D01*
X289799606Y22457834D01*
X289841940Y22415500D01*
X289884273Y22330834D01*
X282264273Y19917834D02*
X282264273Y20806834D01*
X281925606Y20806834D01*
X281840940Y20764500D01*
X281798606Y20722167D01*
X281756273Y20637500D01*
X281756273Y20510500D01*
X281798606Y20425834D01*
X281840940Y20383500D01*
X281925606Y20341167D01*
X282264273Y20341167D01*
X281375273Y19917834D02*
X281375273Y20806834D01*
X281078940Y20171834D01*
X280782606Y20806834D01*
X280782606Y19917834D01*
X280401606Y20171834D02*
X279978273Y20171834D01*
X280486273Y19917834D02*
X280189940Y20806834D01*
X279893606Y19917834D01*
X279131606Y19917834D02*
X279639606Y19917834D01*
X279385606Y19917834D02*
X279385606Y20806834D01*
X279470273Y20679834D01*
X279554940Y20595167D01*
X279639606Y20552834D01*
X278581273Y20806834D02*
X278496606Y20806834D01*
X278411940Y20764500D01*
X278369606Y20722167D01*
X278327273Y20637500D01*
X278284940Y20468167D01*
X278284940Y20256500D01*
X278327273Y20087167D01*
X278369606Y20002500D01*
X278411940Y19960167D01*
X278496606Y19917834D01*
X278581273Y19917834D01*
X278665940Y19960167D01*
X278708273Y20002500D01*
X278750606Y20087167D01*
X278792940Y20256500D01*
X278792940Y20468167D01*
X278750606Y20637500D01*
X278708273Y20722167D01*
X278665940Y20764500D01*
X278581273Y20806834D01*
X290519273Y36408784D02*
X290519273Y37297784D01*
X290222940Y36662784D01*
X289926606Y37297784D01*
X289926606Y36408784D01*
X289503273Y36874450D02*
X289206940Y36874450D01*
X289079940Y36408784D02*
X289503273Y36408784D01*
X289503273Y37297784D01*
X289079940Y37297784D01*
X288698940Y36408784D02*
X288698940Y37297784D01*
X288402606Y36662784D01*
X288106273Y37297784D01*
X288106273Y36408784D01*
X286836273Y37297784D02*
X286666940Y37297784D01*
X286582273Y37255450D01*
X286497606Y37170784D01*
X286455273Y37001450D01*
X286455273Y36705117D01*
X286497606Y36535784D01*
X286582273Y36451117D01*
X286666940Y36408784D01*
X286836273Y36408784D01*
X286920940Y36451117D01*
X287005606Y36535784D01*
X287047940Y36705117D01*
X287047940Y37001450D01*
X287005606Y37170784D01*
X286920940Y37255450D01*
X286836273Y37297784D01*
X285777940Y36874450D02*
X286074273Y36874450D01*
X286074273Y36408784D02*
X286074273Y37297784D01*
X285650940Y37297784D01*
X285015940Y36874450D02*
X285312273Y36874450D01*
X285312273Y36408784D02*
X285312273Y37297784D01*
X284888940Y37297784D01*
X284592606Y36451117D02*
X284465606Y36408784D01*
X284253940Y36408784D01*
X284169273Y36451117D01*
X284126940Y36493450D01*
X284084606Y36578117D01*
X284084606Y36662784D01*
X284126940Y36747450D01*
X284169273Y36789784D01*
X284253940Y36832117D01*
X284423273Y36874450D01*
X284507940Y36916784D01*
X284550273Y36959117D01*
X284592606Y37043784D01*
X284592606Y37128450D01*
X284550273Y37213117D01*
X284507940Y37255450D01*
X284423273Y37297784D01*
X284211606Y37297784D01*
X284084606Y37255450D01*
X283703606Y36874450D02*
X283407273Y36874450D01*
X283280273Y36408784D02*
X283703606Y36408784D01*
X283703606Y37297784D01*
X283280273Y37297784D01*
X283026273Y37297784D02*
X282518273Y37297784D01*
X282772273Y36408784D02*
X282772273Y37297784D01*
X281544606Y36408784D02*
X281544606Y37297784D01*
X281121273Y36408784D02*
X281121273Y37297784D01*
X280613273Y36408784D01*
X280613273Y37297784D01*
X279512606Y36874450D02*
X279216273Y36874450D01*
X279089273Y36408784D02*
X279512606Y36408784D01*
X279512606Y37297784D01*
X279089273Y37297784D01*
X278708273Y36408784D02*
X278708273Y37297784D01*
X278369606Y37297784D01*
X278284940Y37255450D01*
X278242606Y37213117D01*
X278200273Y37128450D01*
X278200273Y37001450D01*
X278242606Y36916784D01*
X278284940Y36874450D01*
X278369606Y36832117D01*
X278708273Y36832117D01*
X277311273Y36408784D02*
X277607606Y36832117D01*
X277819273Y36408784D02*
X277819273Y37297784D01*
X277480606Y37297784D01*
X277395940Y37255450D01*
X277353606Y37213117D01*
X277311273Y37128450D01*
X277311273Y37001450D01*
X277353606Y36916784D01*
X277395940Y36874450D01*
X277480606Y36832117D01*
X277819273Y36832117D01*
X276760940Y37297784D02*
X276591606Y37297784D01*
X276506940Y37255450D01*
X276422273Y37170784D01*
X276379940Y37001450D01*
X276379940Y36705117D01*
X276422273Y36535784D01*
X276506940Y36451117D01*
X276591606Y36408784D01*
X276760940Y36408784D01*
X276845606Y36451117D01*
X276930273Y36535784D01*
X276972606Y36705117D01*
X276972606Y37001450D01*
X276930273Y37170784D01*
X276845606Y37255450D01*
X276760940Y37297784D01*
X275998940Y36408784D02*
X275998940Y37297784D01*
X275702606Y36662784D01*
X275406273Y37297784D01*
X275406273Y36408784D01*
X274940606Y36451117D02*
X274940606Y36408784D01*
X274982940Y36324117D01*
X275025273Y36281784D01*
X290519273Y34922884D02*
X290519273Y35811884D01*
X290011273Y34922884D01*
X290011273Y35811884D01*
X289418606Y35811884D02*
X289249273Y35811884D01*
X289164606Y35769550D01*
X289079940Y35684884D01*
X289037606Y35515550D01*
X289037606Y35219217D01*
X289079940Y35049884D01*
X289164606Y34965217D01*
X289249273Y34922884D01*
X289418606Y34922884D01*
X289503273Y34965217D01*
X289587940Y35049884D01*
X289630273Y35219217D01*
X289630273Y35515550D01*
X289587940Y35684884D01*
X289503273Y35769550D01*
X289418606Y35811884D01*
X288783606Y35811884D02*
X288275606Y35811884D01*
X288529606Y34922884D02*
X288529606Y35811884D01*
X287301940Y34922884D02*
X287301940Y35811884D01*
X287005606Y35176884D01*
X286709273Y35811884D01*
X286709273Y34922884D01*
X286328273Y35176884D02*
X285904940Y35176884D01*
X286412940Y34922884D02*
X286116606Y35811884D01*
X285820273Y34922884D01*
X285523940Y34922884D02*
X285523940Y35811884D01*
X285100606Y34922884D02*
X285100606Y35811884D01*
X284592606Y34922884D01*
X284592606Y35811884D01*
X283491940Y34922884D02*
X283491940Y35811884D01*
X283195606Y35176884D01*
X282899273Y35811884D01*
X282899273Y34922884D01*
X282475940Y35388550D02*
X282179606Y35388550D01*
X282052606Y34922884D02*
X282475940Y34922884D01*
X282475940Y35811884D01*
X282052606Y35811884D01*
X281671606Y34922884D02*
X281671606Y35811884D01*
X281375273Y35176884D01*
X281078940Y35811884D01*
X281078940Y34922884D01*
X280486273Y35811884D02*
X280316940Y35811884D01*
X280232273Y35769550D01*
X280147606Y35684884D01*
X280105273Y35515550D01*
X280105273Y35219217D01*
X280147606Y35049884D01*
X280232273Y34965217D01*
X280316940Y34922884D01*
X280486273Y34922884D01*
X280570940Y34965217D01*
X280655606Y35049884D01*
X280697940Y35219217D01*
X280697940Y35515550D01*
X280655606Y35684884D01*
X280570940Y35769550D01*
X280486273Y35811884D01*
X279216273Y34922884D02*
X279512606Y35346217D01*
X279724273Y34922884D02*
X279724273Y35811884D01*
X279385606Y35811884D01*
X279300940Y35769550D01*
X279258606Y35727217D01*
X279216273Y35642550D01*
X279216273Y35515550D01*
X279258606Y35430884D01*
X279300940Y35388550D01*
X279385606Y35346217D01*
X279724273Y35346217D01*
X278665940Y35346217D02*
X278665940Y34922884D01*
X278962273Y35811884D02*
X278665940Y35346217D01*
X278369606Y35811884D01*
X276098000Y42164000D02*
X290830000Y42164000D01*
X276098000Y46228000D02*
X290830000Y46228000D01*
X276098000Y46228000D02*
X276098000Y38100000D01*
X276098000Y38100000D02*
X290830000Y38100000D01*
X287274000Y46228000D02*
X287274000Y38100000D01*
X276098000Y44196000D02*
X287274000Y44196000D01*
X276098000Y40132000D02*
X290830000Y40132000D01*
X290830000Y38100000D02*
X290830000Y46228000D01*
X281686000Y44196000D02*
X281686000Y38100000D01*
X280401606Y42777834D02*
X280909606Y42777834D01*
X280655606Y42777834D02*
X280655606Y43666834D01*
X280740273Y43539834D01*
X280824940Y43455167D01*
X280909606Y43412834D01*
X286285940Y43666834D02*
X286201273Y43666834D01*
X286116606Y43624500D01*
X286074273Y43582167D01*
X286031940Y43497500D01*
X285989606Y43328167D01*
X285989606Y43116500D01*
X286031940Y42947167D01*
X286074273Y42862500D01*
X286116606Y42820167D01*
X286201273Y42777834D01*
X286285940Y42777834D01*
X286370606Y42820167D01*
X286412940Y42862500D01*
X286455273Y42947167D01*
X286497606Y43116500D01*
X286497606Y43328167D01*
X286455273Y43497500D01*
X286412940Y43582167D01*
X286370606Y43624500D01*
X286285940Y43666834D01*
X285989606Y40745834D02*
X286497606Y40745834D01*
X286243606Y40745834D02*
X286243606Y41634834D01*
X286328273Y41507834D01*
X286412940Y41423167D01*
X286497606Y41380834D01*
X285608606Y41084500D02*
X284931273Y41084500D01*
X284550273Y41550167D02*
X284507940Y41592500D01*
X284423273Y41634834D01*
X284211606Y41634834D01*
X284126940Y41592500D01*
X284084606Y41550167D01*
X284042273Y41465500D01*
X284042273Y41380834D01*
X284084606Y41253834D01*
X284592606Y40745834D01*
X284042273Y40745834D01*
X285439273Y45275500D02*
X285142940Y45275500D01*
X285015940Y44809834D02*
X285439273Y44809834D01*
X285439273Y45698834D01*
X285015940Y45698834D01*
X284634940Y44809834D02*
X284634940Y45698834D01*
X284296273Y45698834D01*
X284211606Y45656500D01*
X284169273Y45614167D01*
X284126940Y45529500D01*
X284126940Y45402500D01*
X284169273Y45317834D01*
X284211606Y45275500D01*
X284296273Y45233167D01*
X284634940Y45233167D01*
X283237940Y44809834D02*
X283534273Y45233167D01*
X283745940Y44809834D02*
X283745940Y45698834D01*
X283407273Y45698834D01*
X283322606Y45656500D01*
X283280273Y45614167D01*
X283237940Y45529500D01*
X283237940Y45402500D01*
X283280273Y45317834D01*
X283322606Y45275500D01*
X283407273Y45233167D01*
X283745940Y45233167D01*
X282687606Y45698834D02*
X282518273Y45698834D01*
X282433606Y45656500D01*
X282348940Y45571834D01*
X282306606Y45402500D01*
X282306606Y45106167D01*
X282348940Y44936834D01*
X282433606Y44852167D01*
X282518273Y44809834D01*
X282687606Y44809834D01*
X282772273Y44852167D01*
X282856940Y44936834D01*
X282899273Y45106167D01*
X282899273Y45402500D01*
X282856940Y45571834D01*
X282772273Y45656500D01*
X282687606Y45698834D01*
X281925606Y44809834D02*
X281925606Y45698834D01*
X281629273Y45063834D01*
X281332940Y45698834D01*
X281332940Y44809834D01*
X279935940Y45275500D02*
X279808940Y45233167D01*
X279766606Y45190834D01*
X279724273Y45106167D01*
X279724273Y44979167D01*
X279766606Y44894500D01*
X279808940Y44852167D01*
X279893606Y44809834D01*
X280232273Y44809834D01*
X280232273Y45698834D01*
X279935940Y45698834D01*
X279851273Y45656500D01*
X279808940Y45614167D01*
X279766606Y45529500D01*
X279766606Y45444834D01*
X279808940Y45360167D01*
X279851273Y45317834D01*
X279935940Y45275500D01*
X280232273Y45275500D01*
X279385606Y45063834D02*
X278962273Y45063834D01*
X279470273Y44809834D02*
X279173940Y45698834D01*
X278877606Y44809834D01*
X278581273Y44809834D02*
X278581273Y45698834D01*
X278073273Y44809834D01*
X278073273Y45698834D01*
X277649940Y44809834D02*
X277649940Y45698834D01*
X277141940Y44809834D02*
X277522940Y45317834D01*
X277141940Y45698834D02*
X277649940Y45190834D01*
X289757273Y41634834D02*
X289757273Y40999834D01*
X289799606Y40872834D01*
X289884273Y40788167D01*
X290011273Y40745834D01*
X290095940Y40745834D01*
X289333940Y40745834D02*
X289333940Y41634834D01*
X288995273Y41634834D01*
X288910606Y41592500D01*
X288868273Y41550167D01*
X288825940Y41465500D01*
X288825940Y41338500D01*
X288868273Y41253834D01*
X288910606Y41211500D01*
X288995273Y41169167D01*
X289333940Y41169167D01*
X288021606Y41634834D02*
X288444940Y41634834D01*
X288487273Y41211500D01*
X288444940Y41253834D01*
X288360273Y41296167D01*
X288148606Y41296167D01*
X288063940Y41253834D01*
X288021606Y41211500D01*
X287979273Y41126834D01*
X287979273Y40915167D01*
X288021606Y40830500D01*
X288063940Y40788167D01*
X288148606Y40745834D01*
X288360273Y40745834D01*
X288444940Y40788167D01*
X288487273Y40830500D01*
X280909606Y38756167D02*
X280782606Y38713834D01*
X280570940Y38713834D01*
X280486273Y38756167D01*
X280443940Y38798500D01*
X280401606Y38883167D01*
X280401606Y38967834D01*
X280443940Y39052500D01*
X280486273Y39094834D01*
X280570940Y39137167D01*
X280740273Y39179500D01*
X280824940Y39221834D01*
X280867273Y39264167D01*
X280909606Y39348834D01*
X280909606Y39433500D01*
X280867273Y39518167D01*
X280824940Y39560500D01*
X280740273Y39602834D01*
X280528606Y39602834D01*
X280401606Y39560500D01*
X280655606Y39729834D02*
X280655606Y38586834D01*
X279639606Y39306500D02*
X279639606Y38713834D01*
X279851273Y39645167D02*
X280062940Y39010167D01*
X279512606Y39010167D01*
X279004606Y39602834D02*
X278919940Y39602834D01*
X278835273Y39560500D01*
X278792940Y39518167D01*
X278750606Y39433500D01*
X278708273Y39264167D01*
X278708273Y39052500D01*
X278750606Y38883167D01*
X278792940Y38798500D01*
X278835273Y38756167D01*
X278919940Y38713834D01*
X279004606Y38713834D01*
X279089273Y38756167D01*
X279131606Y38798500D01*
X279173940Y38883167D01*
X279216273Y39052500D01*
X279216273Y39264167D01*
X279173940Y39433500D01*
X279131606Y39518167D01*
X279089273Y39560500D01*
X279004606Y39602834D01*
X278157940Y39602834D02*
X278073273Y39602834D01*
X277988606Y39560500D01*
X277946273Y39518167D01*
X277903940Y39433500D01*
X277861606Y39264167D01*
X277861606Y39052500D01*
X277903940Y38883167D01*
X277946273Y38798500D01*
X277988606Y38756167D01*
X278073273Y38713834D01*
X278157940Y38713834D01*
X278242606Y38756167D01*
X278284940Y38798500D01*
X278327273Y38883167D01*
X278369606Y39052500D01*
X278369606Y39264167D01*
X278327273Y39433500D01*
X278284940Y39518167D01*
X278242606Y39560500D01*
X278157940Y39602834D01*
X277311273Y39602834D02*
X277226606Y39602834D01*
X277141940Y39560500D01*
X277099606Y39518167D01*
X277057273Y39433500D01*
X277014940Y39264167D01*
X277014940Y39052500D01*
X277057273Y38883167D01*
X277099606Y38798500D01*
X277141940Y38756167D01*
X277226606Y38713834D01*
X277311273Y38713834D01*
X277395940Y38756167D01*
X277438273Y38798500D01*
X277480606Y38883167D01*
X277522940Y39052500D01*
X277522940Y39264167D01*
X277480606Y39433500D01*
X277438273Y39518167D01*
X277395940Y39560500D01*
X277311273Y39602834D01*
X280909606Y41550167D02*
X280867273Y41592500D01*
X280782606Y41634834D01*
X280570940Y41634834D01*
X280486273Y41592500D01*
X280443940Y41550167D01*
X280401606Y41465500D01*
X280401606Y41380834D01*
X280443940Y41253834D01*
X280951940Y40745834D01*
X280401606Y40745834D01*
X280020606Y41084500D02*
X279343273Y41084500D01*
X279004606Y41634834D02*
X278454273Y41634834D01*
X278750606Y41296167D01*
X278623606Y41296167D01*
X278538940Y41253834D01*
X278496606Y41211500D01*
X278454273Y41126834D01*
X278454273Y40915167D01*
X278496606Y40830500D01*
X278538940Y40788167D01*
X278623606Y40745834D01*
X278877606Y40745834D01*
X278962273Y40788167D01*
X279004606Y40830500D01*
X286497606Y38756167D02*
X286370606Y38713834D01*
X286158940Y38713834D01*
X286074273Y38756167D01*
X286031940Y38798500D01*
X285989606Y38883167D01*
X285989606Y38967834D01*
X286031940Y39052500D01*
X286074273Y39094834D01*
X286158940Y39137167D01*
X286328273Y39179500D01*
X286412940Y39221834D01*
X286455273Y39264167D01*
X286497606Y39348834D01*
X286497606Y39433500D01*
X286455273Y39518167D01*
X286412940Y39560500D01*
X286328273Y39602834D01*
X286116606Y39602834D01*
X285989606Y39560500D01*
X286243606Y39729834D02*
X286243606Y38586834D01*
X285439273Y39602834D02*
X285354606Y39602834D01*
X285269940Y39560500D01*
X285227606Y39518167D01*
X285185273Y39433500D01*
X285142940Y39264167D01*
X285142940Y39052500D01*
X285185273Y38883167D01*
X285227606Y38798500D01*
X285269940Y38756167D01*
X285354606Y38713834D01*
X285439273Y38713834D01*
X285523940Y38756167D01*
X285566273Y38798500D01*
X285608606Y38883167D01*
X285650940Y39052500D01*
X285650940Y39264167D01*
X285608606Y39433500D01*
X285566273Y39518167D01*
X285523940Y39560500D01*
X285439273Y39602834D01*
X284592606Y39602834D02*
X284507940Y39602834D01*
X284423273Y39560500D01*
X284380940Y39518167D01*
X284338606Y39433500D01*
X284296273Y39264167D01*
X284296273Y39052500D01*
X284338606Y38883167D01*
X284380940Y38798500D01*
X284423273Y38756167D01*
X284507940Y38713834D01*
X284592606Y38713834D01*
X284677273Y38756167D01*
X284719606Y38798500D01*
X284761940Y38883167D01*
X284804273Y39052500D01*
X284804273Y39264167D01*
X284761940Y39433500D01*
X284719606Y39518167D01*
X284677273Y39560500D01*
X284592606Y39602834D01*
X283745940Y39602834D02*
X283661273Y39602834D01*
X283576606Y39560500D01*
X283534273Y39518167D01*
X283491940Y39433500D01*
X283449606Y39264167D01*
X283449606Y39052500D01*
X283491940Y38883167D01*
X283534273Y38798500D01*
X283576606Y38756167D01*
X283661273Y38713834D01*
X283745940Y38713834D01*
X283830606Y38756167D01*
X283872940Y38798500D01*
X283915273Y38883167D01*
X283957606Y39052500D01*
X283957606Y39264167D01*
X283915273Y39433500D01*
X283872940Y39518167D01*
X283830606Y39560500D01*
X283745940Y39602834D01*
X282899273Y39602834D02*
X282814606Y39602834D01*
X282729940Y39560500D01*
X282687606Y39518167D01*
X282645273Y39433500D01*
X282602940Y39264167D01*
X282602940Y39052500D01*
X282645273Y38883167D01*
X282687606Y38798500D01*
X282729940Y38756167D01*
X282814606Y38713834D01*
X282899273Y38713834D01*
X282983940Y38756167D01*
X283026273Y38798500D01*
X283068606Y38883167D01*
X283110940Y39052500D01*
X283110940Y39264167D01*
X283068606Y39433500D01*
X283026273Y39518167D01*
X282983940Y39560500D01*
X282899273Y39602834D01*
X290011273Y38713834D02*
X290011273Y39602834D01*
X289714940Y38967834D01*
X289418606Y39602834D01*
X289418606Y38713834D01*
X288995273Y39179500D02*
X288698940Y39179500D01*
X288571940Y38713834D02*
X288995273Y38713834D01*
X288995273Y39602834D01*
X288571940Y39602834D01*
X288190940Y38713834D02*
X288190940Y39602834D01*
X287894606Y38967834D01*
X287598273Y39602834D01*
X287598273Y38713834D01*
X290561606Y47392167D02*
X290434606Y47349834D01*
X290222940Y47349834D01*
X290138273Y47392167D01*
X290095940Y47434500D01*
X290053606Y47519167D01*
X290053606Y47603834D01*
X290095940Y47688500D01*
X290138273Y47730834D01*
X290222940Y47773167D01*
X290392273Y47815500D01*
X290476940Y47857834D01*
X290519273Y47900167D01*
X290561606Y47984834D01*
X290561606Y48069500D01*
X290519273Y48154167D01*
X290476940Y48196500D01*
X290392273Y48238834D01*
X290180606Y48238834D01*
X290053606Y48196500D01*
X289503273Y48238834D02*
X289333940Y48238834D01*
X289249273Y48196500D01*
X289164606Y48111834D01*
X289122273Y47942500D01*
X289122273Y47646167D01*
X289164606Y47476834D01*
X289249273Y47392167D01*
X289333940Y47349834D01*
X289503273Y47349834D01*
X289587940Y47392167D01*
X289672606Y47476834D01*
X289714940Y47646167D01*
X289714940Y47942500D01*
X289672606Y48111834D01*
X289587940Y48196500D01*
X289503273Y48238834D01*
X288741273Y47349834D02*
X288741273Y48238834D01*
X288444940Y47603834D01*
X288148606Y48238834D01*
X288148606Y47349834D01*
X287725273Y47815500D02*
X287428940Y47815500D01*
X287301940Y47349834D02*
X287725273Y47349834D01*
X287725273Y48238834D01*
X287301940Y48238834D01*
X286370606Y48238834D02*
X285862606Y48238834D01*
X286116606Y47349834D02*
X286116606Y48238834D01*
X285396940Y48238834D02*
X285227606Y48238834D01*
X285142940Y48196500D01*
X285058273Y48111834D01*
X285015940Y47942500D01*
X285015940Y47646167D01*
X285058273Y47476834D01*
X285142940Y47392167D01*
X285227606Y47349834D01*
X285396940Y47349834D01*
X285481606Y47392167D01*
X285566273Y47476834D01*
X285608606Y47646167D01*
X285608606Y47942500D01*
X285566273Y48111834D01*
X285481606Y48196500D01*
X285396940Y48238834D01*
X283576606Y48238834D02*
X283745940Y48238834D01*
X283830606Y48196500D01*
X283872940Y48154167D01*
X283957606Y48027167D01*
X283999940Y47857834D01*
X283999940Y47519167D01*
X283957606Y47434500D01*
X283915273Y47392167D01*
X283830606Y47349834D01*
X283661273Y47349834D01*
X283576606Y47392167D01*
X283534273Y47434500D01*
X283491940Y47519167D01*
X283491940Y47730834D01*
X283534273Y47815500D01*
X283576606Y47857834D01*
X283661273Y47900167D01*
X283830606Y47900167D01*
X283915273Y47857834D01*
X283957606Y47815500D01*
X283999940Y47730834D01*
X283110940Y47434500D02*
X283068606Y47392167D01*
X283110940Y47349834D01*
X283153273Y47392167D01*
X283110940Y47434500D01*
X283110940Y47349834D01*
X282306606Y47942500D02*
X282306606Y47349834D01*
X282518273Y48281167D02*
X282729940Y47646167D01*
X282179606Y47646167D01*
X281840940Y47349834D02*
X281840940Y48238834D01*
X281544606Y47603834D01*
X281248273Y48238834D01*
X281248273Y47349834D01*
X280824940Y47349834D02*
X280824940Y48238834D01*
X280824940Y47815500D02*
X280316940Y47815500D01*
X280316940Y47349834D02*
X280316940Y48238834D01*
X279978273Y48238834D02*
X279385606Y48238834D01*
X279978273Y47349834D01*
X279385606Y47349834D01*
X290519273Y48873834D02*
X290519273Y49762834D01*
X290222940Y49127834D01*
X289926606Y49762834D01*
X289926606Y48873834D01*
X289545606Y49127834D02*
X289122273Y49127834D01*
X289630273Y48873834D02*
X289333940Y49762834D01*
X289037606Y48873834D01*
X288741273Y48873834D02*
X288741273Y49762834D01*
X288233273Y48873834D01*
X288233273Y49762834D01*
X287640606Y49297167D02*
X287640606Y48873834D01*
X287936940Y49762834D02*
X287640606Y49297167D01*
X287344273Y49762834D01*
X285904940Y49720500D02*
X285989606Y49762834D01*
X286116606Y49762834D01*
X286243606Y49720500D01*
X286328273Y49635834D01*
X286370606Y49551167D01*
X286412940Y49381834D01*
X286412940Y49254834D01*
X286370606Y49085500D01*
X286328273Y49000834D01*
X286243606Y48916167D01*
X286116606Y48873834D01*
X286031940Y48873834D01*
X285904940Y48916167D01*
X285862606Y48958500D01*
X285862606Y49254834D01*
X286031940Y49254834D01*
X285312273Y49762834D02*
X285142940Y49762834D01*
X285058273Y49720500D01*
X284973606Y49635834D01*
X284931273Y49466500D01*
X284931273Y49170167D01*
X284973606Y49000834D01*
X285058273Y48916167D01*
X285142940Y48873834D01*
X285312273Y48873834D01*
X285396940Y48916167D01*
X285481606Y49000834D01*
X285523940Y49170167D01*
X285523940Y49466500D01*
X285481606Y49635834D01*
X285396940Y49720500D01*
X285312273Y49762834D01*
X283872940Y49762834D02*
X283872940Y49043167D01*
X283830606Y48958500D01*
X283788273Y48916167D01*
X283703606Y48873834D01*
X283534273Y48873834D01*
X283449606Y48916167D01*
X283407273Y48958500D01*
X283364940Y49043167D01*
X283364940Y49762834D01*
X282941606Y48873834D02*
X282941606Y49762834D01*
X282602940Y49762834D01*
X282518273Y49720500D01*
X282475940Y49678167D01*
X282433606Y49593500D01*
X282433606Y49466500D01*
X282475940Y49381834D01*
X282518273Y49339500D01*
X282602940Y49297167D01*
X282941606Y49297167D01*
X281502273Y49762834D02*
X280994273Y49762834D01*
X281248273Y48873834D02*
X281248273Y49762834D01*
X280528606Y49762834D02*
X280359273Y49762834D01*
X280274606Y49720500D01*
X280189940Y49635834D01*
X280147606Y49466500D01*
X280147606Y49170167D01*
X280189940Y49000834D01*
X280274606Y48916167D01*
X280359273Y48873834D01*
X280528606Y48873834D01*
X280613273Y48916167D01*
X280697940Y49000834D01*
X280740273Y49170167D01*
X280740273Y49466500D01*
X280697940Y49635834D01*
X280613273Y49720500D01*
X280528606Y49762834D01*
X278665940Y49762834D02*
X279089273Y49762834D01*
X279131606Y49339500D01*
X279089273Y49381834D01*
X279004606Y49424167D01*
X278792940Y49424167D01*
X278708273Y49381834D01*
X278665940Y49339500D01*
X278623606Y49254834D01*
X278623606Y49043167D01*
X278665940Y48958500D01*
X278708273Y48916167D01*
X278792940Y48873834D01*
X279004606Y48873834D01*
X279089273Y48916167D01*
X279131606Y48958500D01*
X278242606Y48873834D02*
X278242606Y49762834D01*
X277946273Y49127834D01*
X277649940Y49762834D01*
X277649940Y48873834D01*
X277226606Y48873834D02*
X277226606Y49762834D01*
X277226606Y49339500D02*
X276718606Y49339500D01*
X276718606Y48873834D02*
X276718606Y49762834D01*
X276379940Y49762834D02*
X275787273Y49762834D01*
X276379940Y48873834D01*
X275787273Y48873834D01*
X290222940Y50863500D02*
X290095940Y50821167D01*
X290053606Y50778834D01*
X290011273Y50694167D01*
X290011273Y50567167D01*
X290053606Y50482500D01*
X290095940Y50440167D01*
X290180606Y50397834D01*
X290519273Y50397834D01*
X290519273Y51286834D01*
X290222940Y51286834D01*
X290138273Y51244500D01*
X290095940Y51202167D01*
X290053606Y51117500D01*
X290053606Y51032834D01*
X290095940Y50948167D01*
X290138273Y50905834D01*
X290222940Y50863500D01*
X290519273Y50863500D01*
X289672606Y50651834D02*
X289249273Y50651834D01*
X289757273Y50397834D02*
X289460940Y51286834D01*
X289164606Y50397834D01*
X288910606Y50440167D02*
X288783606Y50397834D01*
X288571940Y50397834D01*
X288487273Y50440167D01*
X288444940Y50482500D01*
X288402606Y50567167D01*
X288402606Y50651834D01*
X288444940Y50736500D01*
X288487273Y50778834D01*
X288571940Y50821167D01*
X288741273Y50863500D01*
X288825940Y50905834D01*
X288868273Y50948167D01*
X288910606Y51032834D01*
X288910606Y51117500D01*
X288868273Y51202167D01*
X288825940Y51244500D01*
X288741273Y51286834D01*
X288529606Y51286834D01*
X288402606Y51244500D01*
X288021606Y50397834D02*
X288021606Y51286834D01*
X287090273Y50482500D02*
X287132606Y50440167D01*
X287259606Y50397834D01*
X287344273Y50397834D01*
X287471273Y50440167D01*
X287555940Y50524834D01*
X287598273Y50609500D01*
X287640606Y50778834D01*
X287640606Y50905834D01*
X287598273Y51075167D01*
X287555940Y51159834D01*
X287471273Y51244500D01*
X287344273Y51286834D01*
X287259606Y51286834D01*
X287132606Y51244500D01*
X287090273Y51202167D01*
X285566273Y50397834D02*
X286074273Y50397834D01*
X285820273Y50397834D02*
X285820273Y51286834D01*
X285904940Y51159834D01*
X285989606Y51075167D01*
X286074273Y51032834D01*
X285058273Y50905834D02*
X285142940Y50948167D01*
X285185273Y50990500D01*
X285227606Y51075167D01*
X285227606Y51117500D01*
X285185273Y51202167D01*
X285142940Y51244500D01*
X285058273Y51286834D01*
X284888940Y51286834D01*
X284804273Y51244500D01*
X284761940Y51202167D01*
X284719606Y51117500D01*
X284719606Y51075167D01*
X284761940Y50990500D01*
X284804273Y50948167D01*
X284888940Y50905834D01*
X285058273Y50905834D01*
X285142940Y50863500D01*
X285185273Y50821167D01*
X285227606Y50736500D01*
X285227606Y50567167D01*
X285185273Y50482500D01*
X285142940Y50440167D01*
X285058273Y50397834D01*
X284888940Y50397834D01*
X284804273Y50440167D01*
X284761940Y50482500D01*
X284719606Y50567167D01*
X284719606Y50736500D01*
X284761940Y50821167D01*
X284804273Y50863500D01*
X284888940Y50905834D01*
X284169273Y51286834D02*
X284084606Y51286834D01*
X283999940Y51244500D01*
X283957606Y51202167D01*
X283915273Y51117500D01*
X283872940Y50948167D01*
X283872940Y50736500D01*
X283915273Y50567167D01*
X283957606Y50482500D01*
X283999940Y50440167D01*
X284084606Y50397834D01*
X284169273Y50397834D01*
X284253940Y50440167D01*
X284296273Y50482500D01*
X284338606Y50567167D01*
X284380940Y50736500D01*
X284380940Y50948167D01*
X284338606Y51117500D01*
X284296273Y51202167D01*
X284253940Y51244500D01*
X284169273Y51286834D01*
X283534273Y51202167D02*
X283491940Y51244500D01*
X283407273Y51286834D01*
X283195606Y51286834D01*
X283110940Y51244500D01*
X283068606Y51202167D01*
X283026273Y51117500D01*
X283026273Y51032834D01*
X283068606Y50905834D01*
X283576606Y50397834D01*
X283026273Y50397834D01*
X281967940Y50397834D02*
X281967940Y51286834D01*
X281756273Y51286834D01*
X281629273Y51244500D01*
X281544606Y51159834D01*
X281502273Y51075167D01*
X281459940Y50905834D01*
X281459940Y50778834D01*
X281502273Y50609500D01*
X281544606Y50524834D01*
X281629273Y50440167D01*
X281756273Y50397834D01*
X281967940Y50397834D01*
X281078940Y50863500D02*
X280782606Y50863500D01*
X280655606Y50397834D02*
X281078940Y50397834D01*
X281078940Y51286834D01*
X280655606Y51286834D01*
X280401606Y51286834D02*
X280105273Y50397834D01*
X279808940Y51286834D01*
X279512606Y50397834D02*
X279512606Y51286834D01*
X278581273Y50482500D02*
X278623606Y50440167D01*
X278750606Y50397834D01*
X278835273Y50397834D01*
X278962273Y50440167D01*
X279046940Y50524834D01*
X279089273Y50609500D01*
X279131606Y50778834D01*
X279131606Y50905834D01*
X279089273Y51075167D01*
X279046940Y51159834D01*
X278962273Y51244500D01*
X278835273Y51286834D01*
X278750606Y51286834D01*
X278623606Y51244500D01*
X278581273Y51202167D01*
X278200273Y50863500D02*
X277903940Y50863500D01*
X277776940Y50397834D02*
X278200273Y50397834D01*
X278200273Y51286834D01*
X277776940Y51286834D01*
X277438273Y50440167D02*
X277311273Y50397834D01*
X277099606Y50397834D01*
X277014940Y50440167D01*
X276972606Y50482500D01*
X276930273Y50567167D01*
X276930273Y50651834D01*
X276972606Y50736500D01*
X277014940Y50778834D01*
X277099606Y50821167D01*
X277268940Y50863500D01*
X277353606Y50905834D01*
X277395940Y50948167D01*
X277438273Y51032834D01*
X277438273Y51117500D01*
X277395940Y51202167D01*
X277353606Y51244500D01*
X277268940Y51286834D01*
X277057273Y51286834D01*
X276930273Y51244500D01*
X276549273Y50482500D02*
X276506940Y50440167D01*
X276549273Y50397834D01*
X276591606Y50440167D01*
X276549273Y50482500D01*
X276549273Y50397834D01*
X276549273Y50948167D02*
X276506940Y50905834D01*
X276549273Y50863500D01*
X276591606Y50905834D01*
X276549273Y50948167D01*
X276549273Y50863500D01*
X275533273Y51286834D02*
X274982940Y51286834D01*
X275279273Y50948167D01*
X275152273Y50948167D01*
X275067606Y50905834D01*
X275025273Y50863500D01*
X274982940Y50778834D01*
X274982940Y50567167D01*
X275025273Y50482500D01*
X275067606Y50440167D01*
X275152273Y50397834D01*
X275406273Y50397834D01*
X275490940Y50440167D01*
X275533273Y50482500D01*
X274601940Y50482500D02*
X274559606Y50440167D01*
X274601940Y50397834D01*
X274644273Y50440167D01*
X274601940Y50482500D01*
X274601940Y50397834D01*
X274220940Y51202167D02*
X274178606Y51244500D01*
X274093940Y51286834D01*
X273882273Y51286834D01*
X273797606Y51244500D01*
X273755273Y51202167D01*
X273712940Y51117500D01*
X273712940Y51032834D01*
X273755273Y50905834D01*
X274263273Y50397834D01*
X273712940Y50397834D01*
X273331940Y50397834D02*
X273331940Y51286834D01*
X273035606Y50651834D01*
X272739273Y51286834D01*
X272739273Y50397834D01*
X272315940Y50397834D02*
X272315940Y51286834D01*
X272315940Y50863500D02*
X271807940Y50863500D01*
X271807940Y50397834D02*
X271807940Y51286834D01*
X271469273Y51286834D02*
X270876606Y51286834D01*
X271469273Y50397834D01*
X270876606Y50397834D01*
X269860606Y50397834D02*
X269860606Y51286834D01*
X269564273Y50651834D01*
X269267940Y51286834D01*
X269267940Y50397834D01*
X268886940Y50651834D02*
X268463606Y50651834D01*
X268971606Y50397834D02*
X268675273Y51286834D01*
X268378940Y50397834D01*
X268167273Y51286834D02*
X267574606Y50397834D01*
X267574606Y51286834D02*
X268167273Y50397834D01*
X276098000Y52324000D02*
X290830000Y52324000D01*
X286775797Y52599167D02*
X286812082Y52641500D01*
X286884654Y52768500D01*
X286920940Y52853167D01*
X286957225Y52980167D01*
X286993511Y53191834D01*
X286993511Y53361167D01*
X286957225Y53572834D01*
X286920940Y53699834D01*
X286884654Y53784500D01*
X286812082Y53911500D01*
X286775797Y53953834D01*
X286231511Y53403500D02*
X286122654Y53361167D01*
X286086368Y53318834D01*
X286050082Y53234167D01*
X286050082Y53107167D01*
X286086368Y53022500D01*
X286122654Y52980167D01*
X286195225Y52937834D01*
X286485511Y52937834D01*
X286485511Y53826834D01*
X286231511Y53826834D01*
X286158940Y53784500D01*
X286122654Y53742167D01*
X286086368Y53657500D01*
X286086368Y53572834D01*
X286122654Y53488167D01*
X286158940Y53445834D01*
X286231511Y53403500D01*
X286485511Y53403500D01*
X285723511Y53403500D02*
X285469511Y53403500D01*
X285360654Y52937834D02*
X285723511Y52937834D01*
X285723511Y53826834D01*
X285360654Y53826834D01*
X284671225Y52937834D02*
X285034082Y52937834D01*
X285034082Y53826834D01*
X284272082Y53826834D02*
X284126940Y53826834D01*
X284054368Y53784500D01*
X283981797Y53699834D01*
X283945511Y53530500D01*
X283945511Y53234167D01*
X283981797Y53064834D01*
X284054368Y52980167D01*
X284126940Y52937834D01*
X284272082Y52937834D01*
X284344654Y52980167D01*
X284417225Y53064834D01*
X284453511Y53234167D01*
X284453511Y53530500D01*
X284417225Y53699834D01*
X284344654Y53784500D01*
X284272082Y53826834D01*
X283691511Y53826834D02*
X283510082Y52937834D01*
X283364940Y53572834D01*
X283219797Y52937834D01*
X283038368Y53826834D01*
X282820654Y52599167D02*
X282784368Y52641500D01*
X282711797Y52768500D01*
X282675511Y52853167D01*
X282639225Y52980167D01*
X282602940Y53191834D01*
X282602940Y53361167D01*
X282639225Y53572834D01*
X282675511Y53699834D01*
X282711797Y53784500D01*
X282784368Y53911500D01*
X282820654Y53953834D01*
X289841940Y53361167D02*
X289841940Y52937834D01*
X290138273Y53826834D02*
X289841940Y53361167D01*
X289545606Y53826834D01*
X289333940Y53826834D02*
X288783606Y53826834D01*
X289079940Y53488167D01*
X288952940Y53488167D01*
X288868273Y53445834D01*
X288825940Y53403500D01*
X288783606Y53318834D01*
X288783606Y53107167D01*
X288825940Y53022500D01*
X288868273Y52980167D01*
X288952940Y52937834D01*
X289206940Y52937834D01*
X289291606Y52980167D01*
X289333940Y53022500D01*
X280867273Y52937834D02*
X280867273Y53826834D01*
X280359273Y52937834D01*
X280359273Y53826834D01*
X279300940Y53869167D02*
X280062940Y52726167D01*
X279046940Y53191834D02*
X278623606Y53191834D01*
X279131606Y52937834D02*
X278835273Y53826834D01*
X278538940Y52937834D01*
X276098000Y54356000D02*
X290830000Y54356000D01*
X276098000Y56388000D02*
X290830000Y56388000D01*
X276098000Y60452000D02*
X290830000Y60452000D01*
X276098000Y58420000D02*
X287274000Y58420000D01*
X290830000Y52324000D02*
X290830000Y60452000D01*
X287274000Y60452000D02*
X287274000Y52324000D01*
X281686000Y58420000D02*
X281686000Y52324000D01*
X276098000Y60452000D02*
X276098000Y52324000D01*
X286582273Y57890834D02*
X286074273Y57890834D01*
X286328273Y57001834D02*
X286328273Y57890834D01*
X285777940Y57890834D02*
X285777940Y57171167D01*
X285735606Y57086500D01*
X285693273Y57044167D01*
X285608606Y57001834D01*
X285439273Y57001834D01*
X285354606Y57044167D01*
X285312273Y57086500D01*
X285269940Y57171167D01*
X285269940Y57890834D01*
X284338606Y57001834D02*
X284634940Y57425167D01*
X284846606Y57001834D02*
X284846606Y57890834D01*
X284507940Y57890834D01*
X284423273Y57848500D01*
X284380940Y57806167D01*
X284338606Y57721500D01*
X284338606Y57594500D01*
X284380940Y57509834D01*
X284423273Y57467500D01*
X284507940Y57425167D01*
X284846606Y57425167D01*
X283661273Y57467500D02*
X283534273Y57425167D01*
X283491940Y57382834D01*
X283449606Y57298167D01*
X283449606Y57171167D01*
X283491940Y57086500D01*
X283534273Y57044167D01*
X283618940Y57001834D01*
X283957606Y57001834D01*
X283957606Y57890834D01*
X283661273Y57890834D01*
X283576606Y57848500D01*
X283534273Y57806167D01*
X283491940Y57721500D01*
X283491940Y57636834D01*
X283534273Y57552167D01*
X283576606Y57509834D01*
X283661273Y57467500D01*
X283957606Y57467500D01*
X282899273Y57890834D02*
X282729940Y57890834D01*
X282645273Y57848500D01*
X282560606Y57763834D01*
X282518273Y57594500D01*
X282518273Y57298167D01*
X282560606Y57128834D01*
X282645273Y57044167D01*
X282729940Y57001834D01*
X282899273Y57001834D01*
X282983940Y57044167D01*
X283068606Y57128834D01*
X283110940Y57298167D01*
X283110940Y57594500D01*
X283068606Y57763834D01*
X282983940Y57848500D01*
X282899273Y57890834D01*
X280867273Y57001834D02*
X280867273Y57890834D01*
X280359273Y57001834D01*
X280359273Y57890834D01*
X279766606Y57890834D02*
X279597273Y57890834D01*
X279512606Y57848500D01*
X279427940Y57763834D01*
X279385606Y57594500D01*
X279385606Y57298167D01*
X279427940Y57128834D01*
X279512606Y57044167D01*
X279597273Y57001834D01*
X279766606Y57001834D01*
X279851273Y57044167D01*
X279935940Y57128834D01*
X279978273Y57298167D01*
X279978273Y57594500D01*
X279935940Y57763834D01*
X279851273Y57848500D01*
X279766606Y57890834D01*
X278496606Y57001834D02*
X278792940Y57425167D01*
X279004606Y57001834D02*
X279004606Y57890834D01*
X278665940Y57890834D01*
X278581273Y57848500D01*
X278538940Y57806167D01*
X278496606Y57721500D01*
X278496606Y57594500D01*
X278538940Y57509834D01*
X278581273Y57467500D01*
X278665940Y57425167D01*
X279004606Y57425167D01*
X278115606Y57001834D02*
X278115606Y57890834D01*
X277819273Y57255834D01*
X277522940Y57890834D01*
X277522940Y57001834D01*
X284423273Y59118500D02*
X284465606Y59076167D01*
X284592606Y59033834D01*
X284677273Y59033834D01*
X284804273Y59076167D01*
X284888940Y59160834D01*
X284931273Y59245500D01*
X284973606Y59414834D01*
X284973606Y59541834D01*
X284931273Y59711167D01*
X284888940Y59795834D01*
X284804273Y59880500D01*
X284677273Y59922834D01*
X284592606Y59922834D01*
X284465606Y59880500D01*
X284423273Y59838167D01*
X284042273Y59033834D02*
X284042273Y59922834D01*
X283703606Y59922834D01*
X283618940Y59880500D01*
X283576606Y59838167D01*
X283534273Y59753500D01*
X283534273Y59626500D01*
X283576606Y59541834D01*
X283618940Y59499500D01*
X283703606Y59457167D01*
X284042273Y59457167D01*
X283153273Y59922834D02*
X283153273Y59203167D01*
X283110940Y59118500D01*
X283068606Y59076167D01*
X282983940Y59033834D01*
X282814606Y59033834D01*
X282729940Y59076167D01*
X282687606Y59118500D01*
X282645273Y59203167D01*
X282645273Y59922834D01*
X281036606Y59118500D02*
X281078940Y59076167D01*
X281205940Y59033834D01*
X281290606Y59033834D01*
X281417606Y59076167D01*
X281502273Y59160834D01*
X281544606Y59245500D01*
X281586940Y59414834D01*
X281586940Y59541834D01*
X281544606Y59711167D01*
X281502273Y59795834D01*
X281417606Y59880500D01*
X281290606Y59922834D01*
X281205940Y59922834D01*
X281078940Y59880500D01*
X281036606Y59838167D01*
X280232273Y59033834D02*
X280655606Y59033834D01*
X280655606Y59922834D01*
X279766606Y59922834D02*
X279597273Y59922834D01*
X279512606Y59880500D01*
X279427940Y59795834D01*
X279385606Y59626500D01*
X279385606Y59330167D01*
X279427940Y59160834D01*
X279512606Y59076167D01*
X279597273Y59033834D01*
X279766606Y59033834D01*
X279851273Y59076167D01*
X279935940Y59160834D01*
X279978273Y59330167D01*
X279978273Y59626500D01*
X279935940Y59795834D01*
X279851273Y59880500D01*
X279766606Y59922834D01*
X278496606Y59118500D02*
X278538940Y59076167D01*
X278665940Y59033834D01*
X278750606Y59033834D01*
X278877606Y59076167D01*
X278962273Y59160834D01*
X279004606Y59245500D01*
X279046940Y59414834D01*
X279046940Y59541834D01*
X279004606Y59711167D01*
X278962273Y59795834D01*
X278877606Y59880500D01*
X278750606Y59922834D01*
X278665940Y59922834D01*
X278538940Y59880500D01*
X278496606Y59838167D01*
X278115606Y59033834D02*
X278115606Y59922834D01*
X277607606Y59033834D02*
X277988606Y59541834D01*
X277607606Y59922834D02*
X278115606Y59414834D01*
X285989606Y54969834D02*
X286497606Y54969834D01*
X286243606Y54969834D02*
X286243606Y55858834D01*
X286328273Y55731834D01*
X286412940Y55647167D01*
X286497606Y55604834D01*
X285608606Y55308500D02*
X284931273Y55308500D01*
X284550273Y55774167D02*
X284507940Y55816500D01*
X284423273Y55858834D01*
X284211606Y55858834D01*
X284126940Y55816500D01*
X284084606Y55774167D01*
X284042273Y55689500D01*
X284042273Y55604834D01*
X284084606Y55477834D01*
X284592606Y54969834D01*
X284042273Y54969834D01*
X289757273Y55858834D02*
X289757273Y55223834D01*
X289799606Y55096834D01*
X289884273Y55012167D01*
X290011273Y54969834D01*
X290095940Y54969834D01*
X289333940Y54969834D02*
X289333940Y55858834D01*
X288995273Y55858834D01*
X288910606Y55816500D01*
X288868273Y55774167D01*
X288825940Y55689500D01*
X288825940Y55562500D01*
X288868273Y55477834D01*
X288910606Y55435500D01*
X288995273Y55393167D01*
X289333940Y55393167D01*
X288063940Y55562500D02*
X288063940Y54969834D01*
X288275606Y55901167D02*
X288487273Y55266167D01*
X287936940Y55266167D01*
X280909606Y55774167D02*
X280867273Y55816500D01*
X280782606Y55858834D01*
X280570940Y55858834D01*
X280486273Y55816500D01*
X280443940Y55774167D01*
X280401606Y55689500D01*
X280401606Y55604834D01*
X280443940Y55477834D01*
X280951940Y54969834D01*
X280401606Y54969834D01*
X280020606Y55308500D02*
X279343273Y55308500D01*
X279004606Y55858834D02*
X278454273Y55858834D01*
X278750606Y55520167D01*
X278623606Y55520167D01*
X278538940Y55477834D01*
X278496606Y55435500D01*
X278454273Y55350834D01*
X278454273Y55139167D01*
X278496606Y55054500D01*
X278538940Y55012167D01*
X278623606Y54969834D01*
X278877606Y54969834D01*
X278962273Y55012167D01*
X279004606Y55054500D01*
X290830000Y62484000D02*
X276098000Y62484000D01*
X285989606Y63097834D02*
X286497606Y63097834D01*
X286243606Y63097834D02*
X286243606Y63986834D01*
X286328273Y63859834D01*
X286412940Y63775167D01*
X286497606Y63732834D01*
X285227606Y63690500D02*
X285227606Y63097834D01*
X285439273Y64029167D02*
X285650940Y63394167D01*
X285100606Y63394167D01*
X284761940Y63182500D02*
X284719606Y63140167D01*
X284761940Y63097834D01*
X284804273Y63140167D01*
X284761940Y63182500D01*
X284761940Y63097834D01*
X284423273Y63986834D02*
X283872940Y63986834D01*
X284169273Y63648167D01*
X284042273Y63648167D01*
X283957606Y63605834D01*
X283915273Y63563500D01*
X283872940Y63478834D01*
X283872940Y63267167D01*
X283915273Y63182500D01*
X283957606Y63140167D01*
X284042273Y63097834D01*
X284296273Y63097834D01*
X284380940Y63140167D01*
X284423273Y63182500D01*
X283026273Y63097834D02*
X283534273Y63097834D01*
X283280273Y63097834D02*
X283280273Y63986834D01*
X283364940Y63859834D01*
X283449606Y63775167D01*
X283534273Y63732834D01*
X282518273Y63605834D02*
X282602940Y63648167D01*
X282645273Y63690500D01*
X282687606Y63775167D01*
X282687606Y63817500D01*
X282645273Y63902167D01*
X282602940Y63944500D01*
X282518273Y63986834D01*
X282348940Y63986834D01*
X282264273Y63944500D01*
X282221940Y63902167D01*
X282179606Y63817500D01*
X282179606Y63775167D01*
X282221940Y63690500D01*
X282264273Y63648167D01*
X282348940Y63605834D01*
X282518273Y63605834D01*
X282602940Y63563500D01*
X282645273Y63521167D01*
X282687606Y63436500D01*
X282687606Y63267167D01*
X282645273Y63182500D01*
X282602940Y63140167D01*
X282518273Y63097834D01*
X282348940Y63097834D01*
X282264273Y63140167D01*
X282221940Y63182500D01*
X282179606Y63267167D01*
X282179606Y63436500D01*
X282221940Y63521167D01*
X282264273Y63563500D01*
X282348940Y63605834D01*
X280401606Y63097834D02*
X280909606Y63097834D01*
X280655606Y63097834D02*
X280655606Y63986834D01*
X280740273Y63859834D01*
X280824940Y63775167D01*
X280909606Y63732834D01*
X280105273Y63986834D02*
X279512606Y63986834D01*
X279893606Y63097834D01*
X279173940Y63182500D02*
X279131606Y63140167D01*
X279173940Y63097834D01*
X279216273Y63140167D01*
X279173940Y63182500D01*
X279173940Y63097834D01*
X278835273Y63986834D02*
X278242606Y63986834D01*
X278623606Y63097834D01*
X277988606Y63986834D02*
X277438273Y63986834D01*
X277734606Y63648167D01*
X277607606Y63648167D01*
X277522940Y63605834D01*
X277480606Y63563500D01*
X277438273Y63478834D01*
X277438273Y63267167D01*
X277480606Y63182500D01*
X277522940Y63140167D01*
X277607606Y63097834D01*
X277861606Y63097834D01*
X277946273Y63140167D01*
X277988606Y63182500D01*
X276676273Y63690500D02*
X276676273Y63097834D01*
X276887940Y64029167D02*
X277099606Y63394167D01*
X276549273Y63394167D01*
X289841940Y63521167D02*
X289841940Y63097834D01*
X290138273Y63986834D02*
X289841940Y63521167D01*
X289545606Y63986834D01*
X288783606Y63097834D02*
X289291606Y63097834D01*
X289037606Y63097834D02*
X289037606Y63986834D01*
X289122273Y63859834D01*
X289206940Y63775167D01*
X289291606Y63732834D01*
X290830000Y62484000D02*
X290830000Y74676000D01*
X287274000Y74676000D02*
X287274000Y62484000D01*
X281686000Y72644000D02*
X281686000Y62484000D01*
X276098000Y74676000D02*
X276098000Y62484000D01*
X276098000Y74676000D02*
X290830000Y74676000D01*
X290830000Y64516000D02*
X276098000Y64516000D01*
X290830000Y66548000D02*
X276098000Y66548000D01*
X276098000Y68580000D02*
X290830000Y68580000D01*
X276098000Y72644000D02*
X287274000Y72644000D01*
X290830000Y70612000D02*
X276098000Y70612000D01*
X280909606Y65934167D02*
X280867273Y65976500D01*
X280782606Y66018834D01*
X280570940Y66018834D01*
X280486273Y65976500D01*
X280443940Y65934167D01*
X280401606Y65849500D01*
X280401606Y65764834D01*
X280443940Y65637834D01*
X280951940Y65129834D01*
X280401606Y65129834D01*
X280020606Y65468500D02*
X279343273Y65468500D01*
X279004606Y66018834D02*
X278454273Y66018834D01*
X278750606Y65680167D01*
X278623606Y65680167D01*
X278538940Y65637834D01*
X278496606Y65595500D01*
X278454273Y65510834D01*
X278454273Y65299167D01*
X278496606Y65214500D01*
X278538940Y65172167D01*
X278623606Y65129834D01*
X278877606Y65129834D01*
X278962273Y65172167D01*
X279004606Y65214500D01*
X285989606Y65129834D02*
X286497606Y65129834D01*
X286243606Y65129834D02*
X286243606Y66018834D01*
X286328273Y65891834D01*
X286412940Y65807167D01*
X286497606Y65764834D01*
X285608606Y65468500D02*
X284931273Y65468500D01*
X284550273Y65934167D02*
X284507940Y65976500D01*
X284423273Y66018834D01*
X284211606Y66018834D01*
X284126940Y65976500D01*
X284084606Y65934167D01*
X284042273Y65849500D01*
X284042273Y65764834D01*
X284084606Y65637834D01*
X284592606Y65129834D01*
X284042273Y65129834D01*
X289757273Y66018834D02*
X289757273Y65383834D01*
X289799606Y65256834D01*
X289884273Y65172167D01*
X290011273Y65129834D01*
X290095940Y65129834D01*
X289333940Y65129834D02*
X289333940Y66018834D01*
X288995273Y66018834D01*
X288910606Y65976500D01*
X288868273Y65934167D01*
X288825940Y65849500D01*
X288825940Y65722500D01*
X288868273Y65637834D01*
X288910606Y65595500D01*
X288995273Y65553167D01*
X289333940Y65553167D01*
X288529606Y66018834D02*
X287979273Y66018834D01*
X288275606Y65680167D01*
X288148606Y65680167D01*
X288063940Y65637834D01*
X288021606Y65595500D01*
X287979273Y65510834D01*
X287979273Y65299167D01*
X288021606Y65214500D01*
X288063940Y65172167D01*
X288148606Y65129834D01*
X288402606Y65129834D01*
X288487273Y65172167D01*
X288529606Y65214500D01*
X285989606Y67161834D02*
X286497606Y67161834D01*
X286243606Y67161834D02*
X286243606Y68050834D01*
X286328273Y67923834D01*
X286412940Y67839167D01*
X286497606Y67796834D01*
X285608606Y67500500D02*
X284931273Y67500500D01*
X284550273Y67966167D02*
X284507940Y68008500D01*
X284423273Y68050834D01*
X284211606Y68050834D01*
X284126940Y68008500D01*
X284084606Y67966167D01*
X284042273Y67881500D01*
X284042273Y67796834D01*
X284084606Y67669834D01*
X284592606Y67161834D01*
X284042273Y67161834D01*
X289757273Y68050834D02*
X289757273Y67415834D01*
X289799606Y67288834D01*
X289884273Y67204167D01*
X290011273Y67161834D01*
X290095940Y67161834D01*
X289333940Y67161834D02*
X289333940Y68050834D01*
X288995273Y68050834D01*
X288910606Y68008500D01*
X288868273Y67966167D01*
X288825940Y67881500D01*
X288825940Y67754500D01*
X288868273Y67669834D01*
X288910606Y67627500D01*
X288995273Y67585167D01*
X289333940Y67585167D01*
X288487273Y67966167D02*
X288444940Y68008500D01*
X288360273Y68050834D01*
X288148606Y68050834D01*
X288063940Y68008500D01*
X288021606Y67966167D01*
X287979273Y67881500D01*
X287979273Y67796834D01*
X288021606Y67669834D01*
X288529606Y67161834D01*
X287979273Y67161834D01*
X280909606Y67966167D02*
X280867273Y68008500D01*
X280782606Y68050834D01*
X280570940Y68050834D01*
X280486273Y68008500D01*
X280443940Y67966167D01*
X280401606Y67881500D01*
X280401606Y67796834D01*
X280443940Y67669834D01*
X280951940Y67161834D01*
X280401606Y67161834D01*
X280020606Y67500500D02*
X279343273Y67500500D01*
X279004606Y68050834D02*
X278454273Y68050834D01*
X278750606Y67712167D01*
X278623606Y67712167D01*
X278538940Y67669834D01*
X278496606Y67627500D01*
X278454273Y67542834D01*
X278454273Y67331167D01*
X278496606Y67246500D01*
X278538940Y67204167D01*
X278623606Y67161834D01*
X278877606Y67161834D01*
X278962273Y67204167D01*
X279004606Y67246500D01*
X280909606Y69998167D02*
X280867273Y70040500D01*
X280782606Y70082834D01*
X280570940Y70082834D01*
X280486273Y70040500D01*
X280443940Y69998167D01*
X280401606Y69913500D01*
X280401606Y69828834D01*
X280443940Y69701834D01*
X280951940Y69193834D01*
X280401606Y69193834D01*
X280020606Y69532500D02*
X279343273Y69532500D01*
X279004606Y70082834D02*
X278454273Y70082834D01*
X278750606Y69744167D01*
X278623606Y69744167D01*
X278538940Y69701834D01*
X278496606Y69659500D01*
X278454273Y69574834D01*
X278454273Y69363167D01*
X278496606Y69278500D01*
X278538940Y69236167D01*
X278623606Y69193834D01*
X278877606Y69193834D01*
X278962273Y69236167D01*
X279004606Y69278500D01*
X285989606Y69193834D02*
X286497606Y69193834D01*
X286243606Y69193834D02*
X286243606Y70082834D01*
X286328273Y69955834D01*
X286412940Y69871167D01*
X286497606Y69828834D01*
X285608606Y69532500D02*
X284931273Y69532500D01*
X284550273Y69998167D02*
X284507940Y70040500D01*
X284423273Y70082834D01*
X284211606Y70082834D01*
X284126940Y70040500D01*
X284084606Y69998167D01*
X284042273Y69913500D01*
X284042273Y69828834D01*
X284084606Y69701834D01*
X284592606Y69193834D01*
X284042273Y69193834D01*
X289757273Y70082834D02*
X289757273Y69447834D01*
X289799606Y69320834D01*
X289884273Y69236167D01*
X290011273Y69193834D01*
X290095940Y69193834D01*
X289333940Y69193834D02*
X289333940Y70082834D01*
X288995273Y70082834D01*
X288910606Y70040500D01*
X288868273Y69998167D01*
X288825940Y69913500D01*
X288825940Y69786500D01*
X288868273Y69701834D01*
X288910606Y69659500D01*
X288995273Y69617167D01*
X289333940Y69617167D01*
X287979273Y69193834D02*
X288487273Y69193834D01*
X288233273Y69193834D02*
X288233273Y70082834D01*
X288317940Y69955834D01*
X288402606Y69871167D01*
X288487273Y69828834D01*
X283407273Y73257834D02*
X283407273Y74146834D01*
X283110940Y73511834D01*
X282814606Y74146834D01*
X282814606Y73257834D01*
X282221940Y74146834D02*
X282052606Y74146834D01*
X281967940Y74104500D01*
X281883273Y74019834D01*
X281840940Y73850500D01*
X281840940Y73554167D01*
X281883273Y73384834D01*
X281967940Y73300167D01*
X282052606Y73257834D01*
X282221940Y73257834D01*
X282306606Y73300167D01*
X282391273Y73384834D01*
X282433606Y73554167D01*
X282433606Y73850500D01*
X282391273Y74019834D01*
X282306606Y74104500D01*
X282221940Y74146834D01*
X281459940Y73257834D02*
X281459940Y74146834D01*
X281248273Y74146834D01*
X281121273Y74104500D01*
X281036606Y74019834D01*
X280994273Y73935167D01*
X280951940Y73765834D01*
X280951940Y73638834D01*
X280994273Y73469500D01*
X281036606Y73384834D01*
X281121273Y73300167D01*
X281248273Y73257834D01*
X281459940Y73257834D01*
X280570940Y73723500D02*
X280274606Y73723500D01*
X280147606Y73257834D02*
X280570940Y73257834D01*
X280570940Y74146834D01*
X280147606Y74146834D01*
X280867273Y71225834D02*
X280867273Y72114834D01*
X280528606Y72114834D01*
X280443940Y72072500D01*
X280401606Y72030167D01*
X280359273Y71945500D01*
X280359273Y71818500D01*
X280401606Y71733834D01*
X280443940Y71691500D01*
X280528606Y71649167D01*
X280867273Y71649167D01*
X280020606Y71479834D02*
X279597273Y71479834D01*
X280105273Y71225834D02*
X279808940Y72114834D01*
X279512606Y71225834D01*
X278792940Y71225834D02*
X279216273Y71225834D01*
X279216273Y72114834D01*
X286455273Y71225834D02*
X286455273Y72114834D01*
X285947273Y71225834D01*
X285947273Y72114834D01*
X285650940Y72114834D02*
X285142940Y72114834D01*
X285396940Y71225834D02*
X285396940Y72114834D01*
X284888940Y71268167D02*
X284761940Y71225834D01*
X284550273Y71225834D01*
X284465606Y71268167D01*
X284423273Y71310500D01*
X284380940Y71395167D01*
X284380940Y71479834D01*
X284423273Y71564500D01*
X284465606Y71606834D01*
X284550273Y71649167D01*
X284719606Y71691500D01*
X284804273Y71733834D01*
X284846606Y71776167D01*
X284888940Y71860834D01*
X284888940Y71945500D01*
X284846606Y72030167D01*
X284804273Y72072500D01*
X284719606Y72114834D01*
X284507940Y72114834D01*
X284380940Y72072500D01*
X283491940Y71310500D02*
X283534273Y71268167D01*
X283661273Y71225834D01*
X283745940Y71225834D01*
X283872940Y71268167D01*
X283957606Y71352834D01*
X283999940Y71437500D01*
X284042273Y71606834D01*
X284042273Y71733834D01*
X283999940Y71903167D01*
X283957606Y71987834D01*
X283872940Y72072500D01*
X283745940Y72114834D01*
X283661273Y72114834D01*
X283534273Y72072500D01*
X283491940Y72030167D01*
X292797774Y98600381D02*
X292797774Y99616381D01*
X292459107Y98890667D01*
X292120440Y99616381D01*
X292120440Y98600381D01*
X291685012Y98890667D02*
X291201202Y98890667D01*
X291781774Y98600381D02*
X291443107Y99616381D01*
X291104440Y98600381D01*
X290572250Y99616381D02*
X290475488Y99616381D01*
X290378726Y99568000D01*
X290330345Y99519620D01*
X290281964Y99422858D01*
X290233583Y99229334D01*
X290233583Y98987429D01*
X290281964Y98793905D01*
X290330345Y98697143D01*
X290378726Y98648762D01*
X290475488Y98600381D01*
X290572250Y98600381D01*
X290669012Y98648762D01*
X290717393Y98697143D01*
X290765774Y98793905D01*
X290814155Y98987429D01*
X290814155Y99229334D01*
X290765774Y99422858D01*
X290717393Y99519620D01*
X290669012Y99568000D01*
X290572250Y99616381D01*
X284774035Y98600381D02*
X284774035Y99616381D01*
X284435368Y98890667D01*
X284096701Y99616381D01*
X284096701Y98600381D01*
X283661273Y98890667D02*
X283177463Y98890667D01*
X283758035Y98600381D02*
X283419368Y99616381D01*
X283080701Y98600381D01*
X282209844Y98600381D02*
X282790416Y98600381D01*
X282500130Y98600381D02*
X282500130Y99616381D01*
X282596892Y99471239D01*
X282693654Y99374477D01*
X282790416Y99326096D01*
X294408298Y102529640D02*
X293608298Y102529640D01*
X293760679Y101140381D02*
X294027345Y101624191D01*
X294217821Y101140381D02*
X294217821Y102156381D01*
X293913060Y102156381D01*
X293836869Y102108000D01*
X293798774Y102059620D01*
X293760679Y101962858D01*
X293760679Y101817715D01*
X293798774Y101720953D01*
X293836869Y101672572D01*
X293913060Y101624191D01*
X294217821Y101624191D01*
X293608298Y102529640D02*
X292770202Y102529640D01*
X293265440Y102156381D02*
X293113060Y102156381D01*
X293036869Y102108000D01*
X292960679Y102011239D01*
X292922583Y101817715D01*
X292922583Y101479048D01*
X292960679Y101285524D01*
X293036869Y101188762D01*
X293113060Y101140381D01*
X293265440Y101140381D01*
X293341631Y101188762D01*
X293417821Y101285524D01*
X293455917Y101479048D01*
X293455917Y101817715D01*
X293417821Y102011239D01*
X293341631Y102108000D01*
X293265440Y102156381D01*
X292770202Y102529640D02*
X291855917Y102529640D01*
X292579726Y101140381D02*
X292579726Y102156381D01*
X292313060Y101430667D01*
X292046393Y102156381D01*
X292046393Y101140381D01*
X291855917Y102529640D02*
X291055917Y102529640D01*
X291665440Y101140381D02*
X291665440Y102156381D01*
X291474964Y102156381D01*
X291360679Y102108000D01*
X291284488Y102011239D01*
X291246393Y101914477D01*
X291208298Y101720953D01*
X291208298Y101575810D01*
X291246393Y101382286D01*
X291284488Y101285524D01*
X291360679Y101188762D01*
X291474964Y101140381D01*
X291665440Y101140381D01*
X291055917Y102529640D02*
X290674964Y102529640D01*
X290865440Y101140381D02*
X290865440Y102156381D01*
X290674964Y102529640D02*
X289913060Y102529640D01*
X290522583Y101188762D02*
X290408298Y101140381D01*
X290217821Y101140381D01*
X290141631Y101188762D01*
X290103536Y101237143D01*
X290065440Y101333905D01*
X290065440Y101430667D01*
X290103536Y101527429D01*
X290141631Y101575810D01*
X290217821Y101624191D01*
X290370202Y101672572D01*
X290446393Y101720953D01*
X290484488Y101769334D01*
X290522583Y101866096D01*
X290522583Y101962858D01*
X290484488Y102059620D01*
X290446393Y102108000D01*
X290370202Y102156381D01*
X290179726Y102156381D01*
X290065440Y102108000D01*
X284774035Y101140381D02*
X284774035Y102156381D01*
X284435368Y101430667D01*
X284096701Y102156381D01*
X284096701Y101140381D01*
X283661273Y101430667D02*
X283177463Y101430667D01*
X283758035Y101140381D02*
X283419368Y102156381D01*
X283080701Y101140381D01*
X282790416Y102059620D02*
X282742035Y102108000D01*
X282645273Y102156381D01*
X282403368Y102156381D01*
X282306606Y102108000D01*
X282258225Y102059620D01*
X282209844Y101962858D01*
X282209844Y101866096D01*
X282258225Y101720953D01*
X282838797Y101140381D01*
X282209844Y101140381D01*
X284774035Y103680381D02*
X284774035Y104696381D01*
X284435368Y103970667D01*
X284096701Y104696381D01*
X284096701Y103680381D01*
X283661273Y103970667D02*
X283177463Y103970667D01*
X283758035Y103680381D02*
X283419368Y104696381D01*
X283080701Y103680381D01*
X282306606Y104357715D02*
X282306606Y103680381D01*
X282548511Y104744762D02*
X282790416Y104019048D01*
X282161463Y104019048D01*
X292797774Y103680381D02*
X292797774Y104696381D01*
X292459107Y103970667D01*
X292120440Y104696381D01*
X292120440Y103680381D01*
X291685012Y103970667D02*
X291201202Y103970667D01*
X291781774Y103680381D02*
X291443107Y104696381D01*
X291104440Y103680381D01*
X290862536Y104696381D02*
X290233583Y104696381D01*
X290572250Y104309334D01*
X290427107Y104309334D01*
X290330345Y104260953D01*
X290281964Y104212572D01*
X290233583Y104115810D01*
X290233583Y103873905D01*
X290281964Y103777143D01*
X290330345Y103728762D01*
X290427107Y103680381D01*
X290717393Y103680381D01*
X290814155Y103728762D01*
X290862536Y103777143D01*
X284774035Y106220381D02*
X284774035Y107236381D01*
X284435368Y106510667D01*
X284096701Y107236381D01*
X284096701Y106220381D01*
X283661273Y106510667D02*
X283177463Y106510667D01*
X283758035Y106220381D02*
X283419368Y107236381D01*
X283080701Y106220381D01*
X282258225Y107236381D02*
X282742035Y107236381D01*
X282790416Y106752572D01*
X282742035Y106800953D01*
X282645273Y106849334D01*
X282403368Y106849334D01*
X282306606Y106800953D01*
X282258225Y106752572D01*
X282209844Y106655810D01*
X282209844Y106413905D01*
X282258225Y106317143D01*
X282306606Y106268762D01*
X282403368Y106220381D01*
X282645273Y106220381D01*
X282742035Y106268762D01*
X282790416Y106317143D01*
X292797774Y106220381D02*
X292797774Y107236381D01*
X292459107Y106510667D01*
X292120440Y107236381D01*
X292120440Y106220381D01*
X291685012Y106510667D02*
X291201202Y106510667D01*
X291781774Y106220381D02*
X291443107Y107236381D01*
X291104440Y106220381D01*
X290330345Y107236381D02*
X290523869Y107236381D01*
X290620631Y107188000D01*
X290669012Y107139620D01*
X290765774Y106994477D01*
X290814155Y106800953D01*
X290814155Y106413905D01*
X290765774Y106317143D01*
X290717393Y106268762D01*
X290620631Y106220381D01*
X290427107Y106220381D01*
X290330345Y106268762D01*
X290281964Y106317143D01*
X290233583Y106413905D01*
X290233583Y106655810D01*
X290281964Y106752572D01*
X290330345Y106800953D01*
X290427107Y106849334D01*
X290620631Y106849334D01*
X290717393Y106800953D01*
X290765774Y106752572D01*
X290814155Y106655810D01*
X294007298Y110149640D02*
X292846155Y110149640D01*
X293765393Y108760381D02*
X293765393Y109776381D01*
X293426726Y109050667D01*
X293088060Y109776381D01*
X293088060Y108760381D01*
X292846155Y110149640D02*
X291975298Y110149640D01*
X292652631Y109050667D02*
X292168821Y109050667D01*
X292749393Y108760381D02*
X292410726Y109776381D01*
X292072060Y108760381D01*
X291975298Y110149640D02*
X291007679Y110149640D01*
X291201202Y108760381D02*
X291781774Y108760381D01*
X291491488Y108760381D02*
X291491488Y109776381D01*
X291588250Y109631239D01*
X291685012Y109534477D01*
X291781774Y109486096D01*
X291007679Y110149640D02*
X290040060Y110149640D01*
X290330345Y109437715D02*
X290330345Y108760381D01*
X290572250Y109824762D02*
X290814155Y109099048D01*
X290185202Y109099048D01*
X285015940Y112689640D02*
X283854797Y112689640D01*
X284774035Y111300381D02*
X284774035Y112316381D01*
X284435368Y111590667D01*
X284096701Y112316381D01*
X284096701Y111300381D01*
X283854797Y112689640D02*
X282693654Y112689640D01*
X283709654Y112316381D02*
X283467749Y111300381D01*
X283274225Y112026096D01*
X283080701Y111300381D01*
X282838797Y112316381D01*
X282693654Y112689640D02*
X281677654Y112689640D01*
X281871178Y111300381D02*
X282209844Y111784191D01*
X282451749Y111300381D02*
X282451749Y112316381D01*
X282064701Y112316381D01*
X281967940Y112268000D01*
X281919559Y112219620D01*
X281871178Y112122858D01*
X281871178Y111977715D01*
X281919559Y111880953D01*
X281967940Y111832572D01*
X282064701Y111784191D01*
X282451749Y111784191D01*
X293765393Y111300381D02*
X293765393Y112316381D01*
X293426726Y111590667D01*
X293088060Y112316381D01*
X293088060Y111300381D01*
X292652631Y111590667D02*
X292168821Y111590667D01*
X292749393Y111300381D02*
X292410726Y112316381D01*
X292072060Y111300381D01*
X291201202Y111300381D02*
X291781774Y111300381D01*
X291491488Y111300381D02*
X291491488Y112316381D01*
X291588250Y112171239D01*
X291685012Y112074477D01*
X291781774Y112026096D01*
X290330345Y111977715D02*
X290330345Y111300381D01*
X290572250Y112364762D02*
X290814155Y111639048D01*
X290185202Y111639048D01*
X284919178Y114856381D02*
X284338606Y114856381D01*
X284628892Y113840381D02*
X284628892Y114856381D01*
X283999940Y113840381D02*
X283999940Y114856381D01*
X283612892Y114856381D01*
X283516130Y114808000D01*
X283467749Y114759620D01*
X283419368Y114662858D01*
X283419368Y114517715D01*
X283467749Y114420953D01*
X283516130Y114372572D01*
X283612892Y114324191D01*
X283999940Y114324191D01*
X282645273Y114372572D02*
X282500130Y114324191D01*
X282451749Y114275810D01*
X282403368Y114179048D01*
X282403368Y114033905D01*
X282451749Y113937143D01*
X282500130Y113888762D01*
X282596892Y113840381D01*
X282983940Y113840381D01*
X282983940Y114856381D01*
X282645273Y114856381D01*
X282548511Y114808000D01*
X282500130Y114759620D01*
X282451749Y114662858D01*
X282451749Y114566096D01*
X282500130Y114469334D01*
X282548511Y114420953D01*
X282645273Y114372572D01*
X282983940Y114372572D01*
X294007298Y115229640D02*
X292846155Y115229640D01*
X293765393Y113840381D02*
X293765393Y114856381D01*
X293426726Y114130667D01*
X293088060Y114856381D01*
X293088060Y113840381D01*
X292846155Y115229640D02*
X291975298Y115229640D01*
X292652631Y114130667D02*
X292168821Y114130667D01*
X292749393Y113840381D02*
X292410726Y114856381D01*
X292072060Y113840381D01*
X291975298Y115229640D02*
X291007679Y115229640D01*
X291201202Y113840381D02*
X291781774Y113840381D01*
X291491488Y113840381D02*
X291491488Y114856381D01*
X291588250Y114711239D01*
X291685012Y114614477D01*
X291781774Y114566096D01*
X291007679Y115229640D02*
X290040060Y115229640D01*
X290281964Y114856381D02*
X290765774Y114856381D01*
X290814155Y114372572D01*
X290765774Y114420953D01*
X290669012Y114469334D01*
X290427107Y114469334D01*
X290330345Y114420953D01*
X290281964Y114372572D01*
X290233583Y114275810D01*
X290233583Y114033905D01*
X290281964Y113937143D01*
X290330345Y113888762D01*
X290427107Y113840381D01*
X290669012Y113840381D01*
X290765774Y113888762D01*
X290814155Y113937143D01*
X281686000Y125730000D02*
X285750000Y123444000D01*
X285750000Y125730000D02*
X281686000Y123444000D01*
X289941000Y118110000D02*
X294005000Y115824000D01*
X294005000Y118110000D02*
X289941000Y115824000D01*
X284822416Y116428762D02*
X284677273Y116380381D01*
X284435368Y116380381D01*
X284338606Y116428762D01*
X284290225Y116477143D01*
X284241844Y116573905D01*
X284241844Y116670667D01*
X284290225Y116767429D01*
X284338606Y116815810D01*
X284435368Y116864191D01*
X284628892Y116912572D01*
X284725654Y116960953D01*
X284774035Y117009334D01*
X284822416Y117106096D01*
X284822416Y117202858D01*
X284774035Y117299620D01*
X284725654Y117348000D01*
X284628892Y117396381D01*
X284386987Y117396381D01*
X284241844Y117348000D01*
X283225844Y116477143D02*
X283274225Y116428762D01*
X283419368Y116380381D01*
X283516130Y116380381D01*
X283661273Y116428762D01*
X283758035Y116525524D01*
X283806416Y116622286D01*
X283854797Y116815810D01*
X283854797Y116960953D01*
X283806416Y117154477D01*
X283758035Y117251239D01*
X283661273Y117348000D01*
X283516130Y117396381D01*
X283419368Y117396381D01*
X283274225Y117348000D01*
X283225844Y117299620D01*
X282258225Y116380381D02*
X282838797Y116380381D01*
X282548511Y116380381D02*
X282548511Y117396381D01*
X282645273Y117251239D01*
X282742035Y117154477D01*
X282838797Y117106096D01*
X293862155Y117769640D02*
X292846155Y117769640D01*
X293039679Y116477143D02*
X293088060Y116428762D01*
X293233202Y116380381D01*
X293329964Y116380381D01*
X293475107Y116428762D01*
X293571869Y116525524D01*
X293620250Y116622286D01*
X293668631Y116815810D01*
X293668631Y116960953D01*
X293620250Y117154477D01*
X293571869Y117251239D01*
X293475107Y117348000D01*
X293329964Y117396381D01*
X293233202Y117396381D01*
X293088060Y117348000D01*
X293039679Y117299620D01*
X292846155Y117769640D02*
X291975298Y117769640D01*
X292652631Y116670667D02*
X292168821Y116670667D01*
X292749393Y116380381D02*
X292410726Y117396381D01*
X292072060Y116380381D01*
X291975298Y117769640D02*
X291007679Y117769640D01*
X291781774Y116428762D02*
X291636631Y116380381D01*
X291394726Y116380381D01*
X291297964Y116428762D01*
X291249583Y116477143D01*
X291201202Y116573905D01*
X291201202Y116670667D01*
X291249583Y116767429D01*
X291297964Y116815810D01*
X291394726Y116864191D01*
X291588250Y116912572D01*
X291685012Y116960953D01*
X291733393Y117009334D01*
X291781774Y117106096D01*
X291781774Y117202858D01*
X291733393Y117299620D01*
X291685012Y117348000D01*
X291588250Y117396381D01*
X291346345Y117396381D01*
X291201202Y117348000D01*
X291007679Y117769640D02*
X290040060Y117769640D01*
X290814155Y117299620D02*
X290765774Y117348000D01*
X290669012Y117396381D01*
X290427107Y117396381D01*
X290330345Y117348000D01*
X290281964Y117299620D01*
X290233583Y117202858D01*
X290233583Y117106096D01*
X290281964Y116960953D01*
X290862536Y116380381D01*
X290233583Y116380381D01*
X284822416Y118968762D02*
X284677273Y118920381D01*
X284435368Y118920381D01*
X284338606Y118968762D01*
X284290225Y119017143D01*
X284241844Y119113905D01*
X284241844Y119210667D01*
X284290225Y119307429D01*
X284338606Y119355810D01*
X284435368Y119404191D01*
X284628892Y119452572D01*
X284725654Y119500953D01*
X284774035Y119549334D01*
X284822416Y119646096D01*
X284822416Y119742858D01*
X284774035Y119839620D01*
X284725654Y119888000D01*
X284628892Y119936381D01*
X284386987Y119936381D01*
X284241844Y119888000D01*
X283225844Y119017143D02*
X283274225Y118968762D01*
X283419368Y118920381D01*
X283516130Y118920381D01*
X283661273Y118968762D01*
X283758035Y119065524D01*
X283806416Y119162286D01*
X283854797Y119355810D01*
X283854797Y119500953D01*
X283806416Y119694477D01*
X283758035Y119791239D01*
X283661273Y119888000D01*
X283516130Y119936381D01*
X283419368Y119936381D01*
X283274225Y119888000D01*
X283225844Y119839620D01*
X282258225Y118920381D02*
X282838797Y118920381D01*
X282548511Y118920381D02*
X282548511Y119936381D01*
X282645273Y119791239D01*
X282742035Y119694477D01*
X282838797Y119646096D01*
X292797774Y118968762D02*
X292652631Y118920381D01*
X292410726Y118920381D01*
X292313964Y118968762D01*
X292265583Y119017143D01*
X292217202Y119113905D01*
X292217202Y119210667D01*
X292265583Y119307429D01*
X292313964Y119355810D01*
X292410726Y119404191D01*
X292604250Y119452572D01*
X292701012Y119500953D01*
X292749393Y119549334D01*
X292797774Y119646096D01*
X292797774Y119742858D01*
X292749393Y119839620D01*
X292701012Y119888000D01*
X292604250Y119936381D01*
X292362345Y119936381D01*
X292217202Y119888000D01*
X291201202Y119017143D02*
X291249583Y118968762D01*
X291394726Y118920381D01*
X291491488Y118920381D01*
X291636631Y118968762D01*
X291733393Y119065524D01*
X291781774Y119162286D01*
X291830155Y119355810D01*
X291830155Y119500953D01*
X291781774Y119694477D01*
X291733393Y119791239D01*
X291636631Y119888000D01*
X291491488Y119936381D01*
X291394726Y119936381D01*
X291249583Y119888000D01*
X291201202Y119839620D01*
X290572250Y119936381D02*
X290475488Y119936381D01*
X290378726Y119888000D01*
X290330345Y119839620D01*
X290281964Y119742858D01*
X290233583Y119549334D01*
X290233583Y119307429D01*
X290281964Y119113905D01*
X290330345Y119017143D01*
X290378726Y118968762D01*
X290475488Y118920381D01*
X290572250Y118920381D01*
X290669012Y118968762D01*
X290717393Y119017143D01*
X290765774Y119113905D01*
X290814155Y119307429D01*
X290814155Y119549334D01*
X290765774Y119742858D01*
X290717393Y119839620D01*
X290669012Y119888000D01*
X290572250Y119936381D01*
X285015940Y122595640D02*
X283854797Y122595640D01*
X284870797Y122222381D02*
X284628892Y121206381D01*
X284435368Y121932096D01*
X284241844Y121206381D01*
X283999940Y122222381D01*
X283854797Y122595640D02*
X282983940Y122595640D01*
X283661273Y121496667D02*
X283177463Y121496667D01*
X283758035Y121206381D02*
X283419368Y122222381D01*
X283080701Y121206381D01*
X282983940Y122595640D02*
X282500130Y122595640D01*
X282742035Y121206381D02*
X282742035Y122222381D01*
X282500130Y122595640D02*
X281726035Y122595640D01*
X282403368Y122222381D02*
X281822797Y122222381D01*
X282113082Y121206381D02*
X282113082Y122222381D01*
X293885298Y121303143D02*
X293930536Y121254762D01*
X294066250Y121206381D01*
X294156726Y121206381D01*
X294292440Y121254762D01*
X294382917Y121351524D01*
X294428155Y121448286D01*
X294473393Y121641810D01*
X294473393Y121786953D01*
X294428155Y121980477D01*
X294382917Y122077239D01*
X294292440Y122174000D01*
X294156726Y122222381D01*
X294066250Y122222381D01*
X293930536Y122174000D01*
X293885298Y122125620D01*
X293025774Y121206381D02*
X293478155Y121206381D01*
X293478155Y122222381D01*
X292528155Y122222381D02*
X292347202Y122222381D01*
X292256726Y122174000D01*
X292166250Y122077239D01*
X292121012Y121883715D01*
X292121012Y121545048D01*
X292166250Y121351524D01*
X292256726Y121254762D01*
X292347202Y121206381D01*
X292528155Y121206381D01*
X292618631Y121254762D01*
X292709107Y121351524D01*
X292754345Y121545048D01*
X292754345Y121883715D01*
X292709107Y122077239D01*
X292618631Y122174000D01*
X292528155Y122222381D01*
X291171012Y121303143D02*
X291216250Y121254762D01*
X291351964Y121206381D01*
X291442440Y121206381D01*
X291578155Y121254762D01*
X291668631Y121351524D01*
X291713869Y121448286D01*
X291759107Y121641810D01*
X291759107Y121786953D01*
X291713869Y121980477D01*
X291668631Y122077239D01*
X291578155Y122174000D01*
X291442440Y122222381D01*
X291351964Y122222381D01*
X291216250Y122174000D01*
X291171012Y122125620D01*
X290763869Y121206381D02*
X290763869Y122222381D01*
X290221012Y121206381D02*
X290628155Y121786953D01*
X290221012Y122222381D02*
X290763869Y121641810D01*
X292362345Y125389640D02*
X291878536Y125389640D01*
X292120440Y124000381D02*
X292120440Y125016381D01*
X291878536Y125389640D02*
X290814155Y125389640D01*
X291636631Y124000381D02*
X291636631Y125016381D01*
X291056060Y124000381D01*
X291056060Y125016381D01*
X290814155Y125389640D02*
X290040060Y125389640D01*
X290717393Y125016381D02*
X290136821Y125016381D01*
X290427107Y124000381D02*
X290427107Y125016381D01*
X285015940Y125389640D02*
X283999940Y125389640D01*
X284193463Y124000381D02*
X284532130Y124484191D01*
X284774035Y124000381D02*
X284774035Y125016381D01*
X284386987Y125016381D01*
X284290225Y124968000D01*
X284241844Y124919620D01*
X284193463Y124822858D01*
X284193463Y124677715D01*
X284241844Y124580953D01*
X284290225Y124532572D01*
X284386987Y124484191D01*
X284774035Y124484191D01*
X283999940Y125389640D02*
X283129082Y125389640D01*
X283806416Y124290667D02*
X283322606Y124290667D01*
X283903178Y124000381D02*
X283564511Y125016381D01*
X283225844Y124000381D01*
X283129082Y125389640D02*
X282161463Y125389640D01*
X282935559Y124048762D02*
X282790416Y124000381D01*
X282548511Y124000381D01*
X282451749Y124048762D01*
X282403368Y124097143D01*
X282354987Y124193905D01*
X282354987Y124290667D01*
X282403368Y124387429D01*
X282451749Y124435810D01*
X282548511Y124484191D01*
X282742035Y124532572D01*
X282838797Y124580953D01*
X282887178Y124629334D01*
X282935559Y124726096D01*
X282935559Y124822858D01*
X282887178Y124919620D01*
X282838797Y124968000D01*
X282742035Y125016381D01*
X282500130Y125016381D01*
X282354987Y124968000D01*
X291830155Y126540381D02*
X291830155Y127556381D01*
X291249583Y126540381D01*
X291249583Y127556381D01*
X290814155Y127459620D02*
X290765774Y127508000D01*
X290669012Y127556381D01*
X290427107Y127556381D01*
X290330345Y127508000D01*
X290281964Y127459620D01*
X290233583Y127362858D01*
X290233583Y127266096D01*
X290281964Y127120953D01*
X290862536Y126540381D01*
X290233583Y126540381D01*
X284901035Y126540381D02*
X284901035Y127556381D01*
X284320463Y126540381D01*
X284320463Y127556381D01*
X283304463Y126540381D02*
X283885035Y126540381D01*
X283594749Y126540381D02*
X283594749Y127556381D01*
X283691511Y127411239D01*
X283788273Y127314477D01*
X283885035Y127266096D01*
X284919178Y130096381D02*
X284338606Y130096381D01*
X284628892Y129080381D02*
X284628892Y130096381D01*
X283999940Y129080381D02*
X283999940Y130096381D01*
X283612892Y130096381D01*
X283516130Y130048000D01*
X283467749Y129999620D01*
X283419368Y129902858D01*
X283419368Y129757715D01*
X283467749Y129660953D01*
X283516130Y129612572D01*
X283612892Y129564191D01*
X283999940Y129564191D01*
X283032320Y129370667D02*
X282548511Y129370667D01*
X283129082Y129080381D02*
X282790416Y130096381D01*
X282451749Y129080381D01*
X291830155Y129080381D02*
X291830155Y130096381D01*
X291249583Y129080381D01*
X291249583Y130096381D01*
X290572250Y130096381D02*
X290475488Y130096381D01*
X290378726Y130048000D01*
X290330345Y129999620D01*
X290281964Y129902858D01*
X290233583Y129709334D01*
X290233583Y129467429D01*
X290281964Y129273905D01*
X290330345Y129177143D01*
X290378726Y129128762D01*
X290475488Y129080381D01*
X290572250Y129080381D01*
X290669012Y129128762D01*
X290717393Y129177143D01*
X290765774Y129273905D01*
X290814155Y129467429D01*
X290814155Y129709334D01*
X290765774Y129902858D01*
X290717393Y129999620D01*
X290669012Y130048000D01*
X290572250Y130096381D01*
X293233202Y133009640D02*
X292072060Y133009640D01*
X292991298Y131620381D02*
X292991298Y132636381D01*
X292652631Y131910667D01*
X292313964Y132636381D01*
X292313964Y131620381D01*
X292072060Y133009640D02*
X291056060Y133009640D01*
X291249583Y131620381D02*
X291588250Y132104191D01*
X291830155Y131620381D02*
X291830155Y132636381D01*
X291443107Y132636381D01*
X291346345Y132588000D01*
X291297964Y132539620D01*
X291249583Y132442858D01*
X291249583Y132297715D01*
X291297964Y132200953D01*
X291346345Y132152572D01*
X291443107Y132104191D01*
X291830155Y132104191D01*
X291056060Y133009640D02*
X290040060Y133009640D01*
X290814155Y131620381D02*
X290814155Y132636381D01*
X290572250Y132636381D01*
X290427107Y132588000D01*
X290330345Y132491239D01*
X290281964Y132394477D01*
X290233583Y132200953D01*
X290233583Y132055810D01*
X290281964Y131862286D01*
X290330345Y131765524D01*
X290427107Y131668762D01*
X290572250Y131620381D01*
X290814155Y131620381D01*
X284888940Y133009640D02*
X283872940Y133009640D01*
X284066463Y131620381D02*
X284405130Y132104191D01*
X284647035Y131620381D02*
X284647035Y132636381D01*
X284259987Y132636381D01*
X284163225Y132588000D01*
X284114844Y132539620D01*
X284066463Y132442858D01*
X284066463Y132297715D01*
X284114844Y132200953D01*
X284163225Y132152572D01*
X284259987Y132104191D01*
X284647035Y132104191D01*
X283872940Y133009640D02*
X282953701Y133009640D01*
X283631035Y132152572D02*
X283292368Y132152572D01*
X283147225Y131620381D02*
X283631035Y131620381D01*
X283631035Y132636381D01*
X283147225Y132636381D01*
X282953701Y133009640D02*
X281986082Y133009640D01*
X282760178Y131668762D02*
X282615035Y131620381D01*
X282373130Y131620381D01*
X282276368Y131668762D01*
X282227987Y131717143D01*
X282179606Y131813905D01*
X282179606Y131910667D01*
X282227987Y132007429D01*
X282276368Y132055810D01*
X282373130Y132104191D01*
X282566654Y132152572D01*
X282663416Y132200953D01*
X282711797Y132249334D01*
X282760178Y132346096D01*
X282760178Y132442858D01*
X282711797Y132539620D01*
X282663416Y132588000D01*
X282566654Y132636381D01*
X282324749Y132636381D01*
X282179606Y132588000D01*
X281986082Y133009640D02*
X281066844Y133009640D01*
X281744178Y132152572D02*
X281405511Y132152572D01*
X281260368Y131620381D02*
X281744178Y131620381D01*
X281744178Y132636381D01*
X281260368Y132636381D01*
X281066844Y133009640D02*
X280292749Y133009640D01*
X280970082Y132636381D02*
X280389511Y132636381D01*
X280679797Y131620381D02*
X280679797Y132636381D01*
X290185202Y134063620D02*
X290281964Y134112000D01*
X290378726Y134208762D01*
X290523869Y134353905D01*
X290620631Y134402286D01*
X290717393Y134402286D01*
X290669012Y134160381D02*
X290765774Y134208762D01*
X290862536Y134305524D01*
X290910917Y134499048D01*
X290910917Y134837715D01*
X290862536Y135031239D01*
X290765774Y135128000D01*
X290669012Y135176381D01*
X290475488Y135176381D01*
X290378726Y135128000D01*
X290281964Y135031239D01*
X290233583Y134837715D01*
X290233583Y134499048D01*
X290281964Y134305524D01*
X290378726Y134208762D01*
X290475488Y134160381D01*
X290669012Y134160381D01*
X284901035Y134160381D02*
X284901035Y135176381D01*
X284320463Y134160381D01*
X284320463Y135176381D01*
X283110940Y135224762D02*
X283981797Y133918477D01*
X282191701Y134257143D02*
X282240082Y134208762D01*
X282385225Y134160381D01*
X282481987Y134160381D01*
X282627130Y134208762D01*
X282723892Y134305524D01*
X282772273Y134402286D01*
X282820654Y134595810D01*
X282820654Y134740953D01*
X282772273Y134934477D01*
X282723892Y135031239D01*
X282627130Y135128000D01*
X282481987Y135176381D01*
X282385225Y135176381D01*
X282240082Y135128000D01*
X282191701Y135079620D01*
X293475107Y137232572D02*
X293329964Y137184191D01*
X293281583Y137135810D01*
X293233202Y137039048D01*
X293233202Y136893905D01*
X293281583Y136797143D01*
X293329964Y136748762D01*
X293426726Y136700381D01*
X293813774Y136700381D01*
X293813774Y137716381D01*
X293475107Y137716381D01*
X293378345Y137668000D01*
X293329964Y137619620D01*
X293281583Y137522858D01*
X293281583Y137426096D01*
X293329964Y137329334D01*
X293378345Y137280953D01*
X293475107Y137232572D01*
X293813774Y137232572D01*
X292797774Y137716381D02*
X292797774Y136893905D01*
X292749393Y136797143D01*
X292701012Y136748762D01*
X292604250Y136700381D01*
X292410726Y136700381D01*
X292313964Y136748762D01*
X292265583Y136797143D01*
X292217202Y136893905D01*
X292217202Y137716381D01*
X291781774Y136748762D02*
X291636631Y136700381D01*
X291394726Y136700381D01*
X291297964Y136748762D01*
X291249583Y136797143D01*
X291201202Y136893905D01*
X291201202Y136990667D01*
X291249583Y137087429D01*
X291297964Y137135810D01*
X291394726Y137184191D01*
X291588250Y137232572D01*
X291685012Y137280953D01*
X291733393Y137329334D01*
X291781774Y137426096D01*
X291781774Y137522858D01*
X291733393Y137619620D01*
X291685012Y137668000D01*
X291588250Y137716381D01*
X291346345Y137716381D01*
X291201202Y137668000D01*
X290862536Y137716381D02*
X290185202Y137716381D01*
X290620631Y136700381D01*
X284562368Y137232572D02*
X284417225Y137184191D01*
X284368844Y137135810D01*
X284320463Y137039048D01*
X284320463Y136893905D01*
X284368844Y136797143D01*
X284417225Y136748762D01*
X284513987Y136700381D01*
X284901035Y136700381D01*
X284901035Y137716381D01*
X284562368Y137716381D01*
X284465606Y137668000D01*
X284417225Y137619620D01*
X284368844Y137522858D01*
X284368844Y137426096D01*
X284417225Y137329334D01*
X284465606Y137280953D01*
X284562368Y137232572D01*
X284901035Y137232572D01*
X283885035Y137716381D02*
X283885035Y136893905D01*
X283836654Y136797143D01*
X283788273Y136748762D01*
X283691511Y136700381D01*
X283497987Y136700381D01*
X283401225Y136748762D01*
X283352844Y136797143D01*
X283304463Y136893905D01*
X283304463Y137716381D01*
X282869035Y136748762D02*
X282723892Y136700381D01*
X282481987Y136700381D01*
X282385225Y136748762D01*
X282336844Y136797143D01*
X282288463Y136893905D01*
X282288463Y136990667D01*
X282336844Y137087429D01*
X282385225Y137135810D01*
X282481987Y137184191D01*
X282675511Y137232572D01*
X282772273Y137280953D01*
X282820654Y137329334D01*
X282869035Y137426096D01*
X282869035Y137522858D01*
X282820654Y137619620D01*
X282772273Y137668000D01*
X282675511Y137716381D01*
X282433606Y137716381D01*
X282288463Y137668000D01*
X281417606Y137716381D02*
X281611130Y137716381D01*
X281707892Y137668000D01*
X281756273Y137619620D01*
X281853035Y137474477D01*
X281901416Y137280953D01*
X281901416Y136893905D01*
X281853035Y136797143D01*
X281804654Y136748762D01*
X281707892Y136700381D01*
X281514368Y136700381D01*
X281417606Y136748762D01*
X281369225Y136797143D01*
X281320844Y136893905D01*
X281320844Y137135810D01*
X281369225Y137232572D01*
X281417606Y137280953D01*
X281514368Y137329334D01*
X281707892Y137329334D01*
X281804654Y137280953D01*
X281853035Y137232572D01*
X281901416Y137135810D01*
X293475107Y139772572D02*
X293329964Y139724191D01*
X293281583Y139675810D01*
X293233202Y139579048D01*
X293233202Y139433905D01*
X293281583Y139337143D01*
X293329964Y139288762D01*
X293426726Y139240381D01*
X293813774Y139240381D01*
X293813774Y140256381D01*
X293475107Y140256381D01*
X293378345Y140208000D01*
X293329964Y140159620D01*
X293281583Y140062858D01*
X293281583Y139966096D01*
X293329964Y139869334D01*
X293378345Y139820953D01*
X293475107Y139772572D01*
X293813774Y139772572D01*
X292797774Y140256381D02*
X292797774Y139433905D01*
X292749393Y139337143D01*
X292701012Y139288762D01*
X292604250Y139240381D01*
X292410726Y139240381D01*
X292313964Y139288762D01*
X292265583Y139337143D01*
X292217202Y139433905D01*
X292217202Y140256381D01*
X291781774Y139288762D02*
X291636631Y139240381D01*
X291394726Y139240381D01*
X291297964Y139288762D01*
X291249583Y139337143D01*
X291201202Y139433905D01*
X291201202Y139530667D01*
X291249583Y139627429D01*
X291297964Y139675810D01*
X291394726Y139724191D01*
X291588250Y139772572D01*
X291685012Y139820953D01*
X291733393Y139869334D01*
X291781774Y139966096D01*
X291781774Y140062858D01*
X291733393Y140159620D01*
X291685012Y140208000D01*
X291588250Y140256381D01*
X291346345Y140256381D01*
X291201202Y140208000D01*
X290281964Y140256381D02*
X290765774Y140256381D01*
X290814155Y139772572D01*
X290765774Y139820953D01*
X290669012Y139869334D01*
X290427107Y139869334D01*
X290330345Y139820953D01*
X290281964Y139772572D01*
X290233583Y139675810D01*
X290233583Y139433905D01*
X290281964Y139337143D01*
X290330345Y139288762D01*
X290427107Y139240381D01*
X290669012Y139240381D01*
X290765774Y139288762D01*
X290814155Y139337143D01*
X284562368Y139772572D02*
X284417225Y139724191D01*
X284368844Y139675810D01*
X284320463Y139579048D01*
X284320463Y139433905D01*
X284368844Y139337143D01*
X284417225Y139288762D01*
X284513987Y139240381D01*
X284901035Y139240381D01*
X284901035Y140256381D01*
X284562368Y140256381D01*
X284465606Y140208000D01*
X284417225Y140159620D01*
X284368844Y140062858D01*
X284368844Y139966096D01*
X284417225Y139869334D01*
X284465606Y139820953D01*
X284562368Y139772572D01*
X284901035Y139772572D01*
X283449606Y139917715D02*
X283449606Y139240381D01*
X283691511Y140304762D02*
X283933416Y139579048D01*
X283304463Y139579048D01*
X284562368Y142312572D02*
X284417225Y142264191D01*
X284368844Y142215810D01*
X284320463Y142119048D01*
X284320463Y141973905D01*
X284368844Y141877143D01*
X284417225Y141828762D01*
X284513987Y141780381D01*
X284901035Y141780381D01*
X284901035Y142796381D01*
X284562368Y142796381D01*
X284465606Y142748000D01*
X284417225Y142699620D01*
X284368844Y142602858D01*
X284368844Y142506096D01*
X284417225Y142409334D01*
X284465606Y142360953D01*
X284562368Y142312572D01*
X284901035Y142312572D01*
X283885035Y142796381D02*
X283885035Y141973905D01*
X283836654Y141877143D01*
X283788273Y141828762D01*
X283691511Y141780381D01*
X283497987Y141780381D01*
X283401225Y141828762D01*
X283352844Y141877143D01*
X283304463Y141973905D01*
X283304463Y142796381D01*
X282869035Y141828762D02*
X282723892Y141780381D01*
X282481987Y141780381D01*
X282385225Y141828762D01*
X282336844Y141877143D01*
X282288463Y141973905D01*
X282288463Y142070667D01*
X282336844Y142167429D01*
X282385225Y142215810D01*
X282481987Y142264191D01*
X282675511Y142312572D01*
X282772273Y142360953D01*
X282820654Y142409334D01*
X282869035Y142506096D01*
X282869035Y142602858D01*
X282820654Y142699620D01*
X282772273Y142748000D01*
X282675511Y142796381D01*
X282433606Y142796381D01*
X282288463Y142748000D01*
X281901416Y142699620D02*
X281853035Y142748000D01*
X281756273Y142796381D01*
X281514368Y142796381D01*
X281417606Y142748000D01*
X281369225Y142699620D01*
X281320844Y142602858D01*
X281320844Y142506096D01*
X281369225Y142360953D01*
X281949797Y141780381D01*
X281320844Y141780381D01*
X293475107Y142312572D02*
X293329964Y142264191D01*
X293281583Y142215810D01*
X293233202Y142119048D01*
X293233202Y141973905D01*
X293281583Y141877143D01*
X293329964Y141828762D01*
X293426726Y141780381D01*
X293813774Y141780381D01*
X293813774Y142796381D01*
X293475107Y142796381D01*
X293378345Y142748000D01*
X293329964Y142699620D01*
X293281583Y142602858D01*
X293281583Y142506096D01*
X293329964Y142409334D01*
X293378345Y142360953D01*
X293475107Y142312572D01*
X293813774Y142312572D01*
X292797774Y142796381D02*
X292797774Y141973905D01*
X292749393Y141877143D01*
X292701012Y141828762D01*
X292604250Y141780381D01*
X292410726Y141780381D01*
X292313964Y141828762D01*
X292265583Y141877143D01*
X292217202Y141973905D01*
X292217202Y142796381D01*
X291781774Y141828762D02*
X291636631Y141780381D01*
X291394726Y141780381D01*
X291297964Y141828762D01*
X291249583Y141877143D01*
X291201202Y141973905D01*
X291201202Y142070667D01*
X291249583Y142167429D01*
X291297964Y142215810D01*
X291394726Y142264191D01*
X291588250Y142312572D01*
X291685012Y142360953D01*
X291733393Y142409334D01*
X291781774Y142506096D01*
X291781774Y142602858D01*
X291733393Y142699620D01*
X291685012Y142748000D01*
X291588250Y142796381D01*
X291346345Y142796381D01*
X291201202Y142748000D01*
X290862536Y142796381D02*
X290233583Y142796381D01*
X290572250Y142409334D01*
X290427107Y142409334D01*
X290330345Y142360953D01*
X290281964Y142312572D01*
X290233583Y142215810D01*
X290233583Y141973905D01*
X290281964Y141877143D01*
X290330345Y141828762D01*
X290427107Y141780381D01*
X290717393Y141780381D01*
X290814155Y141828762D01*
X290862536Y141877143D01*
X284562368Y144852572D02*
X284417225Y144804191D01*
X284368844Y144755810D01*
X284320463Y144659048D01*
X284320463Y144513905D01*
X284368844Y144417143D01*
X284417225Y144368762D01*
X284513987Y144320381D01*
X284901035Y144320381D01*
X284901035Y145336381D01*
X284562368Y145336381D01*
X284465606Y145288000D01*
X284417225Y145239620D01*
X284368844Y145142858D01*
X284368844Y145046096D01*
X284417225Y144949334D01*
X284465606Y144900953D01*
X284562368Y144852572D01*
X284901035Y144852572D01*
X283885035Y145336381D02*
X283885035Y144513905D01*
X283836654Y144417143D01*
X283788273Y144368762D01*
X283691511Y144320381D01*
X283497987Y144320381D01*
X283401225Y144368762D01*
X283352844Y144417143D01*
X283304463Y144513905D01*
X283304463Y145336381D01*
X282869035Y144368762D02*
X282723892Y144320381D01*
X282481987Y144320381D01*
X282385225Y144368762D01*
X282336844Y144417143D01*
X282288463Y144513905D01*
X282288463Y144610667D01*
X282336844Y144707429D01*
X282385225Y144755810D01*
X282481987Y144804191D01*
X282675511Y144852572D01*
X282772273Y144900953D01*
X282820654Y144949334D01*
X282869035Y145046096D01*
X282869035Y145142858D01*
X282820654Y145239620D01*
X282772273Y145288000D01*
X282675511Y145336381D01*
X282433606Y145336381D01*
X282288463Y145288000D01*
X281320844Y144320381D02*
X281901416Y144320381D01*
X281611130Y144320381D02*
X281611130Y145336381D01*
X281707892Y145191239D01*
X281804654Y145094477D01*
X281901416Y145046096D01*
X293475107Y144852572D02*
X293329964Y144804191D01*
X293281583Y144755810D01*
X293233202Y144659048D01*
X293233202Y144513905D01*
X293281583Y144417143D01*
X293329964Y144368762D01*
X293426726Y144320381D01*
X293813774Y144320381D01*
X293813774Y145336381D01*
X293475107Y145336381D01*
X293378345Y145288000D01*
X293329964Y145239620D01*
X293281583Y145142858D01*
X293281583Y145046096D01*
X293329964Y144949334D01*
X293378345Y144900953D01*
X293475107Y144852572D01*
X293813774Y144852572D01*
X292797774Y145336381D02*
X292797774Y144513905D01*
X292749393Y144417143D01*
X292701012Y144368762D01*
X292604250Y144320381D01*
X292410726Y144320381D01*
X292313964Y144368762D01*
X292265583Y144417143D01*
X292217202Y144513905D01*
X292217202Y145336381D01*
X291781774Y144368762D02*
X291636631Y144320381D01*
X291394726Y144320381D01*
X291297964Y144368762D01*
X291249583Y144417143D01*
X291201202Y144513905D01*
X291201202Y144610667D01*
X291249583Y144707429D01*
X291297964Y144755810D01*
X291394726Y144804191D01*
X291588250Y144852572D01*
X291685012Y144900953D01*
X291733393Y144949334D01*
X291781774Y145046096D01*
X291781774Y145142858D01*
X291733393Y145239620D01*
X291685012Y145288000D01*
X291588250Y145336381D01*
X291346345Y145336381D01*
X291201202Y145288000D01*
X290572250Y145336381D02*
X290475488Y145336381D01*
X290378726Y145288000D01*
X290330345Y145239620D01*
X290281964Y145142858D01*
X290233583Y144949334D01*
X290233583Y144707429D01*
X290281964Y144513905D01*
X290330345Y144417143D01*
X290378726Y144368762D01*
X290475488Y144320381D01*
X290572250Y144320381D01*
X290669012Y144368762D01*
X290717393Y144417143D01*
X290765774Y144513905D01*
X290814155Y144707429D01*
X290814155Y144949334D01*
X290765774Y145142858D01*
X290717393Y145239620D01*
X290669012Y145288000D01*
X290572250Y145336381D01*
X284901035Y147247429D02*
X284126940Y147247429D01*
X284513987Y146860381D02*
X284513987Y147634477D01*
X283159320Y147876381D02*
X283643130Y147876381D01*
X283691511Y147392572D01*
X283643130Y147440953D01*
X283546368Y147489334D01*
X283304463Y147489334D01*
X283207701Y147440953D01*
X283159320Y147392572D01*
X283110940Y147295810D01*
X283110940Y147053905D01*
X283159320Y146957143D01*
X283207701Y146908762D01*
X283304463Y146860381D01*
X283546368Y146860381D01*
X283643130Y146908762D01*
X283691511Y146957143D01*
X282820654Y147876381D02*
X282481987Y146860381D01*
X282143320Y147876381D01*
X292362345Y147955000D02*
X292459107Y148003381D01*
X292604250Y148003381D01*
X292749393Y147955000D01*
X292846155Y147858239D01*
X292894536Y147761477D01*
X292942917Y147567953D01*
X292942917Y147422810D01*
X292894536Y147229286D01*
X292846155Y147132524D01*
X292749393Y147035762D01*
X292604250Y146987381D01*
X292507488Y146987381D01*
X292362345Y147035762D01*
X292313964Y147084143D01*
X292313964Y147422810D01*
X292507488Y147422810D01*
X291878536Y146987381D02*
X291878536Y148003381D01*
X291297964Y146987381D01*
X291297964Y148003381D01*
X290814155Y146987381D02*
X290814155Y148003381D01*
X290572250Y148003381D01*
X290427107Y147955000D01*
X290330345Y147858239D01*
X290281964Y147761477D01*
X290233583Y147567953D01*
X290233583Y147422810D01*
X290281964Y147229286D01*
X290330345Y147132524D01*
X290427107Y147035762D01*
X290572250Y146987381D01*
X290814155Y146987381D01*
M02*
